M48
;DRILL file {Pcbnew (2014-02-03 BZR 4658)-product} date Wed 22 Jul 2015 07:25:08 AM PDT
;FORMAT={-:-/ absolute / inch / decimal}
FMAT,2
INCH,TZ
T1C0.025
T2C0.039
T3C0.047
T4C0.051
T5C0.063
T6C0.134
%
G90
G05
M72
T1
X2.48Y-3.53
X2.48Y-3.61
X2.53Y-1.54
X2.57Y-3.92
X2.72Y-1.94
X2.98Y-1.94
X3.1Y-3.86
X3.1Y-3.92
X3.13Y-1.54
X3.18Y-1.84
X3.18Y-2.45
X3.18Y-3.53
X3.18Y-3.61
X3.245Y-3.24
X3.31Y-3.35
X3.31Y-3.54
X3.51Y-3.61
X3.51Y-3.87
X3.59Y-1.54
X3.59Y-2.9
X3.6Y-3.94
X3.62Y-3.2
X3.625Y-3.53
X3.645Y-3.47
X3.65Y-1.84
X3.665Y-4.09
X3.67Y-2.58
X3.67Y-3.94
X3.675Y-3.53
X3.74Y-2.54
X3.74Y-2.58
X3.74Y-4.09
X3.8Y-2.49
X3.825Y-3.465
X3.84Y-2.49
X3.88Y-3.94
X3.925Y-3.53
X3.93Y-3.94
X3.948Y-4.128
X3.96Y-2.55
X4.023Y-4.203
X4.095Y-3.79
X4.233Y-3.713
X4.295Y-3.715
X4.325Y-3.56
X4.33Y-2.85
X4.385Y-3.56
X4.3956Y-1.9606
X4.4256Y-1.7806
X4.45Y-3.56
X4.4556Y-1.9606
X4.5006Y-1.8156
X4.5006Y-1.8656
X4.5356Y-1.7656
X4.5356Y-1.8156
X4.5356Y-1.8656
X4.55Y-3.07
X4.71Y-2.825
X4.73Y-2.745
X4.755Y-4.32
X4.78Y-2.745
X4.78Y-3.235
X4.785Y-4.805
X4.7906Y-1.9956
X4.795Y-4.73
X4.8Y-3.165
X4.805Y-2.675
X4.805Y-4.32
X4.815Y-4.24
X4.83Y-2.745
X4.8406Y-1.9956
X4.85Y-3.165
X4.85Y-4.73
X4.855Y-4.32
X4.875Y-2.745
X4.8856Y-1.8156
X4.9Y-3.165
X4.9Y-4.73
X4.92Y-2.35
X4.92Y-2.745
X4.92Y-3.93
X4.92Y-4.32
X4.9206Y-1.8156
X4.995Y-2.745
X4.995Y-3.165
X4.995Y-4.32
X4.995Y-4.73
X5.1Y-4.805
X5.11Y-3.235
X5.115Y-2.74
X5.12Y-4.31
X5.125Y-4.655
X5.13Y-3.085
X5.16Y-2.885
X5.16Y-3.02
X5.17Y-4.45
X5.17Y-4.5
X5.2Y-4.63
X5.21Y-2.655
X5.21Y-3.04
X5.215Y-4.225
X5.26Y-2.92
X5.26Y-2.985
X5.26Y-4.54
X5.26Y-4.59
X6.045Y-3.11
X6.045Y-4.685
X6.09Y-2.8
X6.1Y-3.11
X6.1Y-4.37
X6.1Y-4.685
X6.185Y-2.835
X6.185Y-3.075
X6.185Y-4.405
X6.19Y-4.65
X6.515Y-3.11
X6.515Y-4.68
X6.57Y-2.8
X6.57Y-3.11
X6.575Y-4.37
X6.575Y-4.68
X6.66Y-2.84
X6.66Y-4.405
X6.66Y-4.65
X6.665Y-3.065
T2
X1.8065Y-2.2713
X1.8065Y-2.3713
X1.9065Y-2.2713
X1.9065Y-2.3713
X2.0065Y-2.2713
X2.0065Y-2.3713
X2.1065Y-2.2713
X2.1065Y-2.3713
X2.2065Y-2.2713
X2.2065Y-2.3713
X2.3065Y-2.2713
X2.3065Y-2.3713
X2.4065Y-2.2713
X2.4065Y-2.3713
X2.5065Y-2.2713
X2.5065Y-2.3713
X2.6065Y-2.2713
X2.6065Y-2.3713
X2.7065Y-2.2713
X2.7065Y-2.3713
X3.78Y-3.04
X3.88Y-3.04
X4.7539Y-2.4802
X4.7539Y-3.425
X4.7539Y-4.055
X4.7539Y-4.9998
X4.8539Y-2.4802
X4.8539Y-3.425
X4.8539Y-4.055
X4.8539Y-4.9998
X5.0287Y-2.0472
X5.0294Y-2.4802
X5.0294Y-3.425
X5.0294Y-4.055
X5.0294Y-4.9998
X5.1287Y-2.0472
X5.1294Y-2.4802
X5.1294Y-3.425
X5.1294Y-4.055
X5.1294Y-4.9998
X5.3944Y-2.7057
X5.3944Y-2.8057
X5.3944Y-3.0994
X5.3944Y-3.1994
X5.3944Y-4.2806
X5.3944Y-4.3806
X5.3944Y-4.6743
X5.3944Y-4.7743
X5.8743Y-2.8528
X5.8743Y-3.0528
X5.8743Y-4.4276
X5.8743Y-4.6276
X6.07Y-3.35
X6.07Y-3.45
X6.0711Y-2.4697
X6.0711Y-2.5697
X6.0711Y-4.0445
X6.0711Y-4.1445
X6.0711Y-4.9106
X6.0711Y-5.0106
X6.3467Y-2.8528
X6.3467Y-3.0528
X6.3467Y-4.4276
X6.3467Y-4.6276
X6.54Y-3.35
X6.54Y-3.45
X6.5435Y-2.4697
X6.5435Y-2.5697
X6.5435Y-4.0445
X6.5435Y-4.1445
X6.5435Y-4.9106
X6.5435Y-5.0106
T3
X6.9969Y-3.1496
X6.9969Y-4.3307
T4
X5.37Y-1.595
X5.57Y-1.595
X5.77Y-1.595
X5.97Y-1.595
X6.17Y-1.595
T5
X6.9969Y-2.9996
X6.9969Y-3.2996
X6.9969Y-4.1807
X6.9969Y-4.4807
X7.3469Y-3.2996
X7.3469Y-4.4807
X7.5469Y-2.9996
X7.5469Y-4.1807
T6
X1.528Y-1.528
X1.528Y-5.9524
X1.7644Y-2.0744
X1.7644Y-4.5744
X2.7486Y-2.0744
X2.7486Y-4.5744
X7.5075Y-1.528
X7.5075Y-5.9524
T0
M30
