%FSLAX34Y34*%
G04 Gerber Fmt 3.4, Leading zero omitted, Abs format*
G04 (created by PCBNEW (2014-02-03 BZR 4658)-product) date Thu 30 Jul 2015 10:30:08 PM PDT*
%MOIN*%
G01*
G70*
G90*
G04 APERTURE LIST*
%ADD10C,0.005906*%
%ADD11R,0.054370X0.054370*%
%ADD12C,0.054370*%
%ADD13C,0.070866*%
%ADD14R,0.090551X0.090551*%
%ADD15C,0.090551*%
%ADD16C,0.102362*%
%ADD17C,0.086614*%
%ADD18C,0.062992*%
%ADD19C,0.315100*%
%ADD20C,0.192955*%
%ADD21C,0.035000*%
G04 APERTURE END LIST*
G54D10*
G54D11*
X18064Y-22712D03*
G54D12*
X18064Y-23712D03*
X19064Y-22712D03*
X19064Y-23712D03*
X20064Y-22712D03*
X20064Y-23712D03*
X21064Y-22712D03*
X21064Y-23712D03*
X22064Y-22712D03*
X22064Y-23712D03*
X23064Y-22712D03*
X23064Y-23712D03*
X24064Y-22712D03*
X24064Y-23712D03*
X25064Y-22712D03*
X25064Y-23712D03*
X26064Y-22712D03*
X26064Y-23712D03*
X27064Y-22712D03*
X27064Y-23712D03*
G54D13*
X37800Y-30400D03*
X38800Y-30400D03*
X48538Y-49998D03*
X47538Y-49998D03*
X50294Y-49998D03*
X51294Y-49998D03*
X53944Y-47742D03*
X53944Y-46742D03*
X53944Y-43805D03*
X53944Y-42805D03*
X50294Y-40549D03*
X51294Y-40549D03*
X48538Y-40549D03*
X47538Y-40549D03*
X48538Y-34250D03*
X47538Y-34250D03*
X50294Y-34250D03*
X51294Y-34250D03*
X53944Y-31994D03*
X53944Y-30994D03*
X53944Y-28057D03*
X53944Y-27057D03*
X50294Y-24801D03*
X51294Y-24801D03*
X48538Y-24801D03*
X47538Y-24801D03*
X48531Y-21653D03*
X47531Y-21653D03*
X60700Y-33500D03*
X60700Y-34500D03*
X60711Y-24696D03*
X60711Y-25696D03*
X65400Y-33500D03*
X65400Y-34500D03*
X65435Y-24696D03*
X65435Y-25696D03*
X58742Y-28527D03*
X58742Y-30527D03*
X63466Y-28527D03*
X63466Y-30527D03*
X60711Y-49106D03*
X60711Y-50106D03*
X60711Y-40444D03*
X60711Y-41444D03*
X65435Y-49106D03*
X65435Y-50106D03*
X65435Y-40444D03*
X65435Y-41444D03*
X58742Y-44275D03*
X58742Y-46275D03*
X63466Y-44275D03*
X63466Y-46275D03*
G54D14*
X53700Y-15950D03*
G54D15*
X55700Y-15950D03*
G54D14*
X57700Y-15950D03*
G54D15*
X59700Y-15950D03*
X61700Y-15950D03*
G54D16*
X69968Y-32996D03*
X69968Y-29996D03*
G54D17*
X69968Y-31496D03*
G54D18*
X75468Y-29996D03*
X73468Y-32996D03*
G54D16*
X69968Y-44807D03*
X69968Y-41807D03*
G54D17*
X69968Y-43307D03*
G54D18*
X75468Y-41807D03*
X73468Y-44807D03*
G54D19*
X15279Y-15279D03*
X75074Y-15279D03*
X15279Y-59523D03*
X75074Y-59523D03*
G54D20*
X27486Y-45744D03*
X17643Y-45744D03*
X17643Y-20744D03*
X27486Y-20744D03*
G54D21*
X61000Y-46850D03*
X61900Y-46500D03*
X66600Y-46500D03*
X65750Y-46800D03*
X66650Y-30650D03*
X65700Y-31100D03*
X61850Y-30750D03*
X61000Y-31100D03*
X44850Y-19150D03*
X45350Y-19150D03*
X36900Y-25900D03*
X37900Y-25900D03*
X37900Y-25400D03*
X45356Y-17656D03*
X61850Y-44050D03*
X61000Y-43700D03*
X66600Y-44050D03*
X65750Y-43700D03*
X66600Y-28400D03*
X65700Y-28000D03*
X60900Y-28000D03*
X61850Y-28350D03*
X43250Y-35600D03*
X40950Y-37900D03*
X43850Y-35600D03*
X42330Y-37130D03*
X44500Y-35600D03*
X42950Y-37150D03*
X39480Y-41280D03*
X40230Y-42030D03*
X51600Y-30200D03*
X52600Y-29200D03*
X51600Y-28850D03*
X52600Y-29850D03*
X52600Y-45400D03*
X51700Y-44500D03*
X51700Y-45000D03*
X52600Y-45900D03*
X44600Y-20300D03*
X38800Y-25100D03*
X37400Y-25900D03*
X37400Y-25400D03*
X47700Y-27450D03*
X49350Y-18150D03*
X44850Y-18650D03*
X44850Y-18150D03*
X36500Y-18400D03*
X31300Y-15400D03*
X35900Y-15400D03*
X52000Y-46300D03*
X60450Y-46850D03*
X65150Y-46800D03*
X60450Y-31100D03*
X65150Y-31100D03*
X48050Y-43200D03*
X52150Y-42250D03*
X51200Y-43100D03*
X48150Y-42400D03*
X49950Y-43200D03*
X51250Y-46550D03*
X49950Y-47300D03*
X47950Y-47300D03*
X49000Y-47300D03*
X51000Y-48050D03*
X47850Y-48050D03*
X48856Y-18156D03*
X45356Y-18156D03*
X45356Y-18656D03*
X48050Y-26750D03*
X51150Y-27400D03*
X52100Y-26550D03*
X52100Y-30400D03*
X51300Y-30850D03*
X49950Y-27450D03*
X39250Y-35300D03*
X51100Y-32350D03*
X47800Y-32350D03*
X49950Y-31650D03*
X48000Y-31650D03*
X49000Y-31650D03*
X36650Y-40900D03*
X36000Y-39400D03*
X39300Y-39400D03*
X33100Y-35400D03*
X36200Y-32000D03*
X35900Y-29000D03*
X31000Y-39200D03*
X31800Y-36100D03*
X32450Y-32400D03*
X36450Y-34700D03*
X36250Y-35300D03*
X25300Y-15400D03*
X25700Y-39200D03*
X24800Y-36100D03*
X31800Y-24500D03*
X31800Y-18400D03*
X35100Y-38700D03*
X35100Y-36100D03*
X45500Y-30700D03*
X43300Y-28500D03*
X49200Y-39300D03*
X49200Y-43200D03*
X49200Y-27450D03*
X49200Y-23500D03*
X27200Y-19400D03*
X24800Y-35300D03*
X48850Y-19150D03*
X49350Y-19150D03*
X47200Y-27450D03*
X48200Y-27450D03*
X48700Y-27450D03*
X29800Y-19400D03*
X48550Y-43200D03*
X47550Y-43200D03*
X48500Y-47300D03*
X48500Y-31650D03*
X37400Y-40900D03*
X36700Y-39400D03*
X38800Y-39400D03*
X31000Y-38600D03*
X31800Y-35300D03*
X33100Y-33500D03*
X38250Y-34650D03*
X36750Y-35300D03*
M02*
