%FSLAX34Y34*%
G04 Gerber Fmt 3.4, Leading zero omitted, Abs format*
G04 (created by PCBNEW (2014-02-03 BZR 4658)-product) date Wed 22 Jul 2015 07:24:16 AM PDT*
%MOIN*%
G01*
G70*
G90*
G04 APERTURE LIST*
%ADD10C,0.005906*%
%ADD11R,0.054370X0.054370*%
%ADD12C,0.054370*%
%ADD13C,0.070866*%
%ADD14R,0.090551X0.090551*%
%ADD15C,0.090551*%
%ADD16C,0.102362*%
%ADD17C,0.086614*%
%ADD18C,0.062992*%
%ADD19C,0.133900*%
%ADD20C,0.035000*%
%ADD21C,0.012000*%
%ADD22C,0.010000*%
G04 APERTURE END LIST*
G54D10*
G54D11*
X18064Y-22712D03*
G54D12*
X18064Y-23712D03*
X19064Y-22712D03*
X19064Y-23712D03*
X20064Y-22712D03*
X20064Y-23712D03*
X21064Y-22712D03*
X21064Y-23712D03*
X22064Y-22712D03*
X22064Y-23712D03*
X23064Y-22712D03*
X23064Y-23712D03*
X24064Y-22712D03*
X24064Y-23712D03*
X25064Y-22712D03*
X25064Y-23712D03*
X26064Y-22712D03*
X26064Y-23712D03*
X27064Y-22712D03*
X27064Y-23712D03*
G54D13*
X37800Y-30400D03*
X38800Y-30400D03*
X48538Y-49998D03*
X47538Y-49998D03*
X50294Y-49998D03*
X51294Y-49998D03*
X53944Y-47742D03*
X53944Y-46742D03*
X53944Y-43805D03*
X53944Y-42805D03*
X50294Y-40549D03*
X51294Y-40549D03*
X48538Y-40549D03*
X47538Y-40549D03*
X48538Y-34250D03*
X47538Y-34250D03*
X50294Y-34250D03*
X51294Y-34250D03*
X53944Y-31994D03*
X53944Y-30994D03*
X53944Y-28057D03*
X53944Y-27057D03*
X50294Y-24801D03*
X51294Y-24801D03*
X48538Y-24801D03*
X47538Y-24801D03*
X50287Y-20472D03*
X51287Y-20472D03*
X60700Y-33500D03*
X60700Y-34500D03*
X60711Y-24696D03*
X60711Y-25696D03*
X65400Y-33500D03*
X65400Y-34500D03*
X65435Y-24696D03*
X65435Y-25696D03*
X58742Y-28527D03*
X58742Y-30527D03*
X63466Y-28527D03*
X63466Y-30527D03*
X60711Y-49106D03*
X60711Y-50106D03*
X60711Y-40444D03*
X60711Y-41444D03*
X65435Y-49106D03*
X65435Y-50106D03*
X65435Y-40444D03*
X65435Y-41444D03*
X58742Y-44275D03*
X58742Y-46275D03*
X63466Y-44275D03*
X63466Y-46275D03*
G54D14*
X53700Y-15950D03*
G54D15*
X55700Y-15950D03*
G54D14*
X57700Y-15950D03*
G54D15*
X59700Y-15950D03*
X61700Y-15950D03*
G54D16*
X69968Y-32996D03*
X69968Y-29996D03*
G54D17*
X69968Y-31496D03*
G54D18*
X75468Y-29996D03*
X73468Y-32996D03*
G54D16*
X69968Y-44807D03*
X69968Y-41807D03*
G54D17*
X69968Y-43307D03*
G54D18*
X75468Y-41807D03*
X73468Y-44807D03*
G54D19*
X15279Y-15279D03*
X75074Y-15279D03*
X15279Y-59523D03*
X75074Y-59523D03*
X27486Y-45744D03*
X17643Y-45744D03*
X17643Y-20744D03*
X27486Y-20744D03*
G54D20*
X61000Y-46850D03*
X61900Y-46500D03*
X66600Y-46500D03*
X65750Y-46800D03*
X66650Y-30650D03*
X65700Y-31100D03*
X61850Y-30750D03*
X61000Y-31100D03*
X43956Y-19606D03*
X44556Y-19606D03*
X45356Y-17656D03*
X38000Y-24900D03*
X38400Y-24900D03*
X36700Y-25800D03*
X61850Y-44050D03*
X61000Y-43700D03*
X66600Y-44050D03*
X65750Y-43700D03*
X66600Y-28400D03*
X65700Y-28000D03*
X60900Y-28000D03*
X61850Y-28350D03*
X43250Y-35600D03*
X40950Y-37900D03*
X43850Y-35600D03*
X42330Y-37130D03*
X44500Y-35600D03*
X42950Y-37150D03*
X39480Y-41280D03*
X40230Y-42030D03*
X51600Y-30200D03*
X52600Y-29200D03*
X51600Y-28850D03*
X52600Y-29850D03*
X52600Y-45400D03*
X51700Y-44500D03*
X51700Y-45000D03*
X52600Y-45900D03*
X36500Y-18400D03*
X31300Y-15400D03*
X35900Y-15400D03*
X44256Y-17806D03*
X52000Y-46300D03*
X60450Y-46850D03*
X65150Y-46800D03*
X60450Y-31100D03*
X65150Y-31100D03*
X48050Y-43200D03*
X52150Y-42250D03*
X51200Y-43100D03*
X48150Y-42400D03*
X49950Y-43200D03*
X51250Y-46550D03*
X49950Y-47300D03*
X47950Y-47300D03*
X49000Y-47300D03*
X51000Y-48050D03*
X47850Y-48050D03*
X49206Y-18156D03*
X48856Y-18156D03*
X45356Y-18156D03*
X45006Y-18156D03*
X45006Y-18656D03*
X37400Y-25800D03*
X37400Y-25400D03*
X45356Y-18656D03*
X48300Y-27450D03*
X47300Y-27450D03*
X48050Y-26750D03*
X51150Y-27400D03*
X52100Y-26550D03*
X52100Y-30400D03*
X51300Y-30850D03*
X49950Y-27450D03*
X39250Y-35300D03*
X51100Y-32350D03*
X47800Y-32350D03*
X49950Y-31650D03*
X48000Y-31650D03*
X49000Y-31650D03*
X36650Y-40900D03*
X36000Y-39400D03*
X39300Y-39400D03*
X33100Y-35400D03*
X36200Y-32000D03*
X35900Y-29000D03*
X31000Y-39200D03*
X31800Y-36100D03*
X39600Y-25500D03*
X32450Y-32400D03*
X36450Y-34700D03*
X36250Y-35300D03*
X25300Y-15400D03*
X25700Y-39200D03*
X24800Y-36100D03*
X31800Y-24500D03*
X31800Y-18400D03*
X35100Y-38700D03*
X35100Y-36100D03*
X45500Y-30700D03*
X43300Y-28500D03*
X49200Y-39300D03*
X49200Y-43200D03*
X49200Y-27450D03*
X49200Y-23500D03*
X27200Y-19400D03*
X24800Y-35300D03*
X29800Y-19400D03*
X48550Y-43200D03*
X47550Y-43200D03*
X48500Y-47300D03*
X48406Y-19956D03*
X47906Y-19956D03*
X47800Y-27450D03*
X48750Y-27450D03*
X47100Y-28250D03*
X48500Y-31650D03*
X37400Y-40900D03*
X36700Y-39400D03*
X38800Y-39400D03*
X31000Y-38600D03*
X31800Y-35300D03*
X33100Y-33500D03*
X38250Y-34650D03*
X36750Y-35300D03*
G54D21*
X43250Y-35600D02*
X40950Y-37900D01*
X42330Y-37120D02*
X43850Y-35600D01*
X42330Y-37130D02*
X42330Y-37120D01*
X42950Y-37150D02*
X44500Y-35600D01*
X39480Y-41280D02*
X40230Y-42030D01*
X51600Y-28850D02*
X52600Y-29850D01*
X51700Y-45000D02*
X52600Y-45900D01*
X31800Y-24500D02*
X31800Y-18400D01*
X35100Y-36100D02*
X35100Y-38700D01*
X43300Y-28500D02*
X45500Y-30700D01*
X49200Y-43200D02*
X49200Y-39300D01*
X49200Y-23500D02*
X49200Y-23600D01*
X49200Y-27450D02*
X49200Y-23600D01*
G54D10*
G36*
X76305Y-58455D02*
X76033Y-58183D01*
X76033Y-41695D01*
X76033Y-29884D01*
X75947Y-29676D01*
X75788Y-29517D01*
X75581Y-29431D01*
X75356Y-29431D01*
X75148Y-29516D01*
X74989Y-29675D01*
X74903Y-29883D01*
X74903Y-30107D01*
X74989Y-30315D01*
X75148Y-30474D01*
X75355Y-30560D01*
X75580Y-30561D01*
X75788Y-30475D01*
X75947Y-30316D01*
X76033Y-30108D01*
X76033Y-29884D01*
X76033Y-41695D01*
X75947Y-41487D01*
X75788Y-41328D01*
X75581Y-41242D01*
X75356Y-41242D01*
X75148Y-41327D01*
X74989Y-41486D01*
X74903Y-41694D01*
X74903Y-41918D01*
X74989Y-42126D01*
X75148Y-42285D01*
X75355Y-42371D01*
X75580Y-42372D01*
X75788Y-42286D01*
X75947Y-42127D01*
X76033Y-41919D01*
X76033Y-41695D01*
X76033Y-58183D01*
X75996Y-58146D01*
X75399Y-57898D01*
X74752Y-57897D01*
X74155Y-58144D01*
X74033Y-58266D01*
X74033Y-44695D01*
X74033Y-32884D01*
X73947Y-32676D01*
X73788Y-32517D01*
X73581Y-32431D01*
X73356Y-32431D01*
X73148Y-32516D01*
X72989Y-32675D01*
X72903Y-32883D01*
X72903Y-33107D01*
X72989Y-33315D01*
X73148Y-33474D01*
X73355Y-33560D01*
X73580Y-33561D01*
X73788Y-33475D01*
X73947Y-33316D01*
X74033Y-33108D01*
X74033Y-32884D01*
X74033Y-44695D01*
X73947Y-44487D01*
X73788Y-44328D01*
X73581Y-44242D01*
X73356Y-44242D01*
X73148Y-44327D01*
X72989Y-44486D01*
X72903Y-44694D01*
X72903Y-44918D01*
X72989Y-45126D01*
X73148Y-45285D01*
X73355Y-45371D01*
X73580Y-45372D01*
X73788Y-45286D01*
X73947Y-45127D01*
X74033Y-44919D01*
X74033Y-44695D01*
X74033Y-58266D01*
X73697Y-58601D01*
X73449Y-59198D01*
X73449Y-59845D01*
X73695Y-60443D01*
X74006Y-60753D01*
X70730Y-60753D01*
X70730Y-44656D01*
X70730Y-41656D01*
X70730Y-32845D01*
X70730Y-29845D01*
X70614Y-29565D01*
X70400Y-29350D01*
X70120Y-29234D01*
X69817Y-29234D01*
X69537Y-29349D01*
X69323Y-29563D01*
X69206Y-29843D01*
X69206Y-30146D01*
X69322Y-30427D01*
X69536Y-30641D01*
X69816Y-30757D01*
X70119Y-30758D01*
X70399Y-30642D01*
X70613Y-30428D01*
X70730Y-30148D01*
X70730Y-29845D01*
X70730Y-32845D01*
X70651Y-32654D01*
X70651Y-31360D01*
X70547Y-31109D01*
X70355Y-30917D01*
X70104Y-30813D01*
X69833Y-30812D01*
X69582Y-30916D01*
X69389Y-31108D01*
X69285Y-31359D01*
X69285Y-31631D01*
X69389Y-31882D01*
X69581Y-32074D01*
X69832Y-32179D01*
X70103Y-32179D01*
X70354Y-32075D01*
X70547Y-31883D01*
X70651Y-31632D01*
X70651Y-31360D01*
X70651Y-32654D01*
X70614Y-32565D01*
X70400Y-32350D01*
X70120Y-32234D01*
X69817Y-32234D01*
X69537Y-32349D01*
X69323Y-32563D01*
X69206Y-32843D01*
X69206Y-33146D01*
X69322Y-33427D01*
X69536Y-33641D01*
X69816Y-33757D01*
X70119Y-33758D01*
X70399Y-33642D01*
X70613Y-33428D01*
X70730Y-33148D01*
X70730Y-32845D01*
X70730Y-41656D01*
X70614Y-41376D01*
X70400Y-41161D01*
X70120Y-41045D01*
X69817Y-41045D01*
X69537Y-41160D01*
X69323Y-41374D01*
X69206Y-41654D01*
X69206Y-41957D01*
X69322Y-42238D01*
X69536Y-42452D01*
X69816Y-42568D01*
X70119Y-42569D01*
X70399Y-42453D01*
X70613Y-42239D01*
X70730Y-41959D01*
X70730Y-41656D01*
X70730Y-44656D01*
X70651Y-44465D01*
X70651Y-43171D01*
X70547Y-42920D01*
X70355Y-42728D01*
X70104Y-42624D01*
X69833Y-42623D01*
X69582Y-42727D01*
X69389Y-42919D01*
X69285Y-43170D01*
X69285Y-43442D01*
X69389Y-43693D01*
X69581Y-43885D01*
X69832Y-43990D01*
X70103Y-43990D01*
X70354Y-43886D01*
X70547Y-43694D01*
X70651Y-43443D01*
X70651Y-43171D01*
X70651Y-44465D01*
X70614Y-44376D01*
X70400Y-44161D01*
X70120Y-44045D01*
X69817Y-44045D01*
X69537Y-44160D01*
X69323Y-44374D01*
X69206Y-44654D01*
X69206Y-44957D01*
X69322Y-45238D01*
X69536Y-45452D01*
X69816Y-45568D01*
X70119Y-45569D01*
X70399Y-45453D01*
X70613Y-45239D01*
X70730Y-44959D01*
X70730Y-44656D01*
X70730Y-60753D01*
X67075Y-60753D01*
X67075Y-30565D01*
X67010Y-30409D01*
X66891Y-30289D01*
X66734Y-30225D01*
X66565Y-30224D01*
X66409Y-30289D01*
X66289Y-30408D01*
X66225Y-30565D01*
X66224Y-30734D01*
X66289Y-30890D01*
X66408Y-31010D01*
X66565Y-31074D01*
X66734Y-31075D01*
X66890Y-31010D01*
X67010Y-30891D01*
X67074Y-30734D01*
X67075Y-30565D01*
X67075Y-60753D01*
X67025Y-60753D01*
X67025Y-46415D01*
X66960Y-46259D01*
X66841Y-46139D01*
X66684Y-46075D01*
X66515Y-46074D01*
X66359Y-46139D01*
X66239Y-46258D01*
X66175Y-46415D01*
X66174Y-46584D01*
X66239Y-46740D01*
X66358Y-46860D01*
X66515Y-46924D01*
X66684Y-46925D01*
X66840Y-46860D01*
X66960Y-46741D01*
X67024Y-46584D01*
X67025Y-46415D01*
X67025Y-60753D01*
X66175Y-60753D01*
X66175Y-46715D01*
X66125Y-46594D01*
X66125Y-31015D01*
X66060Y-30859D01*
X66044Y-30843D01*
X66044Y-25791D01*
X66039Y-25686D01*
X66039Y-24577D01*
X65948Y-24354D01*
X65778Y-24184D01*
X65556Y-24092D01*
X65315Y-24092D01*
X65093Y-24184D01*
X64923Y-24354D01*
X64831Y-24576D01*
X64830Y-24816D01*
X64922Y-25038D01*
X65092Y-25208D01*
X65100Y-25212D01*
X65080Y-25271D01*
X65435Y-25626D01*
X65789Y-25271D01*
X65770Y-25212D01*
X65777Y-25209D01*
X65947Y-25039D01*
X66039Y-24817D01*
X66039Y-24577D01*
X66039Y-25686D01*
X66034Y-25551D01*
X65961Y-25376D01*
X65860Y-25342D01*
X65506Y-25696D01*
X65860Y-26051D01*
X65961Y-26017D01*
X66044Y-25791D01*
X66044Y-30843D01*
X65941Y-30739D01*
X65789Y-30677D01*
X65789Y-26122D01*
X65435Y-25767D01*
X65364Y-25838D01*
X65364Y-25696D01*
X65010Y-25342D01*
X64909Y-25376D01*
X64826Y-25602D01*
X64836Y-25842D01*
X64909Y-26017D01*
X65010Y-26051D01*
X65364Y-25696D01*
X65364Y-25838D01*
X65080Y-26122D01*
X65114Y-26223D01*
X65340Y-26305D01*
X65580Y-26295D01*
X65755Y-26223D01*
X65789Y-26122D01*
X65789Y-30677D01*
X65784Y-30675D01*
X65615Y-30674D01*
X65459Y-30739D01*
X65425Y-30773D01*
X65391Y-30739D01*
X65234Y-30675D01*
X65065Y-30674D01*
X64909Y-30739D01*
X64789Y-30858D01*
X64725Y-31015D01*
X64724Y-31184D01*
X64789Y-31340D01*
X64908Y-31460D01*
X65065Y-31524D01*
X65234Y-31525D01*
X65390Y-31460D01*
X65424Y-31426D01*
X65458Y-31460D01*
X65615Y-31524D01*
X65784Y-31525D01*
X65940Y-31460D01*
X66060Y-31341D01*
X66124Y-31184D01*
X66125Y-31015D01*
X66125Y-46594D01*
X66110Y-46559D01*
X66044Y-46493D01*
X66044Y-41539D01*
X66039Y-41434D01*
X66039Y-40325D01*
X66004Y-40239D01*
X66004Y-34380D01*
X65912Y-34158D01*
X65754Y-33999D01*
X65912Y-33842D01*
X66004Y-33620D01*
X66004Y-33380D01*
X65912Y-33158D01*
X65742Y-32987D01*
X65520Y-32895D01*
X65280Y-32895D01*
X65058Y-32987D01*
X64887Y-33157D01*
X64795Y-33379D01*
X64795Y-33619D01*
X64887Y-33841D01*
X65045Y-34000D01*
X64887Y-34157D01*
X64795Y-34379D01*
X64795Y-34619D01*
X64887Y-34841D01*
X65057Y-35012D01*
X65279Y-35104D01*
X65519Y-35104D01*
X65741Y-35012D01*
X65912Y-34842D01*
X66004Y-34620D01*
X66004Y-34380D01*
X66004Y-40239D01*
X65948Y-40103D01*
X65778Y-39932D01*
X65556Y-39840D01*
X65315Y-39840D01*
X65093Y-39932D01*
X64923Y-40102D01*
X64831Y-40324D01*
X64830Y-40564D01*
X64922Y-40786D01*
X65092Y-40956D01*
X65100Y-40960D01*
X65080Y-41019D01*
X65435Y-41374D01*
X65789Y-41019D01*
X65770Y-40960D01*
X65777Y-40957D01*
X65947Y-40787D01*
X66039Y-40565D01*
X66039Y-40325D01*
X66039Y-41434D01*
X66034Y-41299D01*
X65961Y-41124D01*
X65860Y-41090D01*
X65506Y-41444D01*
X65860Y-41799D01*
X65961Y-41765D01*
X66044Y-41539D01*
X66044Y-46493D01*
X65991Y-46439D01*
X65834Y-46375D01*
X65789Y-46375D01*
X65789Y-41870D01*
X65435Y-41515D01*
X65364Y-41586D01*
X65364Y-41444D01*
X65010Y-41090D01*
X64909Y-41124D01*
X64826Y-41350D01*
X64836Y-41590D01*
X64909Y-41765D01*
X65010Y-41799D01*
X65364Y-41444D01*
X65364Y-41586D01*
X65080Y-41870D01*
X65114Y-41971D01*
X65340Y-42053D01*
X65580Y-42043D01*
X65755Y-41971D01*
X65789Y-41870D01*
X65789Y-46375D01*
X65665Y-46374D01*
X65509Y-46439D01*
X65450Y-46498D01*
X65391Y-46439D01*
X65234Y-46375D01*
X65065Y-46374D01*
X64909Y-46439D01*
X64789Y-46558D01*
X64725Y-46715D01*
X64724Y-46884D01*
X64789Y-47040D01*
X64908Y-47160D01*
X65065Y-47224D01*
X65234Y-47225D01*
X65390Y-47160D01*
X65449Y-47101D01*
X65508Y-47160D01*
X65665Y-47224D01*
X65834Y-47225D01*
X65990Y-47160D01*
X66110Y-47041D01*
X66174Y-46884D01*
X66175Y-46715D01*
X66175Y-60753D01*
X66039Y-60753D01*
X66039Y-49986D01*
X65948Y-49764D01*
X65790Y-49606D01*
X65947Y-49449D01*
X66039Y-49227D01*
X66039Y-48986D01*
X65948Y-48764D01*
X65778Y-48594D01*
X65556Y-48502D01*
X65315Y-48501D01*
X65093Y-48593D01*
X64923Y-48763D01*
X64831Y-48985D01*
X64830Y-49225D01*
X64922Y-49448D01*
X65080Y-49606D01*
X64923Y-49763D01*
X64831Y-49985D01*
X64830Y-50225D01*
X64922Y-50448D01*
X65092Y-50618D01*
X65314Y-50710D01*
X65555Y-50710D01*
X65777Y-50618D01*
X65947Y-50449D01*
X66039Y-50227D01*
X66039Y-49986D01*
X66039Y-60753D01*
X64071Y-60753D01*
X64071Y-46155D01*
X64071Y-44155D01*
X64071Y-30407D01*
X64071Y-28407D01*
X63979Y-28185D01*
X63809Y-28015D01*
X63587Y-27923D01*
X63347Y-27923D01*
X63125Y-28014D01*
X62954Y-28184D01*
X62862Y-28406D01*
X62862Y-28647D01*
X62954Y-28869D01*
X63124Y-29039D01*
X63346Y-29131D01*
X63586Y-29131D01*
X63808Y-29040D01*
X63978Y-28870D01*
X64071Y-28648D01*
X64071Y-28407D01*
X64071Y-30407D01*
X63979Y-30185D01*
X63809Y-30015D01*
X63587Y-29923D01*
X63347Y-29923D01*
X63125Y-30014D01*
X62954Y-30184D01*
X62862Y-30406D01*
X62862Y-30647D01*
X62954Y-30869D01*
X63124Y-31039D01*
X63346Y-31131D01*
X63586Y-31131D01*
X63808Y-31040D01*
X63978Y-30870D01*
X64071Y-30648D01*
X64071Y-30407D01*
X64071Y-44155D01*
X63979Y-43933D01*
X63809Y-43763D01*
X63587Y-43671D01*
X63347Y-43671D01*
X63125Y-43762D01*
X62954Y-43932D01*
X62862Y-44154D01*
X62862Y-44395D01*
X62954Y-44617D01*
X63124Y-44787D01*
X63346Y-44879D01*
X63586Y-44880D01*
X63808Y-44788D01*
X63978Y-44618D01*
X64071Y-44396D01*
X64071Y-44155D01*
X64071Y-46155D01*
X63979Y-45933D01*
X63809Y-45763D01*
X63587Y-45671D01*
X63347Y-45671D01*
X63125Y-45762D01*
X62954Y-45932D01*
X62862Y-46154D01*
X62862Y-46395D01*
X62954Y-46617D01*
X63124Y-46787D01*
X63346Y-46879D01*
X63586Y-46880D01*
X63808Y-46788D01*
X63978Y-46618D01*
X64071Y-46396D01*
X64071Y-46155D01*
X64071Y-60753D01*
X62406Y-60753D01*
X62406Y-16068D01*
X62398Y-15788D01*
X62307Y-15570D01*
X62196Y-15524D01*
X62125Y-15594D01*
X62125Y-15453D01*
X62079Y-15342D01*
X61818Y-15243D01*
X61538Y-15251D01*
X61320Y-15342D01*
X61274Y-15453D01*
X61700Y-15879D01*
X62125Y-15453D01*
X62125Y-15594D01*
X61770Y-15950D01*
X62196Y-16375D01*
X62307Y-16329D01*
X62406Y-16068D01*
X62406Y-60753D01*
X62325Y-60753D01*
X62325Y-46415D01*
X62275Y-46294D01*
X62275Y-30665D01*
X62210Y-30509D01*
X62125Y-30424D01*
X62125Y-16446D01*
X61700Y-16020D01*
X61629Y-16091D01*
X61629Y-15950D01*
X61203Y-15524D01*
X61092Y-15570D01*
X60993Y-15831D01*
X61001Y-16111D01*
X61092Y-16329D01*
X61203Y-16375D01*
X61629Y-15950D01*
X61629Y-16091D01*
X61274Y-16446D01*
X61320Y-16557D01*
X61581Y-16656D01*
X61861Y-16648D01*
X62079Y-16557D01*
X62125Y-16446D01*
X62125Y-30424D01*
X62091Y-30389D01*
X61934Y-30325D01*
X61765Y-30324D01*
X61609Y-30389D01*
X61489Y-30508D01*
X61425Y-30665D01*
X61424Y-30834D01*
X61489Y-30990D01*
X61608Y-31110D01*
X61765Y-31174D01*
X61934Y-31175D01*
X62090Y-31110D01*
X62210Y-30991D01*
X62274Y-30834D01*
X62275Y-30665D01*
X62275Y-46294D01*
X62260Y-46259D01*
X62141Y-46139D01*
X61984Y-46075D01*
X61815Y-46074D01*
X61659Y-46139D01*
X61539Y-46258D01*
X61475Y-46415D01*
X61474Y-46584D01*
X61539Y-46740D01*
X61658Y-46860D01*
X61815Y-46924D01*
X61984Y-46925D01*
X62140Y-46860D01*
X62260Y-46741D01*
X62324Y-46584D01*
X62325Y-46415D01*
X62325Y-60753D01*
X61425Y-60753D01*
X61425Y-46765D01*
X61425Y-31015D01*
X61360Y-30859D01*
X61319Y-30818D01*
X61319Y-25791D01*
X61315Y-25686D01*
X61315Y-24577D01*
X61223Y-24354D01*
X61053Y-24184D01*
X60831Y-24092D01*
X60591Y-24092D01*
X60402Y-24170D01*
X60402Y-15810D01*
X60296Y-15552D01*
X60098Y-15354D01*
X59840Y-15247D01*
X59560Y-15247D01*
X59302Y-15353D01*
X59104Y-15551D01*
X58997Y-15809D01*
X58997Y-16089D01*
X59103Y-16347D01*
X59301Y-16545D01*
X59559Y-16652D01*
X59839Y-16652D01*
X60097Y-16546D01*
X60295Y-16348D01*
X60402Y-16090D01*
X60402Y-15810D01*
X60402Y-24170D01*
X60369Y-24184D01*
X60198Y-24354D01*
X60106Y-24576D01*
X60106Y-24816D01*
X60198Y-25038D01*
X60368Y-25208D01*
X60376Y-25212D01*
X60356Y-25271D01*
X60711Y-25626D01*
X61065Y-25271D01*
X61045Y-25212D01*
X61052Y-25209D01*
X61223Y-25039D01*
X61315Y-24817D01*
X61315Y-24577D01*
X61315Y-25686D01*
X61309Y-25551D01*
X61237Y-25376D01*
X61136Y-25342D01*
X60781Y-25696D01*
X61136Y-26051D01*
X61237Y-26017D01*
X61319Y-25791D01*
X61319Y-30818D01*
X61241Y-30739D01*
X61084Y-30675D01*
X61065Y-30675D01*
X61065Y-26122D01*
X60711Y-25767D01*
X60640Y-25838D01*
X60640Y-25696D01*
X60285Y-25342D01*
X60184Y-25376D01*
X60102Y-25602D01*
X60112Y-25842D01*
X60184Y-26017D01*
X60285Y-26051D01*
X60640Y-25696D01*
X60640Y-25838D01*
X60356Y-26122D01*
X60390Y-26223D01*
X60616Y-26305D01*
X60856Y-26295D01*
X61031Y-26223D01*
X61065Y-26122D01*
X61065Y-30675D01*
X60915Y-30674D01*
X60759Y-30739D01*
X60725Y-30773D01*
X60691Y-30739D01*
X60534Y-30675D01*
X60365Y-30674D01*
X60209Y-30739D01*
X60089Y-30858D01*
X60025Y-31015D01*
X60024Y-31184D01*
X60089Y-31340D01*
X60208Y-31460D01*
X60365Y-31524D01*
X60534Y-31525D01*
X60690Y-31460D01*
X60724Y-31426D01*
X60758Y-31460D01*
X60915Y-31524D01*
X61084Y-31525D01*
X61240Y-31460D01*
X61360Y-31341D01*
X61424Y-31184D01*
X61425Y-31015D01*
X61425Y-46765D01*
X61360Y-46609D01*
X61319Y-46568D01*
X61319Y-41539D01*
X61315Y-41434D01*
X61315Y-40325D01*
X61304Y-40298D01*
X61304Y-34380D01*
X61212Y-34158D01*
X61054Y-33999D01*
X61212Y-33842D01*
X61304Y-33620D01*
X61304Y-33380D01*
X61212Y-33158D01*
X61042Y-32987D01*
X60820Y-32895D01*
X60580Y-32895D01*
X60358Y-32987D01*
X60187Y-33157D01*
X60095Y-33379D01*
X60095Y-33619D01*
X60187Y-33841D01*
X60345Y-34000D01*
X60187Y-34157D01*
X60095Y-34379D01*
X60095Y-34619D01*
X60187Y-34841D01*
X60357Y-35012D01*
X60579Y-35104D01*
X60819Y-35104D01*
X61041Y-35012D01*
X61212Y-34842D01*
X61304Y-34620D01*
X61304Y-34380D01*
X61304Y-40298D01*
X61223Y-40103D01*
X61053Y-39932D01*
X60831Y-39840D01*
X60591Y-39840D01*
X60369Y-39932D01*
X60198Y-40102D01*
X60106Y-40324D01*
X60106Y-40564D01*
X60198Y-40786D01*
X60368Y-40956D01*
X60376Y-40960D01*
X60356Y-41019D01*
X60711Y-41374D01*
X61065Y-41019D01*
X61045Y-40960D01*
X61052Y-40957D01*
X61223Y-40787D01*
X61315Y-40565D01*
X61315Y-40325D01*
X61315Y-41434D01*
X61309Y-41299D01*
X61237Y-41124D01*
X61136Y-41090D01*
X60781Y-41444D01*
X61136Y-41799D01*
X61237Y-41765D01*
X61319Y-41539D01*
X61319Y-46568D01*
X61241Y-46489D01*
X61084Y-46425D01*
X61065Y-46425D01*
X61065Y-41870D01*
X60711Y-41515D01*
X60640Y-41586D01*
X60640Y-41444D01*
X60285Y-41090D01*
X60184Y-41124D01*
X60102Y-41350D01*
X60112Y-41590D01*
X60184Y-41765D01*
X60285Y-41799D01*
X60640Y-41444D01*
X60640Y-41586D01*
X60356Y-41870D01*
X60390Y-41971D01*
X60616Y-42053D01*
X60856Y-42043D01*
X61031Y-41971D01*
X61065Y-41870D01*
X61065Y-46425D01*
X60915Y-46424D01*
X60759Y-46489D01*
X60725Y-46523D01*
X60691Y-46489D01*
X60534Y-46425D01*
X60365Y-46424D01*
X60209Y-46489D01*
X60089Y-46608D01*
X60025Y-46765D01*
X60024Y-46934D01*
X60089Y-47090D01*
X60208Y-47210D01*
X60365Y-47274D01*
X60534Y-47275D01*
X60690Y-47210D01*
X60724Y-47176D01*
X60758Y-47210D01*
X60915Y-47274D01*
X61084Y-47275D01*
X61240Y-47210D01*
X61360Y-47091D01*
X61424Y-46934D01*
X61425Y-46765D01*
X61425Y-60753D01*
X61315Y-60753D01*
X61315Y-49986D01*
X61223Y-49764D01*
X61065Y-49606D01*
X61223Y-49449D01*
X61315Y-49227D01*
X61315Y-48986D01*
X61223Y-48764D01*
X61053Y-48594D01*
X60831Y-48502D01*
X60591Y-48501D01*
X60369Y-48593D01*
X60198Y-48763D01*
X60106Y-48985D01*
X60106Y-49225D01*
X60198Y-49448D01*
X60356Y-49606D01*
X60198Y-49763D01*
X60106Y-49985D01*
X60106Y-50225D01*
X60198Y-50448D01*
X60368Y-50618D01*
X60590Y-50710D01*
X60830Y-50710D01*
X61052Y-50618D01*
X61223Y-50449D01*
X61315Y-50227D01*
X61315Y-49986D01*
X61315Y-60753D01*
X59346Y-60753D01*
X59346Y-46155D01*
X59346Y-44155D01*
X59346Y-30407D01*
X59346Y-28407D01*
X59255Y-28185D01*
X59085Y-28015D01*
X58863Y-27923D01*
X58622Y-27923D01*
X58400Y-28014D01*
X58230Y-28184D01*
X58138Y-28406D01*
X58138Y-28647D01*
X58229Y-28869D01*
X58399Y-29039D01*
X58621Y-29131D01*
X58862Y-29131D01*
X59084Y-29040D01*
X59254Y-28870D01*
X59346Y-28648D01*
X59346Y-28407D01*
X59346Y-30407D01*
X59255Y-30185D01*
X59085Y-30015D01*
X58863Y-29923D01*
X58622Y-29923D01*
X58400Y-30014D01*
X58230Y-30184D01*
X58138Y-30406D01*
X58138Y-30647D01*
X58229Y-30869D01*
X58399Y-31039D01*
X58621Y-31131D01*
X58862Y-31131D01*
X59084Y-31040D01*
X59254Y-30870D01*
X59346Y-30648D01*
X59346Y-30407D01*
X59346Y-44155D01*
X59255Y-43933D01*
X59085Y-43763D01*
X58863Y-43671D01*
X58622Y-43671D01*
X58400Y-43762D01*
X58230Y-43932D01*
X58138Y-44154D01*
X58138Y-44395D01*
X58229Y-44617D01*
X58399Y-44787D01*
X58621Y-44879D01*
X58862Y-44880D01*
X59084Y-44788D01*
X59254Y-44618D01*
X59346Y-44396D01*
X59346Y-44155D01*
X59346Y-46155D01*
X59255Y-45933D01*
X59085Y-45763D01*
X58863Y-45671D01*
X58622Y-45671D01*
X58400Y-45762D01*
X58230Y-45932D01*
X58138Y-46154D01*
X58138Y-46395D01*
X58229Y-46617D01*
X58399Y-46787D01*
X58621Y-46879D01*
X58862Y-46880D01*
X59084Y-46788D01*
X59254Y-46618D01*
X59346Y-46396D01*
X59346Y-46155D01*
X59346Y-60753D01*
X57136Y-60753D01*
X57136Y-16627D01*
X57197Y-16652D01*
X57296Y-16652D01*
X58202Y-16652D01*
X58294Y-16614D01*
X58364Y-16544D01*
X58402Y-16452D01*
X58402Y-16353D01*
X58402Y-15447D01*
X58364Y-15355D01*
X58294Y-15285D01*
X58202Y-15247D01*
X58103Y-15247D01*
X57197Y-15247D01*
X57136Y-15272D01*
X57136Y-14049D01*
X74006Y-14049D01*
X73697Y-14357D01*
X73449Y-14954D01*
X73449Y-15601D01*
X73695Y-16199D01*
X74152Y-16656D01*
X74750Y-16904D01*
X75396Y-16905D01*
X75994Y-16658D01*
X76305Y-16348D01*
X76305Y-58455D01*
X76305Y-58455D01*
G37*
G54D22*
X76305Y-58455D02*
X76033Y-58183D01*
X76033Y-41695D01*
X76033Y-29884D01*
X75947Y-29676D01*
X75788Y-29517D01*
X75581Y-29431D01*
X75356Y-29431D01*
X75148Y-29516D01*
X74989Y-29675D01*
X74903Y-29883D01*
X74903Y-30107D01*
X74989Y-30315D01*
X75148Y-30474D01*
X75355Y-30560D01*
X75580Y-30561D01*
X75788Y-30475D01*
X75947Y-30316D01*
X76033Y-30108D01*
X76033Y-29884D01*
X76033Y-41695D01*
X75947Y-41487D01*
X75788Y-41328D01*
X75581Y-41242D01*
X75356Y-41242D01*
X75148Y-41327D01*
X74989Y-41486D01*
X74903Y-41694D01*
X74903Y-41918D01*
X74989Y-42126D01*
X75148Y-42285D01*
X75355Y-42371D01*
X75580Y-42372D01*
X75788Y-42286D01*
X75947Y-42127D01*
X76033Y-41919D01*
X76033Y-41695D01*
X76033Y-58183D01*
X75996Y-58146D01*
X75399Y-57898D01*
X74752Y-57897D01*
X74155Y-58144D01*
X74033Y-58266D01*
X74033Y-44695D01*
X74033Y-32884D01*
X73947Y-32676D01*
X73788Y-32517D01*
X73581Y-32431D01*
X73356Y-32431D01*
X73148Y-32516D01*
X72989Y-32675D01*
X72903Y-32883D01*
X72903Y-33107D01*
X72989Y-33315D01*
X73148Y-33474D01*
X73355Y-33560D01*
X73580Y-33561D01*
X73788Y-33475D01*
X73947Y-33316D01*
X74033Y-33108D01*
X74033Y-32884D01*
X74033Y-44695D01*
X73947Y-44487D01*
X73788Y-44328D01*
X73581Y-44242D01*
X73356Y-44242D01*
X73148Y-44327D01*
X72989Y-44486D01*
X72903Y-44694D01*
X72903Y-44918D01*
X72989Y-45126D01*
X73148Y-45285D01*
X73355Y-45371D01*
X73580Y-45372D01*
X73788Y-45286D01*
X73947Y-45127D01*
X74033Y-44919D01*
X74033Y-44695D01*
X74033Y-58266D01*
X73697Y-58601D01*
X73449Y-59198D01*
X73449Y-59845D01*
X73695Y-60443D01*
X74006Y-60753D01*
X70730Y-60753D01*
X70730Y-44656D01*
X70730Y-41656D01*
X70730Y-32845D01*
X70730Y-29845D01*
X70614Y-29565D01*
X70400Y-29350D01*
X70120Y-29234D01*
X69817Y-29234D01*
X69537Y-29349D01*
X69323Y-29563D01*
X69206Y-29843D01*
X69206Y-30146D01*
X69322Y-30427D01*
X69536Y-30641D01*
X69816Y-30757D01*
X70119Y-30758D01*
X70399Y-30642D01*
X70613Y-30428D01*
X70730Y-30148D01*
X70730Y-29845D01*
X70730Y-32845D01*
X70651Y-32654D01*
X70651Y-31360D01*
X70547Y-31109D01*
X70355Y-30917D01*
X70104Y-30813D01*
X69833Y-30812D01*
X69582Y-30916D01*
X69389Y-31108D01*
X69285Y-31359D01*
X69285Y-31631D01*
X69389Y-31882D01*
X69581Y-32074D01*
X69832Y-32179D01*
X70103Y-32179D01*
X70354Y-32075D01*
X70547Y-31883D01*
X70651Y-31632D01*
X70651Y-31360D01*
X70651Y-32654D01*
X70614Y-32565D01*
X70400Y-32350D01*
X70120Y-32234D01*
X69817Y-32234D01*
X69537Y-32349D01*
X69323Y-32563D01*
X69206Y-32843D01*
X69206Y-33146D01*
X69322Y-33427D01*
X69536Y-33641D01*
X69816Y-33757D01*
X70119Y-33758D01*
X70399Y-33642D01*
X70613Y-33428D01*
X70730Y-33148D01*
X70730Y-32845D01*
X70730Y-41656D01*
X70614Y-41376D01*
X70400Y-41161D01*
X70120Y-41045D01*
X69817Y-41045D01*
X69537Y-41160D01*
X69323Y-41374D01*
X69206Y-41654D01*
X69206Y-41957D01*
X69322Y-42238D01*
X69536Y-42452D01*
X69816Y-42568D01*
X70119Y-42569D01*
X70399Y-42453D01*
X70613Y-42239D01*
X70730Y-41959D01*
X70730Y-41656D01*
X70730Y-44656D01*
X70651Y-44465D01*
X70651Y-43171D01*
X70547Y-42920D01*
X70355Y-42728D01*
X70104Y-42624D01*
X69833Y-42623D01*
X69582Y-42727D01*
X69389Y-42919D01*
X69285Y-43170D01*
X69285Y-43442D01*
X69389Y-43693D01*
X69581Y-43885D01*
X69832Y-43990D01*
X70103Y-43990D01*
X70354Y-43886D01*
X70547Y-43694D01*
X70651Y-43443D01*
X70651Y-43171D01*
X70651Y-44465D01*
X70614Y-44376D01*
X70400Y-44161D01*
X70120Y-44045D01*
X69817Y-44045D01*
X69537Y-44160D01*
X69323Y-44374D01*
X69206Y-44654D01*
X69206Y-44957D01*
X69322Y-45238D01*
X69536Y-45452D01*
X69816Y-45568D01*
X70119Y-45569D01*
X70399Y-45453D01*
X70613Y-45239D01*
X70730Y-44959D01*
X70730Y-44656D01*
X70730Y-60753D01*
X67075Y-60753D01*
X67075Y-30565D01*
X67010Y-30409D01*
X66891Y-30289D01*
X66734Y-30225D01*
X66565Y-30224D01*
X66409Y-30289D01*
X66289Y-30408D01*
X66225Y-30565D01*
X66224Y-30734D01*
X66289Y-30890D01*
X66408Y-31010D01*
X66565Y-31074D01*
X66734Y-31075D01*
X66890Y-31010D01*
X67010Y-30891D01*
X67074Y-30734D01*
X67075Y-30565D01*
X67075Y-60753D01*
X67025Y-60753D01*
X67025Y-46415D01*
X66960Y-46259D01*
X66841Y-46139D01*
X66684Y-46075D01*
X66515Y-46074D01*
X66359Y-46139D01*
X66239Y-46258D01*
X66175Y-46415D01*
X66174Y-46584D01*
X66239Y-46740D01*
X66358Y-46860D01*
X66515Y-46924D01*
X66684Y-46925D01*
X66840Y-46860D01*
X66960Y-46741D01*
X67024Y-46584D01*
X67025Y-46415D01*
X67025Y-60753D01*
X66175Y-60753D01*
X66175Y-46715D01*
X66125Y-46594D01*
X66125Y-31015D01*
X66060Y-30859D01*
X66044Y-30843D01*
X66044Y-25791D01*
X66039Y-25686D01*
X66039Y-24577D01*
X65948Y-24354D01*
X65778Y-24184D01*
X65556Y-24092D01*
X65315Y-24092D01*
X65093Y-24184D01*
X64923Y-24354D01*
X64831Y-24576D01*
X64830Y-24816D01*
X64922Y-25038D01*
X65092Y-25208D01*
X65100Y-25212D01*
X65080Y-25271D01*
X65435Y-25626D01*
X65789Y-25271D01*
X65770Y-25212D01*
X65777Y-25209D01*
X65947Y-25039D01*
X66039Y-24817D01*
X66039Y-24577D01*
X66039Y-25686D01*
X66034Y-25551D01*
X65961Y-25376D01*
X65860Y-25342D01*
X65506Y-25696D01*
X65860Y-26051D01*
X65961Y-26017D01*
X66044Y-25791D01*
X66044Y-30843D01*
X65941Y-30739D01*
X65789Y-30677D01*
X65789Y-26122D01*
X65435Y-25767D01*
X65364Y-25838D01*
X65364Y-25696D01*
X65010Y-25342D01*
X64909Y-25376D01*
X64826Y-25602D01*
X64836Y-25842D01*
X64909Y-26017D01*
X65010Y-26051D01*
X65364Y-25696D01*
X65364Y-25838D01*
X65080Y-26122D01*
X65114Y-26223D01*
X65340Y-26305D01*
X65580Y-26295D01*
X65755Y-26223D01*
X65789Y-26122D01*
X65789Y-30677D01*
X65784Y-30675D01*
X65615Y-30674D01*
X65459Y-30739D01*
X65425Y-30773D01*
X65391Y-30739D01*
X65234Y-30675D01*
X65065Y-30674D01*
X64909Y-30739D01*
X64789Y-30858D01*
X64725Y-31015D01*
X64724Y-31184D01*
X64789Y-31340D01*
X64908Y-31460D01*
X65065Y-31524D01*
X65234Y-31525D01*
X65390Y-31460D01*
X65424Y-31426D01*
X65458Y-31460D01*
X65615Y-31524D01*
X65784Y-31525D01*
X65940Y-31460D01*
X66060Y-31341D01*
X66124Y-31184D01*
X66125Y-31015D01*
X66125Y-46594D01*
X66110Y-46559D01*
X66044Y-46493D01*
X66044Y-41539D01*
X66039Y-41434D01*
X66039Y-40325D01*
X66004Y-40239D01*
X66004Y-34380D01*
X65912Y-34158D01*
X65754Y-33999D01*
X65912Y-33842D01*
X66004Y-33620D01*
X66004Y-33380D01*
X65912Y-33158D01*
X65742Y-32987D01*
X65520Y-32895D01*
X65280Y-32895D01*
X65058Y-32987D01*
X64887Y-33157D01*
X64795Y-33379D01*
X64795Y-33619D01*
X64887Y-33841D01*
X65045Y-34000D01*
X64887Y-34157D01*
X64795Y-34379D01*
X64795Y-34619D01*
X64887Y-34841D01*
X65057Y-35012D01*
X65279Y-35104D01*
X65519Y-35104D01*
X65741Y-35012D01*
X65912Y-34842D01*
X66004Y-34620D01*
X66004Y-34380D01*
X66004Y-40239D01*
X65948Y-40103D01*
X65778Y-39932D01*
X65556Y-39840D01*
X65315Y-39840D01*
X65093Y-39932D01*
X64923Y-40102D01*
X64831Y-40324D01*
X64830Y-40564D01*
X64922Y-40786D01*
X65092Y-40956D01*
X65100Y-40960D01*
X65080Y-41019D01*
X65435Y-41374D01*
X65789Y-41019D01*
X65770Y-40960D01*
X65777Y-40957D01*
X65947Y-40787D01*
X66039Y-40565D01*
X66039Y-40325D01*
X66039Y-41434D01*
X66034Y-41299D01*
X65961Y-41124D01*
X65860Y-41090D01*
X65506Y-41444D01*
X65860Y-41799D01*
X65961Y-41765D01*
X66044Y-41539D01*
X66044Y-46493D01*
X65991Y-46439D01*
X65834Y-46375D01*
X65789Y-46375D01*
X65789Y-41870D01*
X65435Y-41515D01*
X65364Y-41586D01*
X65364Y-41444D01*
X65010Y-41090D01*
X64909Y-41124D01*
X64826Y-41350D01*
X64836Y-41590D01*
X64909Y-41765D01*
X65010Y-41799D01*
X65364Y-41444D01*
X65364Y-41586D01*
X65080Y-41870D01*
X65114Y-41971D01*
X65340Y-42053D01*
X65580Y-42043D01*
X65755Y-41971D01*
X65789Y-41870D01*
X65789Y-46375D01*
X65665Y-46374D01*
X65509Y-46439D01*
X65450Y-46498D01*
X65391Y-46439D01*
X65234Y-46375D01*
X65065Y-46374D01*
X64909Y-46439D01*
X64789Y-46558D01*
X64725Y-46715D01*
X64724Y-46884D01*
X64789Y-47040D01*
X64908Y-47160D01*
X65065Y-47224D01*
X65234Y-47225D01*
X65390Y-47160D01*
X65449Y-47101D01*
X65508Y-47160D01*
X65665Y-47224D01*
X65834Y-47225D01*
X65990Y-47160D01*
X66110Y-47041D01*
X66174Y-46884D01*
X66175Y-46715D01*
X66175Y-60753D01*
X66039Y-60753D01*
X66039Y-49986D01*
X65948Y-49764D01*
X65790Y-49606D01*
X65947Y-49449D01*
X66039Y-49227D01*
X66039Y-48986D01*
X65948Y-48764D01*
X65778Y-48594D01*
X65556Y-48502D01*
X65315Y-48501D01*
X65093Y-48593D01*
X64923Y-48763D01*
X64831Y-48985D01*
X64830Y-49225D01*
X64922Y-49448D01*
X65080Y-49606D01*
X64923Y-49763D01*
X64831Y-49985D01*
X64830Y-50225D01*
X64922Y-50448D01*
X65092Y-50618D01*
X65314Y-50710D01*
X65555Y-50710D01*
X65777Y-50618D01*
X65947Y-50449D01*
X66039Y-50227D01*
X66039Y-49986D01*
X66039Y-60753D01*
X64071Y-60753D01*
X64071Y-46155D01*
X64071Y-44155D01*
X64071Y-30407D01*
X64071Y-28407D01*
X63979Y-28185D01*
X63809Y-28015D01*
X63587Y-27923D01*
X63347Y-27923D01*
X63125Y-28014D01*
X62954Y-28184D01*
X62862Y-28406D01*
X62862Y-28647D01*
X62954Y-28869D01*
X63124Y-29039D01*
X63346Y-29131D01*
X63586Y-29131D01*
X63808Y-29040D01*
X63978Y-28870D01*
X64071Y-28648D01*
X64071Y-28407D01*
X64071Y-30407D01*
X63979Y-30185D01*
X63809Y-30015D01*
X63587Y-29923D01*
X63347Y-29923D01*
X63125Y-30014D01*
X62954Y-30184D01*
X62862Y-30406D01*
X62862Y-30647D01*
X62954Y-30869D01*
X63124Y-31039D01*
X63346Y-31131D01*
X63586Y-31131D01*
X63808Y-31040D01*
X63978Y-30870D01*
X64071Y-30648D01*
X64071Y-30407D01*
X64071Y-44155D01*
X63979Y-43933D01*
X63809Y-43763D01*
X63587Y-43671D01*
X63347Y-43671D01*
X63125Y-43762D01*
X62954Y-43932D01*
X62862Y-44154D01*
X62862Y-44395D01*
X62954Y-44617D01*
X63124Y-44787D01*
X63346Y-44879D01*
X63586Y-44880D01*
X63808Y-44788D01*
X63978Y-44618D01*
X64071Y-44396D01*
X64071Y-44155D01*
X64071Y-46155D01*
X63979Y-45933D01*
X63809Y-45763D01*
X63587Y-45671D01*
X63347Y-45671D01*
X63125Y-45762D01*
X62954Y-45932D01*
X62862Y-46154D01*
X62862Y-46395D01*
X62954Y-46617D01*
X63124Y-46787D01*
X63346Y-46879D01*
X63586Y-46880D01*
X63808Y-46788D01*
X63978Y-46618D01*
X64071Y-46396D01*
X64071Y-46155D01*
X64071Y-60753D01*
X62406Y-60753D01*
X62406Y-16068D01*
X62398Y-15788D01*
X62307Y-15570D01*
X62196Y-15524D01*
X62125Y-15594D01*
X62125Y-15453D01*
X62079Y-15342D01*
X61818Y-15243D01*
X61538Y-15251D01*
X61320Y-15342D01*
X61274Y-15453D01*
X61700Y-15879D01*
X62125Y-15453D01*
X62125Y-15594D01*
X61770Y-15950D01*
X62196Y-16375D01*
X62307Y-16329D01*
X62406Y-16068D01*
X62406Y-60753D01*
X62325Y-60753D01*
X62325Y-46415D01*
X62275Y-46294D01*
X62275Y-30665D01*
X62210Y-30509D01*
X62125Y-30424D01*
X62125Y-16446D01*
X61700Y-16020D01*
X61629Y-16091D01*
X61629Y-15950D01*
X61203Y-15524D01*
X61092Y-15570D01*
X60993Y-15831D01*
X61001Y-16111D01*
X61092Y-16329D01*
X61203Y-16375D01*
X61629Y-15950D01*
X61629Y-16091D01*
X61274Y-16446D01*
X61320Y-16557D01*
X61581Y-16656D01*
X61861Y-16648D01*
X62079Y-16557D01*
X62125Y-16446D01*
X62125Y-30424D01*
X62091Y-30389D01*
X61934Y-30325D01*
X61765Y-30324D01*
X61609Y-30389D01*
X61489Y-30508D01*
X61425Y-30665D01*
X61424Y-30834D01*
X61489Y-30990D01*
X61608Y-31110D01*
X61765Y-31174D01*
X61934Y-31175D01*
X62090Y-31110D01*
X62210Y-30991D01*
X62274Y-30834D01*
X62275Y-30665D01*
X62275Y-46294D01*
X62260Y-46259D01*
X62141Y-46139D01*
X61984Y-46075D01*
X61815Y-46074D01*
X61659Y-46139D01*
X61539Y-46258D01*
X61475Y-46415D01*
X61474Y-46584D01*
X61539Y-46740D01*
X61658Y-46860D01*
X61815Y-46924D01*
X61984Y-46925D01*
X62140Y-46860D01*
X62260Y-46741D01*
X62324Y-46584D01*
X62325Y-46415D01*
X62325Y-60753D01*
X61425Y-60753D01*
X61425Y-46765D01*
X61425Y-31015D01*
X61360Y-30859D01*
X61319Y-30818D01*
X61319Y-25791D01*
X61315Y-25686D01*
X61315Y-24577D01*
X61223Y-24354D01*
X61053Y-24184D01*
X60831Y-24092D01*
X60591Y-24092D01*
X60402Y-24170D01*
X60402Y-15810D01*
X60296Y-15552D01*
X60098Y-15354D01*
X59840Y-15247D01*
X59560Y-15247D01*
X59302Y-15353D01*
X59104Y-15551D01*
X58997Y-15809D01*
X58997Y-16089D01*
X59103Y-16347D01*
X59301Y-16545D01*
X59559Y-16652D01*
X59839Y-16652D01*
X60097Y-16546D01*
X60295Y-16348D01*
X60402Y-16090D01*
X60402Y-15810D01*
X60402Y-24170D01*
X60369Y-24184D01*
X60198Y-24354D01*
X60106Y-24576D01*
X60106Y-24816D01*
X60198Y-25038D01*
X60368Y-25208D01*
X60376Y-25212D01*
X60356Y-25271D01*
X60711Y-25626D01*
X61065Y-25271D01*
X61045Y-25212D01*
X61052Y-25209D01*
X61223Y-25039D01*
X61315Y-24817D01*
X61315Y-24577D01*
X61315Y-25686D01*
X61309Y-25551D01*
X61237Y-25376D01*
X61136Y-25342D01*
X60781Y-25696D01*
X61136Y-26051D01*
X61237Y-26017D01*
X61319Y-25791D01*
X61319Y-30818D01*
X61241Y-30739D01*
X61084Y-30675D01*
X61065Y-30675D01*
X61065Y-26122D01*
X60711Y-25767D01*
X60640Y-25838D01*
X60640Y-25696D01*
X60285Y-25342D01*
X60184Y-25376D01*
X60102Y-25602D01*
X60112Y-25842D01*
X60184Y-26017D01*
X60285Y-26051D01*
X60640Y-25696D01*
X60640Y-25838D01*
X60356Y-26122D01*
X60390Y-26223D01*
X60616Y-26305D01*
X60856Y-26295D01*
X61031Y-26223D01*
X61065Y-26122D01*
X61065Y-30675D01*
X60915Y-30674D01*
X60759Y-30739D01*
X60725Y-30773D01*
X60691Y-30739D01*
X60534Y-30675D01*
X60365Y-30674D01*
X60209Y-30739D01*
X60089Y-30858D01*
X60025Y-31015D01*
X60024Y-31184D01*
X60089Y-31340D01*
X60208Y-31460D01*
X60365Y-31524D01*
X60534Y-31525D01*
X60690Y-31460D01*
X60724Y-31426D01*
X60758Y-31460D01*
X60915Y-31524D01*
X61084Y-31525D01*
X61240Y-31460D01*
X61360Y-31341D01*
X61424Y-31184D01*
X61425Y-31015D01*
X61425Y-46765D01*
X61360Y-46609D01*
X61319Y-46568D01*
X61319Y-41539D01*
X61315Y-41434D01*
X61315Y-40325D01*
X61304Y-40298D01*
X61304Y-34380D01*
X61212Y-34158D01*
X61054Y-33999D01*
X61212Y-33842D01*
X61304Y-33620D01*
X61304Y-33380D01*
X61212Y-33158D01*
X61042Y-32987D01*
X60820Y-32895D01*
X60580Y-32895D01*
X60358Y-32987D01*
X60187Y-33157D01*
X60095Y-33379D01*
X60095Y-33619D01*
X60187Y-33841D01*
X60345Y-34000D01*
X60187Y-34157D01*
X60095Y-34379D01*
X60095Y-34619D01*
X60187Y-34841D01*
X60357Y-35012D01*
X60579Y-35104D01*
X60819Y-35104D01*
X61041Y-35012D01*
X61212Y-34842D01*
X61304Y-34620D01*
X61304Y-34380D01*
X61304Y-40298D01*
X61223Y-40103D01*
X61053Y-39932D01*
X60831Y-39840D01*
X60591Y-39840D01*
X60369Y-39932D01*
X60198Y-40102D01*
X60106Y-40324D01*
X60106Y-40564D01*
X60198Y-40786D01*
X60368Y-40956D01*
X60376Y-40960D01*
X60356Y-41019D01*
X60711Y-41374D01*
X61065Y-41019D01*
X61045Y-40960D01*
X61052Y-40957D01*
X61223Y-40787D01*
X61315Y-40565D01*
X61315Y-40325D01*
X61315Y-41434D01*
X61309Y-41299D01*
X61237Y-41124D01*
X61136Y-41090D01*
X60781Y-41444D01*
X61136Y-41799D01*
X61237Y-41765D01*
X61319Y-41539D01*
X61319Y-46568D01*
X61241Y-46489D01*
X61084Y-46425D01*
X61065Y-46425D01*
X61065Y-41870D01*
X60711Y-41515D01*
X60640Y-41586D01*
X60640Y-41444D01*
X60285Y-41090D01*
X60184Y-41124D01*
X60102Y-41350D01*
X60112Y-41590D01*
X60184Y-41765D01*
X60285Y-41799D01*
X60640Y-41444D01*
X60640Y-41586D01*
X60356Y-41870D01*
X60390Y-41971D01*
X60616Y-42053D01*
X60856Y-42043D01*
X61031Y-41971D01*
X61065Y-41870D01*
X61065Y-46425D01*
X60915Y-46424D01*
X60759Y-46489D01*
X60725Y-46523D01*
X60691Y-46489D01*
X60534Y-46425D01*
X60365Y-46424D01*
X60209Y-46489D01*
X60089Y-46608D01*
X60025Y-46765D01*
X60024Y-46934D01*
X60089Y-47090D01*
X60208Y-47210D01*
X60365Y-47274D01*
X60534Y-47275D01*
X60690Y-47210D01*
X60724Y-47176D01*
X60758Y-47210D01*
X60915Y-47274D01*
X61084Y-47275D01*
X61240Y-47210D01*
X61360Y-47091D01*
X61424Y-46934D01*
X61425Y-46765D01*
X61425Y-60753D01*
X61315Y-60753D01*
X61315Y-49986D01*
X61223Y-49764D01*
X61065Y-49606D01*
X61223Y-49449D01*
X61315Y-49227D01*
X61315Y-48986D01*
X61223Y-48764D01*
X61053Y-48594D01*
X60831Y-48502D01*
X60591Y-48501D01*
X60369Y-48593D01*
X60198Y-48763D01*
X60106Y-48985D01*
X60106Y-49225D01*
X60198Y-49448D01*
X60356Y-49606D01*
X60198Y-49763D01*
X60106Y-49985D01*
X60106Y-50225D01*
X60198Y-50448D01*
X60368Y-50618D01*
X60590Y-50710D01*
X60830Y-50710D01*
X61052Y-50618D01*
X61223Y-50449D01*
X61315Y-50227D01*
X61315Y-49986D01*
X61315Y-60753D01*
X59346Y-60753D01*
X59346Y-46155D01*
X59346Y-44155D01*
X59346Y-30407D01*
X59346Y-28407D01*
X59255Y-28185D01*
X59085Y-28015D01*
X58863Y-27923D01*
X58622Y-27923D01*
X58400Y-28014D01*
X58230Y-28184D01*
X58138Y-28406D01*
X58138Y-28647D01*
X58229Y-28869D01*
X58399Y-29039D01*
X58621Y-29131D01*
X58862Y-29131D01*
X59084Y-29040D01*
X59254Y-28870D01*
X59346Y-28648D01*
X59346Y-28407D01*
X59346Y-30407D01*
X59255Y-30185D01*
X59085Y-30015D01*
X58863Y-29923D01*
X58622Y-29923D01*
X58400Y-30014D01*
X58230Y-30184D01*
X58138Y-30406D01*
X58138Y-30647D01*
X58229Y-30869D01*
X58399Y-31039D01*
X58621Y-31131D01*
X58862Y-31131D01*
X59084Y-31040D01*
X59254Y-30870D01*
X59346Y-30648D01*
X59346Y-30407D01*
X59346Y-44155D01*
X59255Y-43933D01*
X59085Y-43763D01*
X58863Y-43671D01*
X58622Y-43671D01*
X58400Y-43762D01*
X58230Y-43932D01*
X58138Y-44154D01*
X58138Y-44395D01*
X58229Y-44617D01*
X58399Y-44787D01*
X58621Y-44879D01*
X58862Y-44880D01*
X59084Y-44788D01*
X59254Y-44618D01*
X59346Y-44396D01*
X59346Y-44155D01*
X59346Y-46155D01*
X59255Y-45933D01*
X59085Y-45763D01*
X58863Y-45671D01*
X58622Y-45671D01*
X58400Y-45762D01*
X58230Y-45932D01*
X58138Y-46154D01*
X58138Y-46395D01*
X58229Y-46617D01*
X58399Y-46787D01*
X58621Y-46879D01*
X58862Y-46880D01*
X59084Y-46788D01*
X59254Y-46618D01*
X59346Y-46396D01*
X59346Y-46155D01*
X59346Y-60753D01*
X57136Y-60753D01*
X57136Y-16627D01*
X57197Y-16652D01*
X57296Y-16652D01*
X58202Y-16652D01*
X58294Y-16614D01*
X58364Y-16544D01*
X58402Y-16452D01*
X58402Y-16353D01*
X58402Y-15447D01*
X58364Y-15355D01*
X58294Y-15285D01*
X58202Y-15247D01*
X58103Y-15247D01*
X57197Y-15247D01*
X57136Y-15272D01*
X57136Y-14049D01*
X74006Y-14049D01*
X73697Y-14357D01*
X73449Y-14954D01*
X73449Y-15601D01*
X73695Y-16199D01*
X74152Y-16656D01*
X74750Y-16904D01*
X75396Y-16905D01*
X75994Y-16658D01*
X76305Y-16348D01*
X76305Y-58455D01*
G54D10*
G36*
X56249Y-60753D02*
X54548Y-60753D01*
X54548Y-47622D01*
X54456Y-47400D01*
X54298Y-47242D01*
X54456Y-47085D01*
X54548Y-46863D01*
X54548Y-46622D01*
X54548Y-43685D01*
X54456Y-43463D01*
X54298Y-43305D01*
X54456Y-43148D01*
X54548Y-42926D01*
X54548Y-42685D01*
X54548Y-31874D01*
X54456Y-31652D01*
X54298Y-31494D01*
X54456Y-31337D01*
X54548Y-31115D01*
X54548Y-30874D01*
X54548Y-27937D01*
X54456Y-27715D01*
X54298Y-27557D01*
X54456Y-27400D01*
X54548Y-27178D01*
X54548Y-26937D01*
X54456Y-26715D01*
X54402Y-26661D01*
X54402Y-16452D01*
X54402Y-16353D01*
X54402Y-15447D01*
X54364Y-15355D01*
X54294Y-15285D01*
X54202Y-15247D01*
X54103Y-15247D01*
X53197Y-15247D01*
X53105Y-15285D01*
X53035Y-15355D01*
X52997Y-15447D01*
X52997Y-15546D01*
X52997Y-16452D01*
X53035Y-16544D01*
X53105Y-16614D01*
X53197Y-16652D01*
X53296Y-16652D01*
X54202Y-16652D01*
X54294Y-16614D01*
X54364Y-16544D01*
X54402Y-16452D01*
X54402Y-26661D01*
X54286Y-26545D01*
X54064Y-26453D01*
X53824Y-26453D01*
X53602Y-26544D01*
X53432Y-26714D01*
X53339Y-26936D01*
X53339Y-27177D01*
X53431Y-27399D01*
X53589Y-27557D01*
X53432Y-27714D01*
X53339Y-27936D01*
X53339Y-28177D01*
X53431Y-28399D01*
X53601Y-28569D01*
X53823Y-28661D01*
X54063Y-28661D01*
X54285Y-28570D01*
X54456Y-28400D01*
X54548Y-28178D01*
X54548Y-27937D01*
X54548Y-30874D01*
X54456Y-30652D01*
X54286Y-30482D01*
X54064Y-30390D01*
X53824Y-30390D01*
X53602Y-30481D01*
X53432Y-30651D01*
X53339Y-30873D01*
X53339Y-31114D01*
X53431Y-31336D01*
X53589Y-31494D01*
X53432Y-31651D01*
X53339Y-31873D01*
X53339Y-32114D01*
X53431Y-32336D01*
X53601Y-32506D01*
X53823Y-32598D01*
X54063Y-32598D01*
X54285Y-32507D01*
X54456Y-32337D01*
X54548Y-32115D01*
X54548Y-31874D01*
X54548Y-42685D01*
X54456Y-42463D01*
X54286Y-42293D01*
X54064Y-42201D01*
X53824Y-42201D01*
X53602Y-42292D01*
X53432Y-42462D01*
X53339Y-42684D01*
X53339Y-42925D01*
X53431Y-43147D01*
X53589Y-43305D01*
X53432Y-43462D01*
X53339Y-43684D01*
X53339Y-43925D01*
X53431Y-44147D01*
X53601Y-44317D01*
X53823Y-44409D01*
X54063Y-44409D01*
X54285Y-44318D01*
X54456Y-44148D01*
X54548Y-43926D01*
X54548Y-43685D01*
X54548Y-46622D01*
X54456Y-46400D01*
X54286Y-46230D01*
X54064Y-46138D01*
X53824Y-46138D01*
X53602Y-46229D01*
X53432Y-46399D01*
X53339Y-46621D01*
X53339Y-46862D01*
X53431Y-47084D01*
X53589Y-47242D01*
X53432Y-47399D01*
X53339Y-47621D01*
X53339Y-47862D01*
X53431Y-48084D01*
X53601Y-48254D01*
X53823Y-48346D01*
X54063Y-48346D01*
X54285Y-48255D01*
X54456Y-48085D01*
X54548Y-47863D01*
X54548Y-47622D01*
X54548Y-60753D01*
X53025Y-60753D01*
X53025Y-45815D01*
X52960Y-45659D01*
X52951Y-45650D01*
X52960Y-45641D01*
X53024Y-45484D01*
X53025Y-45315D01*
X53025Y-29765D01*
X52960Y-29609D01*
X52876Y-29524D01*
X52960Y-29441D01*
X53024Y-29284D01*
X53025Y-29115D01*
X52960Y-28959D01*
X52841Y-28839D01*
X52684Y-28775D01*
X52525Y-28774D01*
X52525Y-26465D01*
X52460Y-26309D01*
X52341Y-26189D01*
X52184Y-26125D01*
X52015Y-26124D01*
X51898Y-26173D01*
X51898Y-24681D01*
X51891Y-24664D01*
X51891Y-20352D01*
X51800Y-20130D01*
X51630Y-19960D01*
X51408Y-19868D01*
X51167Y-19868D01*
X50945Y-19959D01*
X50775Y-20129D01*
X50771Y-20137D01*
X50712Y-20117D01*
X50641Y-20188D01*
X50641Y-20047D01*
X50607Y-19946D01*
X50382Y-19863D01*
X50141Y-19873D01*
X49966Y-19946D01*
X49932Y-20047D01*
X50287Y-20401D01*
X50641Y-20047D01*
X50641Y-20188D01*
X50358Y-20472D01*
X50712Y-20826D01*
X50771Y-20807D01*
X50774Y-20814D01*
X50944Y-20984D01*
X51166Y-21076D01*
X51407Y-21076D01*
X51629Y-20985D01*
X51799Y-20815D01*
X51891Y-20593D01*
X51891Y-20352D01*
X51891Y-24664D01*
X51807Y-24459D01*
X51637Y-24289D01*
X51415Y-24197D01*
X51174Y-24197D01*
X50952Y-24288D01*
X50794Y-24446D01*
X50641Y-24294D01*
X50641Y-20897D01*
X50287Y-20543D01*
X50216Y-20613D01*
X50216Y-20472D01*
X49862Y-20117D01*
X49761Y-20151D01*
X49678Y-20377D01*
X49688Y-20617D01*
X49761Y-20792D01*
X49862Y-20826D01*
X50216Y-20472D01*
X50216Y-20613D01*
X49932Y-20897D01*
X49966Y-20998D01*
X50192Y-21081D01*
X50432Y-21071D01*
X50607Y-20998D01*
X50641Y-20897D01*
X50641Y-24294D01*
X50637Y-24289D01*
X50415Y-24197D01*
X50174Y-24197D01*
X49952Y-24288D01*
X49782Y-24458D01*
X49690Y-24680D01*
X49690Y-24921D01*
X49781Y-25143D01*
X49951Y-25313D01*
X50173Y-25405D01*
X50414Y-25406D01*
X50636Y-25314D01*
X50794Y-25156D01*
X50951Y-25313D01*
X51173Y-25405D01*
X51414Y-25406D01*
X51636Y-25314D01*
X51806Y-25144D01*
X51898Y-24922D01*
X51898Y-24681D01*
X51898Y-26173D01*
X51859Y-26189D01*
X51739Y-26308D01*
X51675Y-26465D01*
X51674Y-26634D01*
X51739Y-26790D01*
X51858Y-26910D01*
X52015Y-26974D01*
X52184Y-26975D01*
X52340Y-26910D01*
X52460Y-26791D01*
X52524Y-26634D01*
X52525Y-26465D01*
X52525Y-28774D01*
X52515Y-28774D01*
X52359Y-28839D01*
X52239Y-28958D01*
X52212Y-29024D01*
X52025Y-28836D01*
X52025Y-28765D01*
X51960Y-28609D01*
X51841Y-28489D01*
X51684Y-28425D01*
X51575Y-28424D01*
X51575Y-27315D01*
X51510Y-27159D01*
X51391Y-27039D01*
X51234Y-26975D01*
X51065Y-26974D01*
X50909Y-27039D01*
X50789Y-27158D01*
X50725Y-27315D01*
X50724Y-27484D01*
X50789Y-27640D01*
X50908Y-27760D01*
X51065Y-27824D01*
X51234Y-27825D01*
X51390Y-27760D01*
X51510Y-27641D01*
X51574Y-27484D01*
X51575Y-27315D01*
X51575Y-28424D01*
X51515Y-28424D01*
X51359Y-28489D01*
X51239Y-28608D01*
X51175Y-28765D01*
X51174Y-28934D01*
X51239Y-29090D01*
X51358Y-29210D01*
X51515Y-29274D01*
X51586Y-29274D01*
X52174Y-29863D01*
X52174Y-29934D01*
X52193Y-29978D01*
X52184Y-29975D01*
X52015Y-29974D01*
X51973Y-29992D01*
X51960Y-29959D01*
X51841Y-29839D01*
X51684Y-29775D01*
X51515Y-29774D01*
X51359Y-29839D01*
X51239Y-29958D01*
X51175Y-30115D01*
X51174Y-30284D01*
X51233Y-30424D01*
X51215Y-30424D01*
X51059Y-30489D01*
X50939Y-30608D01*
X50875Y-30765D01*
X50874Y-30934D01*
X50939Y-31090D01*
X51058Y-31210D01*
X51215Y-31274D01*
X51384Y-31275D01*
X51540Y-31210D01*
X51660Y-31091D01*
X51724Y-30934D01*
X51725Y-30765D01*
X51666Y-30625D01*
X51684Y-30625D01*
X51726Y-30607D01*
X51739Y-30640D01*
X51858Y-30760D01*
X52015Y-30824D01*
X52184Y-30825D01*
X52340Y-30760D01*
X52460Y-30641D01*
X52524Y-30484D01*
X52525Y-30315D01*
X52506Y-30271D01*
X52515Y-30274D01*
X52684Y-30275D01*
X52840Y-30210D01*
X52960Y-30091D01*
X53024Y-29934D01*
X53025Y-29765D01*
X53025Y-45315D01*
X52960Y-45159D01*
X52841Y-45039D01*
X52684Y-44975D01*
X52575Y-44974D01*
X52575Y-42165D01*
X52510Y-42009D01*
X52391Y-41889D01*
X52234Y-41825D01*
X52065Y-41824D01*
X51909Y-41889D01*
X51898Y-41900D01*
X51898Y-40429D01*
X51898Y-34130D01*
X51807Y-33908D01*
X51637Y-33738D01*
X51525Y-33691D01*
X51525Y-32265D01*
X51460Y-32109D01*
X51341Y-31989D01*
X51184Y-31925D01*
X51015Y-31924D01*
X50859Y-31989D01*
X50739Y-32108D01*
X50675Y-32265D01*
X50674Y-32434D01*
X50739Y-32590D01*
X50858Y-32710D01*
X51015Y-32774D01*
X51184Y-32775D01*
X51340Y-32710D01*
X51460Y-32591D01*
X51524Y-32434D01*
X51525Y-32265D01*
X51525Y-33691D01*
X51415Y-33646D01*
X51174Y-33645D01*
X50952Y-33737D01*
X50794Y-33895D01*
X50637Y-33738D01*
X50415Y-33646D01*
X50375Y-33646D01*
X50375Y-31565D01*
X50375Y-27365D01*
X50310Y-27209D01*
X50191Y-27089D01*
X50034Y-27025D01*
X49865Y-27024D01*
X49709Y-27089D01*
X49631Y-27167D01*
X49631Y-18072D01*
X49566Y-17915D01*
X49447Y-17796D01*
X49291Y-17731D01*
X49122Y-17731D01*
X49031Y-17768D01*
X48941Y-17731D01*
X48772Y-17731D01*
X48615Y-17795D01*
X48496Y-17915D01*
X48431Y-18071D01*
X48431Y-18240D01*
X48495Y-18396D01*
X48615Y-18516D01*
X48771Y-18581D01*
X48940Y-18581D01*
X49031Y-18543D01*
X49121Y-18581D01*
X49290Y-18581D01*
X49446Y-18516D01*
X49566Y-18397D01*
X49631Y-18241D01*
X49631Y-18072D01*
X49631Y-27167D01*
X49589Y-27208D01*
X49575Y-27244D01*
X49560Y-27209D01*
X49510Y-27158D01*
X49510Y-23791D01*
X49560Y-23741D01*
X49624Y-23584D01*
X49625Y-23415D01*
X49560Y-23259D01*
X49441Y-23139D01*
X49284Y-23075D01*
X49115Y-23074D01*
X48959Y-23139D01*
X48839Y-23258D01*
X48775Y-23415D01*
X48774Y-23584D01*
X48839Y-23740D01*
X48890Y-23791D01*
X48890Y-24298D01*
X48881Y-24289D01*
X48659Y-24197D01*
X48418Y-24197D01*
X48196Y-24288D01*
X48038Y-24446D01*
X47881Y-24289D01*
X47659Y-24197D01*
X47418Y-24197D01*
X47196Y-24288D01*
X47026Y-24458D01*
X46934Y-24680D01*
X46934Y-24921D01*
X47025Y-25143D01*
X47195Y-25313D01*
X47417Y-25405D01*
X47658Y-25406D01*
X47880Y-25314D01*
X48038Y-25156D01*
X48195Y-25313D01*
X48417Y-25405D01*
X48658Y-25406D01*
X48880Y-25314D01*
X48890Y-25304D01*
X48890Y-27158D01*
X48839Y-27208D01*
X48775Y-27365D01*
X48774Y-27534D01*
X48839Y-27690D01*
X48958Y-27810D01*
X49115Y-27874D01*
X49284Y-27875D01*
X49440Y-27810D01*
X49560Y-27691D01*
X49574Y-27655D01*
X49589Y-27690D01*
X49708Y-27810D01*
X49865Y-27874D01*
X50034Y-27875D01*
X50190Y-27810D01*
X50310Y-27691D01*
X50374Y-27534D01*
X50375Y-27365D01*
X50375Y-31565D01*
X50310Y-31409D01*
X50191Y-31289D01*
X50034Y-31225D01*
X49865Y-31224D01*
X49709Y-31289D01*
X49589Y-31408D01*
X49525Y-31565D01*
X49524Y-31734D01*
X49589Y-31890D01*
X49708Y-32010D01*
X49865Y-32074D01*
X50034Y-32075D01*
X50190Y-32010D01*
X50310Y-31891D01*
X50374Y-31734D01*
X50375Y-31565D01*
X50375Y-33646D01*
X50174Y-33645D01*
X49952Y-33737D01*
X49782Y-33907D01*
X49690Y-34129D01*
X49690Y-34370D01*
X49781Y-34592D01*
X49951Y-34762D01*
X50173Y-34854D01*
X50414Y-34854D01*
X50636Y-34763D01*
X50794Y-34605D01*
X50951Y-34762D01*
X51173Y-34854D01*
X51414Y-34854D01*
X51636Y-34763D01*
X51806Y-34593D01*
X51898Y-34371D01*
X51898Y-34130D01*
X51898Y-40429D01*
X51807Y-40207D01*
X51637Y-40037D01*
X51415Y-39945D01*
X51174Y-39945D01*
X50952Y-40036D01*
X50794Y-40194D01*
X50637Y-40037D01*
X50415Y-39945D01*
X50174Y-39945D01*
X49952Y-40036D01*
X49782Y-40206D01*
X49690Y-40428D01*
X49690Y-40669D01*
X49781Y-40891D01*
X49951Y-41061D01*
X50173Y-41153D01*
X50414Y-41154D01*
X50636Y-41062D01*
X50794Y-40904D01*
X50951Y-41061D01*
X51173Y-41153D01*
X51414Y-41154D01*
X51636Y-41062D01*
X51806Y-40892D01*
X51898Y-40670D01*
X51898Y-40429D01*
X51898Y-41900D01*
X51789Y-42008D01*
X51725Y-42165D01*
X51724Y-42334D01*
X51789Y-42490D01*
X51908Y-42610D01*
X52065Y-42674D01*
X52234Y-42675D01*
X52390Y-42610D01*
X52510Y-42491D01*
X52574Y-42334D01*
X52575Y-42165D01*
X52575Y-44974D01*
X52515Y-44974D01*
X52359Y-45039D01*
X52268Y-45130D01*
X52125Y-44986D01*
X52125Y-44915D01*
X52060Y-44759D01*
X52051Y-44750D01*
X52060Y-44741D01*
X52124Y-44584D01*
X52125Y-44415D01*
X52060Y-44259D01*
X51941Y-44139D01*
X51784Y-44075D01*
X51625Y-44074D01*
X51625Y-43015D01*
X51560Y-42859D01*
X51441Y-42739D01*
X51284Y-42675D01*
X51115Y-42674D01*
X50959Y-42739D01*
X50839Y-42858D01*
X50775Y-43015D01*
X50774Y-43184D01*
X50839Y-43340D01*
X50958Y-43460D01*
X51115Y-43524D01*
X51284Y-43525D01*
X51440Y-43460D01*
X51560Y-43341D01*
X51624Y-43184D01*
X51625Y-43015D01*
X51625Y-44074D01*
X51615Y-44074D01*
X51459Y-44139D01*
X51339Y-44258D01*
X51275Y-44415D01*
X51274Y-44584D01*
X51339Y-44740D01*
X51348Y-44749D01*
X51339Y-44758D01*
X51275Y-44915D01*
X51274Y-45084D01*
X51339Y-45240D01*
X51458Y-45360D01*
X51615Y-45424D01*
X51686Y-45424D01*
X52173Y-45911D01*
X52084Y-45875D01*
X51915Y-45874D01*
X51759Y-45939D01*
X51639Y-46058D01*
X51575Y-46215D01*
X51575Y-46274D01*
X51491Y-46189D01*
X51334Y-46125D01*
X51165Y-46124D01*
X51009Y-46189D01*
X50889Y-46308D01*
X50825Y-46465D01*
X50824Y-46634D01*
X50889Y-46790D01*
X51008Y-46910D01*
X51165Y-46974D01*
X51334Y-46975D01*
X51490Y-46910D01*
X51610Y-46791D01*
X51674Y-46634D01*
X51674Y-46575D01*
X51758Y-46660D01*
X51915Y-46724D01*
X52084Y-46725D01*
X52240Y-46660D01*
X52360Y-46541D01*
X52424Y-46384D01*
X52425Y-46287D01*
X52515Y-46324D01*
X52684Y-46325D01*
X52840Y-46260D01*
X52960Y-46141D01*
X53024Y-45984D01*
X53025Y-45815D01*
X53025Y-60753D01*
X51898Y-60753D01*
X51898Y-49878D01*
X51807Y-49656D01*
X51637Y-49486D01*
X51425Y-49398D01*
X51425Y-47965D01*
X51360Y-47809D01*
X51241Y-47689D01*
X51084Y-47625D01*
X50915Y-47624D01*
X50759Y-47689D01*
X50639Y-47808D01*
X50575Y-47965D01*
X50574Y-48134D01*
X50639Y-48290D01*
X50758Y-48410D01*
X50915Y-48474D01*
X51084Y-48475D01*
X51240Y-48410D01*
X51360Y-48291D01*
X51424Y-48134D01*
X51425Y-47965D01*
X51425Y-49398D01*
X51415Y-49394D01*
X51174Y-49393D01*
X50952Y-49485D01*
X50794Y-49643D01*
X50637Y-49486D01*
X50415Y-49394D01*
X50375Y-49394D01*
X50375Y-47215D01*
X50375Y-43115D01*
X50310Y-42959D01*
X50191Y-42839D01*
X50034Y-42775D01*
X49865Y-42774D01*
X49709Y-42839D01*
X49589Y-42958D01*
X49575Y-42994D01*
X49560Y-42959D01*
X49510Y-42908D01*
X49510Y-39591D01*
X49560Y-39541D01*
X49624Y-39384D01*
X49625Y-39215D01*
X49560Y-39059D01*
X49441Y-38939D01*
X49425Y-38933D01*
X49425Y-31565D01*
X49360Y-31409D01*
X49241Y-31289D01*
X49084Y-31225D01*
X48915Y-31224D01*
X48759Y-31289D01*
X48725Y-31323D01*
X48725Y-27365D01*
X48660Y-27209D01*
X48541Y-27089D01*
X48384Y-27025D01*
X48376Y-27025D01*
X48410Y-26991D01*
X48474Y-26834D01*
X48475Y-26665D01*
X48410Y-26509D01*
X48291Y-26389D01*
X48134Y-26325D01*
X47965Y-26324D01*
X47809Y-26389D01*
X47689Y-26508D01*
X47625Y-26665D01*
X47624Y-26834D01*
X47689Y-26990D01*
X47808Y-27110D01*
X47965Y-27174D01*
X47973Y-27174D01*
X47939Y-27208D01*
X47875Y-27365D01*
X47874Y-27534D01*
X47939Y-27690D01*
X48058Y-27810D01*
X48215Y-27874D01*
X48384Y-27875D01*
X48540Y-27810D01*
X48660Y-27691D01*
X48724Y-27534D01*
X48725Y-27365D01*
X48725Y-31323D01*
X48639Y-31408D01*
X48575Y-31565D01*
X48574Y-31734D01*
X48639Y-31890D01*
X48758Y-32010D01*
X48915Y-32074D01*
X49084Y-32075D01*
X49240Y-32010D01*
X49360Y-31891D01*
X49424Y-31734D01*
X49425Y-31565D01*
X49425Y-38933D01*
X49284Y-38875D01*
X49147Y-38874D01*
X49147Y-34345D01*
X49137Y-34104D01*
X49064Y-33929D01*
X48963Y-33895D01*
X48893Y-33966D01*
X48893Y-33825D01*
X48859Y-33724D01*
X48633Y-33641D01*
X48425Y-33650D01*
X48425Y-31565D01*
X48360Y-31409D01*
X48241Y-31289D01*
X48084Y-31225D01*
X47915Y-31224D01*
X47759Y-31289D01*
X47725Y-31323D01*
X47725Y-27365D01*
X47660Y-27209D01*
X47541Y-27089D01*
X47384Y-27025D01*
X47215Y-27024D01*
X47059Y-27089D01*
X46939Y-27208D01*
X46875Y-27365D01*
X46874Y-27534D01*
X46939Y-27690D01*
X47058Y-27810D01*
X47215Y-27874D01*
X47384Y-27875D01*
X47540Y-27810D01*
X47660Y-27691D01*
X47724Y-27534D01*
X47725Y-27365D01*
X47725Y-31323D01*
X47639Y-31408D01*
X47575Y-31565D01*
X47574Y-31734D01*
X47639Y-31890D01*
X47686Y-31937D01*
X47559Y-31989D01*
X47439Y-32108D01*
X47375Y-32265D01*
X47374Y-32434D01*
X47439Y-32590D01*
X47558Y-32710D01*
X47715Y-32774D01*
X47884Y-32775D01*
X48040Y-32710D01*
X48160Y-32591D01*
X48224Y-32434D01*
X48225Y-32265D01*
X48160Y-32109D01*
X48113Y-32062D01*
X48240Y-32010D01*
X48360Y-31891D01*
X48424Y-31734D01*
X48425Y-31565D01*
X48425Y-33650D01*
X48393Y-33651D01*
X48218Y-33724D01*
X48184Y-33825D01*
X48538Y-34179D01*
X48893Y-33825D01*
X48893Y-33966D01*
X48609Y-34250D01*
X48963Y-34604D01*
X49064Y-34570D01*
X49147Y-34345D01*
X49147Y-38874D01*
X49115Y-38874D01*
X48959Y-38939D01*
X48893Y-39005D01*
X48893Y-34675D01*
X48538Y-34321D01*
X48467Y-34391D01*
X48467Y-34250D01*
X48113Y-33895D01*
X48054Y-33915D01*
X48051Y-33908D01*
X47881Y-33738D01*
X47659Y-33646D01*
X47418Y-33645D01*
X47196Y-33737D01*
X47026Y-33907D01*
X46934Y-34129D01*
X46934Y-34370D01*
X47025Y-34592D01*
X47195Y-34762D01*
X47417Y-34854D01*
X47658Y-34854D01*
X47880Y-34763D01*
X48050Y-34593D01*
X48054Y-34584D01*
X48113Y-34604D01*
X48467Y-34250D01*
X48467Y-34391D01*
X48184Y-34675D01*
X48218Y-34776D01*
X48443Y-34859D01*
X48684Y-34849D01*
X48859Y-34776D01*
X48893Y-34675D01*
X48893Y-39005D01*
X48839Y-39058D01*
X48775Y-39215D01*
X48774Y-39384D01*
X48839Y-39540D01*
X48890Y-39591D01*
X48890Y-40046D01*
X48881Y-40037D01*
X48659Y-39945D01*
X48418Y-39945D01*
X48196Y-40036D01*
X48038Y-40194D01*
X47881Y-40037D01*
X47659Y-39945D01*
X47418Y-39945D01*
X47196Y-40036D01*
X47026Y-40206D01*
X46934Y-40428D01*
X46934Y-40669D01*
X47025Y-40891D01*
X47195Y-41061D01*
X47417Y-41153D01*
X47658Y-41154D01*
X47880Y-41062D01*
X48038Y-40904D01*
X48195Y-41061D01*
X48417Y-41153D01*
X48658Y-41154D01*
X48880Y-41062D01*
X48890Y-41052D01*
X48890Y-42908D01*
X48839Y-42958D01*
X48775Y-43115D01*
X48774Y-43284D01*
X48839Y-43440D01*
X48958Y-43560D01*
X49115Y-43624D01*
X49284Y-43625D01*
X49440Y-43560D01*
X49560Y-43441D01*
X49574Y-43405D01*
X49589Y-43440D01*
X49708Y-43560D01*
X49865Y-43624D01*
X50034Y-43625D01*
X50190Y-43560D01*
X50310Y-43441D01*
X50374Y-43284D01*
X50375Y-43115D01*
X50375Y-47215D01*
X50310Y-47059D01*
X50191Y-46939D01*
X50034Y-46875D01*
X49865Y-46874D01*
X49709Y-46939D01*
X49589Y-47058D01*
X49525Y-47215D01*
X49524Y-47384D01*
X49589Y-47540D01*
X49708Y-47660D01*
X49865Y-47724D01*
X50034Y-47725D01*
X50190Y-47660D01*
X50310Y-47541D01*
X50374Y-47384D01*
X50375Y-47215D01*
X50375Y-49394D01*
X50174Y-49393D01*
X49952Y-49485D01*
X49782Y-49655D01*
X49690Y-49877D01*
X49690Y-50118D01*
X49781Y-50340D01*
X49951Y-50510D01*
X50173Y-50602D01*
X50414Y-50602D01*
X50636Y-50511D01*
X50794Y-50353D01*
X50951Y-50510D01*
X51173Y-50602D01*
X51414Y-50602D01*
X51636Y-50511D01*
X51806Y-50341D01*
X51898Y-50119D01*
X51898Y-49878D01*
X51898Y-60753D01*
X49425Y-60753D01*
X49425Y-47215D01*
X49360Y-47059D01*
X49241Y-46939D01*
X49084Y-46875D01*
X48915Y-46874D01*
X48759Y-46939D01*
X48639Y-47058D01*
X48575Y-47215D01*
X48575Y-42315D01*
X48510Y-42159D01*
X48391Y-42039D01*
X48234Y-41975D01*
X48065Y-41974D01*
X47909Y-42039D01*
X47789Y-42158D01*
X47725Y-42315D01*
X47724Y-42484D01*
X47789Y-42640D01*
X47908Y-42760D01*
X47955Y-42779D01*
X47809Y-42839D01*
X47689Y-42958D01*
X47625Y-43115D01*
X47624Y-43284D01*
X47689Y-43440D01*
X47808Y-43560D01*
X47965Y-43624D01*
X48134Y-43625D01*
X48290Y-43560D01*
X48410Y-43441D01*
X48474Y-43284D01*
X48475Y-43115D01*
X48410Y-42959D01*
X48291Y-42839D01*
X48244Y-42820D01*
X48390Y-42760D01*
X48510Y-42641D01*
X48574Y-42484D01*
X48575Y-42315D01*
X48575Y-47215D01*
X48574Y-47384D01*
X48639Y-47540D01*
X48758Y-47660D01*
X48915Y-47724D01*
X49084Y-47725D01*
X49240Y-47660D01*
X49360Y-47541D01*
X49424Y-47384D01*
X49425Y-47215D01*
X49425Y-60753D01*
X49147Y-60753D01*
X49147Y-50093D01*
X49137Y-49852D01*
X49064Y-49677D01*
X48963Y-49643D01*
X48893Y-49714D01*
X48893Y-49573D01*
X48859Y-49472D01*
X48633Y-49389D01*
X48393Y-49399D01*
X48375Y-49407D01*
X48375Y-47215D01*
X48310Y-47059D01*
X48191Y-46939D01*
X48034Y-46875D01*
X47865Y-46874D01*
X47709Y-46939D01*
X47589Y-47058D01*
X47525Y-47215D01*
X47524Y-47384D01*
X47589Y-47540D01*
X47700Y-47651D01*
X47609Y-47689D01*
X47489Y-47808D01*
X47425Y-47965D01*
X47424Y-48134D01*
X47489Y-48290D01*
X47608Y-48410D01*
X47765Y-48474D01*
X47934Y-48475D01*
X48090Y-48410D01*
X48210Y-48291D01*
X48274Y-48134D01*
X48275Y-47965D01*
X48210Y-47809D01*
X48099Y-47698D01*
X48190Y-47660D01*
X48310Y-47541D01*
X48374Y-47384D01*
X48375Y-47215D01*
X48375Y-49407D01*
X48218Y-49472D01*
X48184Y-49573D01*
X48538Y-49927D01*
X48893Y-49573D01*
X48893Y-49714D01*
X48609Y-49998D01*
X48963Y-50352D01*
X49064Y-50318D01*
X49147Y-50093D01*
X49147Y-60753D01*
X48893Y-60753D01*
X48893Y-50423D01*
X48538Y-50069D01*
X48467Y-50139D01*
X48467Y-49998D01*
X48113Y-49643D01*
X48054Y-49663D01*
X48051Y-49656D01*
X47881Y-49486D01*
X47659Y-49394D01*
X47418Y-49393D01*
X47196Y-49485D01*
X47026Y-49655D01*
X46934Y-49877D01*
X46934Y-50118D01*
X47025Y-50340D01*
X47195Y-50510D01*
X47417Y-50602D01*
X47658Y-50602D01*
X47880Y-50511D01*
X48050Y-50341D01*
X48054Y-50332D01*
X48113Y-50352D01*
X48467Y-49998D01*
X48467Y-50139D01*
X48184Y-50423D01*
X48218Y-50524D01*
X48443Y-50607D01*
X48684Y-50597D01*
X48859Y-50524D01*
X48893Y-50423D01*
X48893Y-60753D01*
X45925Y-60753D01*
X45925Y-30615D01*
X45860Y-30459D01*
X45781Y-30380D01*
X45781Y-18572D01*
X45716Y-18415D01*
X45707Y-18406D01*
X45716Y-18397D01*
X45781Y-18241D01*
X45781Y-18072D01*
X45716Y-17915D01*
X45707Y-17906D01*
X45716Y-17897D01*
X45781Y-17741D01*
X45781Y-17572D01*
X45716Y-17415D01*
X45597Y-17296D01*
X45441Y-17231D01*
X45272Y-17231D01*
X45115Y-17295D01*
X44996Y-17415D01*
X44931Y-17571D01*
X44931Y-17731D01*
X44922Y-17731D01*
X44765Y-17795D01*
X44681Y-17880D01*
X44681Y-17722D01*
X44616Y-17565D01*
X44497Y-17446D01*
X44341Y-17381D01*
X44172Y-17381D01*
X44015Y-17445D01*
X43896Y-17565D01*
X43831Y-17721D01*
X43831Y-17890D01*
X43895Y-18046D01*
X44015Y-18166D01*
X44171Y-18231D01*
X44340Y-18231D01*
X44496Y-18166D01*
X44581Y-18082D01*
X44581Y-18240D01*
X44645Y-18396D01*
X44655Y-18406D01*
X44646Y-18415D01*
X44581Y-18571D01*
X44581Y-18740D01*
X44645Y-18896D01*
X44765Y-19016D01*
X44921Y-19081D01*
X45090Y-19081D01*
X45181Y-19043D01*
X45271Y-19081D01*
X45440Y-19081D01*
X45596Y-19016D01*
X45716Y-18897D01*
X45781Y-18741D01*
X45781Y-18572D01*
X45781Y-30380D01*
X45741Y-30339D01*
X45584Y-30275D01*
X45513Y-30275D01*
X44981Y-29742D01*
X44981Y-19522D01*
X44916Y-19365D01*
X44797Y-19246D01*
X44641Y-19181D01*
X44472Y-19181D01*
X44315Y-19245D01*
X44256Y-19305D01*
X44197Y-19246D01*
X44041Y-19181D01*
X43872Y-19181D01*
X43715Y-19245D01*
X43596Y-19365D01*
X43531Y-19521D01*
X43531Y-19690D01*
X43595Y-19846D01*
X43715Y-19966D01*
X43871Y-20031D01*
X44040Y-20031D01*
X44196Y-19966D01*
X44256Y-19907D01*
X44315Y-19966D01*
X44471Y-20031D01*
X44640Y-20031D01*
X44796Y-19966D01*
X44916Y-19847D01*
X44981Y-19691D01*
X44981Y-19522D01*
X44981Y-29742D01*
X43725Y-28486D01*
X43725Y-28415D01*
X43660Y-28259D01*
X43541Y-28139D01*
X43384Y-28075D01*
X43215Y-28074D01*
X43059Y-28139D01*
X42939Y-28258D01*
X42875Y-28415D01*
X42874Y-28584D01*
X42939Y-28740D01*
X43058Y-28860D01*
X43215Y-28924D01*
X43286Y-28924D01*
X45074Y-30713D01*
X45074Y-30784D01*
X45139Y-30940D01*
X45258Y-31060D01*
X45415Y-31124D01*
X45584Y-31125D01*
X45740Y-31060D01*
X45860Y-30941D01*
X45924Y-30784D01*
X45925Y-30615D01*
X45925Y-60753D01*
X44925Y-60753D01*
X44925Y-35515D01*
X44860Y-35359D01*
X44741Y-35239D01*
X44584Y-35175D01*
X44415Y-35174D01*
X44259Y-35239D01*
X44174Y-35323D01*
X44091Y-35239D01*
X43934Y-35175D01*
X43765Y-35174D01*
X43609Y-35239D01*
X43550Y-35298D01*
X43491Y-35239D01*
X43334Y-35175D01*
X43165Y-35174D01*
X43009Y-35239D01*
X42889Y-35358D01*
X42825Y-35515D01*
X42825Y-35586D01*
X40936Y-37474D01*
X40865Y-37474D01*
X40709Y-37539D01*
X40589Y-37658D01*
X40525Y-37815D01*
X40524Y-37984D01*
X40589Y-38140D01*
X40708Y-38260D01*
X40865Y-38324D01*
X41034Y-38325D01*
X41190Y-38260D01*
X41310Y-38141D01*
X41374Y-37984D01*
X41374Y-37913D01*
X41954Y-37333D01*
X41969Y-37370D01*
X42088Y-37490D01*
X42245Y-37554D01*
X42414Y-37555D01*
X42570Y-37490D01*
X42630Y-37431D01*
X42708Y-37510D01*
X42865Y-37574D01*
X43034Y-37575D01*
X43190Y-37510D01*
X43310Y-37391D01*
X43374Y-37234D01*
X43374Y-37163D01*
X44513Y-36025D01*
X44584Y-36025D01*
X44740Y-35960D01*
X44860Y-35841D01*
X44924Y-35684D01*
X44925Y-35515D01*
X44925Y-60753D01*
X40655Y-60753D01*
X40655Y-41945D01*
X40590Y-41789D01*
X40471Y-41669D01*
X40314Y-41605D01*
X40243Y-41605D01*
X40025Y-41386D01*
X40025Y-25415D01*
X39960Y-25259D01*
X39841Y-25139D01*
X39684Y-25075D01*
X39515Y-25074D01*
X39359Y-25139D01*
X39239Y-25258D01*
X39175Y-25415D01*
X39174Y-25584D01*
X39239Y-25740D01*
X39358Y-25860D01*
X39515Y-25924D01*
X39684Y-25925D01*
X39840Y-25860D01*
X39960Y-25741D01*
X40024Y-25584D01*
X40025Y-25415D01*
X40025Y-41386D01*
X39905Y-41266D01*
X39905Y-41195D01*
X39840Y-41039D01*
X39725Y-40923D01*
X39725Y-39315D01*
X39675Y-39194D01*
X39675Y-35215D01*
X39610Y-35059D01*
X39491Y-34939D01*
X39404Y-34903D01*
X39404Y-30280D01*
X39312Y-30058D01*
X39142Y-29887D01*
X38920Y-29795D01*
X38825Y-29795D01*
X38825Y-24815D01*
X38760Y-24659D01*
X38641Y-24539D01*
X38484Y-24475D01*
X38315Y-24474D01*
X38199Y-24522D01*
X38084Y-24475D01*
X37915Y-24474D01*
X37759Y-24539D01*
X37639Y-24658D01*
X37575Y-24815D01*
X37574Y-24984D01*
X37589Y-25018D01*
X37484Y-24975D01*
X37315Y-24974D01*
X37159Y-25039D01*
X37039Y-25158D01*
X36975Y-25315D01*
X36974Y-25473D01*
X36941Y-25439D01*
X36925Y-25433D01*
X36925Y-18315D01*
X36860Y-18159D01*
X36741Y-18039D01*
X36584Y-17975D01*
X36415Y-17974D01*
X36325Y-18012D01*
X36325Y-15315D01*
X36260Y-15159D01*
X36141Y-15039D01*
X35984Y-14975D01*
X35815Y-14974D01*
X35659Y-15039D01*
X35539Y-15158D01*
X35475Y-15315D01*
X35474Y-15484D01*
X35539Y-15640D01*
X35658Y-15760D01*
X35815Y-15824D01*
X35984Y-15825D01*
X36140Y-15760D01*
X36260Y-15641D01*
X36324Y-15484D01*
X36325Y-15315D01*
X36325Y-18012D01*
X36259Y-18039D01*
X36139Y-18158D01*
X36075Y-18315D01*
X36074Y-18484D01*
X36139Y-18640D01*
X36258Y-18760D01*
X36415Y-18824D01*
X36584Y-18825D01*
X36740Y-18760D01*
X36860Y-18641D01*
X36924Y-18484D01*
X36925Y-18315D01*
X36925Y-25433D01*
X36784Y-25375D01*
X36615Y-25374D01*
X36459Y-25439D01*
X36339Y-25558D01*
X36275Y-25715D01*
X36274Y-25884D01*
X36339Y-26040D01*
X36458Y-26160D01*
X36615Y-26224D01*
X36784Y-26225D01*
X36940Y-26160D01*
X37050Y-26051D01*
X37158Y-26160D01*
X37315Y-26224D01*
X37484Y-26225D01*
X37640Y-26160D01*
X37760Y-26041D01*
X37824Y-25884D01*
X37825Y-25715D01*
X37777Y-25599D01*
X37824Y-25484D01*
X37825Y-25315D01*
X37810Y-25281D01*
X37915Y-25324D01*
X38084Y-25325D01*
X38200Y-25277D01*
X38315Y-25324D01*
X38484Y-25325D01*
X38640Y-25260D01*
X38760Y-25141D01*
X38824Y-24984D01*
X38825Y-24815D01*
X38825Y-29795D01*
X38680Y-29795D01*
X38458Y-29887D01*
X38299Y-30045D01*
X38142Y-29887D01*
X37920Y-29795D01*
X37680Y-29795D01*
X37458Y-29887D01*
X37287Y-30057D01*
X37195Y-30279D01*
X37195Y-30519D01*
X37287Y-30741D01*
X37457Y-30912D01*
X37679Y-31004D01*
X37919Y-31004D01*
X38141Y-30912D01*
X38300Y-30754D01*
X38457Y-30912D01*
X38679Y-31004D01*
X38919Y-31004D01*
X39141Y-30912D01*
X39312Y-30742D01*
X39404Y-30520D01*
X39404Y-30280D01*
X39404Y-34903D01*
X39334Y-34875D01*
X39165Y-34874D01*
X39009Y-34939D01*
X38889Y-35058D01*
X38825Y-35215D01*
X38824Y-35384D01*
X38889Y-35540D01*
X39008Y-35660D01*
X39165Y-35724D01*
X39334Y-35725D01*
X39490Y-35660D01*
X39610Y-35541D01*
X39674Y-35384D01*
X39675Y-35215D01*
X39675Y-39194D01*
X39660Y-39159D01*
X39541Y-39039D01*
X39384Y-38975D01*
X39215Y-38974D01*
X39059Y-39039D01*
X38939Y-39158D01*
X38875Y-39315D01*
X38874Y-39484D01*
X38939Y-39640D01*
X39058Y-39760D01*
X39215Y-39824D01*
X39384Y-39825D01*
X39540Y-39760D01*
X39660Y-39641D01*
X39724Y-39484D01*
X39725Y-39315D01*
X39725Y-40923D01*
X39721Y-40919D01*
X39564Y-40855D01*
X39395Y-40854D01*
X39239Y-40919D01*
X39119Y-41038D01*
X39055Y-41195D01*
X39054Y-41364D01*
X39119Y-41520D01*
X39238Y-41640D01*
X39395Y-41704D01*
X39466Y-41704D01*
X39804Y-42043D01*
X39804Y-42114D01*
X39869Y-42270D01*
X39988Y-42390D01*
X40145Y-42454D01*
X40314Y-42455D01*
X40470Y-42390D01*
X40590Y-42271D01*
X40654Y-42114D01*
X40655Y-41945D01*
X40655Y-60753D01*
X37075Y-60753D01*
X37075Y-40815D01*
X37010Y-40659D01*
X36891Y-40539D01*
X36875Y-40533D01*
X36875Y-34615D01*
X36810Y-34459D01*
X36691Y-34339D01*
X36625Y-34312D01*
X36625Y-31915D01*
X36560Y-31759D01*
X36441Y-31639D01*
X36325Y-31591D01*
X36325Y-28915D01*
X36260Y-28759D01*
X36141Y-28639D01*
X35984Y-28575D01*
X35815Y-28574D01*
X35659Y-28639D01*
X35539Y-28758D01*
X35475Y-28915D01*
X35474Y-29084D01*
X35539Y-29240D01*
X35658Y-29360D01*
X35815Y-29424D01*
X35984Y-29425D01*
X36140Y-29360D01*
X36260Y-29241D01*
X36324Y-29084D01*
X36325Y-28915D01*
X36325Y-31591D01*
X36284Y-31575D01*
X36115Y-31574D01*
X35959Y-31639D01*
X35839Y-31758D01*
X35775Y-31915D01*
X35774Y-32084D01*
X35839Y-32240D01*
X35958Y-32360D01*
X36115Y-32424D01*
X36284Y-32425D01*
X36440Y-32360D01*
X36560Y-32241D01*
X36624Y-32084D01*
X36625Y-31915D01*
X36625Y-34312D01*
X36534Y-34275D01*
X36365Y-34274D01*
X36209Y-34339D01*
X36089Y-34458D01*
X36025Y-34615D01*
X36024Y-34784D01*
X36077Y-34911D01*
X36009Y-34939D01*
X35889Y-35058D01*
X35825Y-35215D01*
X35824Y-35384D01*
X35889Y-35540D01*
X36008Y-35660D01*
X36165Y-35724D01*
X36334Y-35725D01*
X36490Y-35660D01*
X36610Y-35541D01*
X36674Y-35384D01*
X36675Y-35215D01*
X36622Y-35088D01*
X36690Y-35060D01*
X36810Y-34941D01*
X36874Y-34784D01*
X36875Y-34615D01*
X36875Y-40533D01*
X36734Y-40475D01*
X36565Y-40474D01*
X36425Y-40533D01*
X36425Y-39315D01*
X36360Y-39159D01*
X36241Y-39039D01*
X36084Y-38975D01*
X35915Y-38974D01*
X35759Y-39039D01*
X35639Y-39158D01*
X35575Y-39315D01*
X35574Y-39484D01*
X35639Y-39640D01*
X35758Y-39760D01*
X35915Y-39824D01*
X36084Y-39825D01*
X36240Y-39760D01*
X36360Y-39641D01*
X36424Y-39484D01*
X36425Y-39315D01*
X36425Y-40533D01*
X36409Y-40539D01*
X36289Y-40658D01*
X36225Y-40815D01*
X36224Y-40984D01*
X36289Y-41140D01*
X36408Y-41260D01*
X36565Y-41324D01*
X36734Y-41325D01*
X36890Y-41260D01*
X37010Y-41141D01*
X37074Y-40984D01*
X37075Y-40815D01*
X37075Y-60753D01*
X35525Y-60753D01*
X35525Y-38615D01*
X35460Y-38459D01*
X35410Y-38408D01*
X35410Y-36391D01*
X35460Y-36341D01*
X35524Y-36184D01*
X35525Y-36015D01*
X35460Y-35859D01*
X35341Y-35739D01*
X35184Y-35675D01*
X35015Y-35674D01*
X34859Y-35739D01*
X34739Y-35858D01*
X34675Y-36015D01*
X34674Y-36184D01*
X34739Y-36340D01*
X34790Y-36391D01*
X34790Y-38408D01*
X34739Y-38458D01*
X34675Y-38615D01*
X34674Y-38784D01*
X34739Y-38940D01*
X34858Y-39060D01*
X35015Y-39124D01*
X35184Y-39125D01*
X35340Y-39060D01*
X35460Y-38941D01*
X35524Y-38784D01*
X35525Y-38615D01*
X35525Y-60753D01*
X33525Y-60753D01*
X33525Y-35315D01*
X33460Y-35159D01*
X33341Y-35039D01*
X33184Y-34975D01*
X33015Y-34974D01*
X32875Y-35033D01*
X32875Y-32315D01*
X32810Y-32159D01*
X32691Y-32039D01*
X32534Y-31975D01*
X32365Y-31974D01*
X32225Y-32033D01*
X32225Y-24415D01*
X32160Y-24259D01*
X32110Y-24208D01*
X32110Y-18691D01*
X32160Y-18641D01*
X32224Y-18484D01*
X32225Y-18315D01*
X32160Y-18159D01*
X32041Y-18039D01*
X31884Y-17975D01*
X31725Y-17974D01*
X31725Y-15315D01*
X31660Y-15159D01*
X31541Y-15039D01*
X31384Y-14975D01*
X31215Y-14974D01*
X31059Y-15039D01*
X30939Y-15158D01*
X30875Y-15315D01*
X30874Y-15484D01*
X30939Y-15640D01*
X31058Y-15760D01*
X31215Y-15824D01*
X31384Y-15825D01*
X31540Y-15760D01*
X31660Y-15641D01*
X31724Y-15484D01*
X31725Y-15315D01*
X31725Y-17974D01*
X31715Y-17974D01*
X31559Y-18039D01*
X31439Y-18158D01*
X31375Y-18315D01*
X31374Y-18484D01*
X31439Y-18640D01*
X31490Y-18691D01*
X31490Y-24208D01*
X31439Y-24258D01*
X31375Y-24415D01*
X31374Y-24584D01*
X31439Y-24740D01*
X31558Y-24860D01*
X31715Y-24924D01*
X31884Y-24925D01*
X32040Y-24860D01*
X32160Y-24741D01*
X32224Y-24584D01*
X32225Y-24415D01*
X32225Y-32033D01*
X32209Y-32039D01*
X32089Y-32158D01*
X32025Y-32315D01*
X32024Y-32484D01*
X32089Y-32640D01*
X32208Y-32760D01*
X32365Y-32824D01*
X32534Y-32825D01*
X32690Y-32760D01*
X32810Y-32641D01*
X32874Y-32484D01*
X32875Y-32315D01*
X32875Y-35033D01*
X32859Y-35039D01*
X32739Y-35158D01*
X32675Y-35315D01*
X32674Y-35484D01*
X32739Y-35640D01*
X32858Y-35760D01*
X33015Y-35824D01*
X33184Y-35825D01*
X33340Y-35760D01*
X33460Y-35641D01*
X33524Y-35484D01*
X33525Y-35315D01*
X33525Y-60753D01*
X32225Y-60753D01*
X32225Y-36015D01*
X32160Y-35859D01*
X32041Y-35739D01*
X31884Y-35675D01*
X31715Y-35674D01*
X31559Y-35739D01*
X31439Y-35858D01*
X31375Y-36015D01*
X31374Y-36184D01*
X31439Y-36340D01*
X31558Y-36460D01*
X31715Y-36524D01*
X31884Y-36525D01*
X32040Y-36460D01*
X32160Y-36341D01*
X32224Y-36184D01*
X32225Y-36015D01*
X32225Y-60753D01*
X31425Y-60753D01*
X31425Y-39115D01*
X31360Y-38959D01*
X31241Y-38839D01*
X31084Y-38775D01*
X30915Y-38774D01*
X30759Y-38839D01*
X30639Y-38958D01*
X30575Y-39115D01*
X30574Y-39284D01*
X30639Y-39440D01*
X30758Y-39560D01*
X30915Y-39624D01*
X31084Y-39625D01*
X31240Y-39560D01*
X31360Y-39441D01*
X31424Y-39284D01*
X31425Y-39115D01*
X31425Y-60753D01*
X28790Y-60753D01*
X28790Y-14049D01*
X56249Y-14049D01*
X56249Y-15505D01*
X56098Y-15354D01*
X55840Y-15247D01*
X55560Y-15247D01*
X55302Y-15353D01*
X55104Y-15551D01*
X54997Y-15809D01*
X54997Y-16089D01*
X55103Y-16347D01*
X55301Y-16545D01*
X55559Y-16652D01*
X55839Y-16652D01*
X56097Y-16546D01*
X56249Y-16394D01*
X56249Y-60753D01*
X56249Y-60753D01*
G37*
G54D22*
X56249Y-60753D02*
X54548Y-60753D01*
X54548Y-47622D01*
X54456Y-47400D01*
X54298Y-47242D01*
X54456Y-47085D01*
X54548Y-46863D01*
X54548Y-46622D01*
X54548Y-43685D01*
X54456Y-43463D01*
X54298Y-43305D01*
X54456Y-43148D01*
X54548Y-42926D01*
X54548Y-42685D01*
X54548Y-31874D01*
X54456Y-31652D01*
X54298Y-31494D01*
X54456Y-31337D01*
X54548Y-31115D01*
X54548Y-30874D01*
X54548Y-27937D01*
X54456Y-27715D01*
X54298Y-27557D01*
X54456Y-27400D01*
X54548Y-27178D01*
X54548Y-26937D01*
X54456Y-26715D01*
X54402Y-26661D01*
X54402Y-16452D01*
X54402Y-16353D01*
X54402Y-15447D01*
X54364Y-15355D01*
X54294Y-15285D01*
X54202Y-15247D01*
X54103Y-15247D01*
X53197Y-15247D01*
X53105Y-15285D01*
X53035Y-15355D01*
X52997Y-15447D01*
X52997Y-15546D01*
X52997Y-16452D01*
X53035Y-16544D01*
X53105Y-16614D01*
X53197Y-16652D01*
X53296Y-16652D01*
X54202Y-16652D01*
X54294Y-16614D01*
X54364Y-16544D01*
X54402Y-16452D01*
X54402Y-26661D01*
X54286Y-26545D01*
X54064Y-26453D01*
X53824Y-26453D01*
X53602Y-26544D01*
X53432Y-26714D01*
X53339Y-26936D01*
X53339Y-27177D01*
X53431Y-27399D01*
X53589Y-27557D01*
X53432Y-27714D01*
X53339Y-27936D01*
X53339Y-28177D01*
X53431Y-28399D01*
X53601Y-28569D01*
X53823Y-28661D01*
X54063Y-28661D01*
X54285Y-28570D01*
X54456Y-28400D01*
X54548Y-28178D01*
X54548Y-27937D01*
X54548Y-30874D01*
X54456Y-30652D01*
X54286Y-30482D01*
X54064Y-30390D01*
X53824Y-30390D01*
X53602Y-30481D01*
X53432Y-30651D01*
X53339Y-30873D01*
X53339Y-31114D01*
X53431Y-31336D01*
X53589Y-31494D01*
X53432Y-31651D01*
X53339Y-31873D01*
X53339Y-32114D01*
X53431Y-32336D01*
X53601Y-32506D01*
X53823Y-32598D01*
X54063Y-32598D01*
X54285Y-32507D01*
X54456Y-32337D01*
X54548Y-32115D01*
X54548Y-31874D01*
X54548Y-42685D01*
X54456Y-42463D01*
X54286Y-42293D01*
X54064Y-42201D01*
X53824Y-42201D01*
X53602Y-42292D01*
X53432Y-42462D01*
X53339Y-42684D01*
X53339Y-42925D01*
X53431Y-43147D01*
X53589Y-43305D01*
X53432Y-43462D01*
X53339Y-43684D01*
X53339Y-43925D01*
X53431Y-44147D01*
X53601Y-44317D01*
X53823Y-44409D01*
X54063Y-44409D01*
X54285Y-44318D01*
X54456Y-44148D01*
X54548Y-43926D01*
X54548Y-43685D01*
X54548Y-46622D01*
X54456Y-46400D01*
X54286Y-46230D01*
X54064Y-46138D01*
X53824Y-46138D01*
X53602Y-46229D01*
X53432Y-46399D01*
X53339Y-46621D01*
X53339Y-46862D01*
X53431Y-47084D01*
X53589Y-47242D01*
X53432Y-47399D01*
X53339Y-47621D01*
X53339Y-47862D01*
X53431Y-48084D01*
X53601Y-48254D01*
X53823Y-48346D01*
X54063Y-48346D01*
X54285Y-48255D01*
X54456Y-48085D01*
X54548Y-47863D01*
X54548Y-47622D01*
X54548Y-60753D01*
X53025Y-60753D01*
X53025Y-45815D01*
X52960Y-45659D01*
X52951Y-45650D01*
X52960Y-45641D01*
X53024Y-45484D01*
X53025Y-45315D01*
X53025Y-29765D01*
X52960Y-29609D01*
X52876Y-29524D01*
X52960Y-29441D01*
X53024Y-29284D01*
X53025Y-29115D01*
X52960Y-28959D01*
X52841Y-28839D01*
X52684Y-28775D01*
X52525Y-28774D01*
X52525Y-26465D01*
X52460Y-26309D01*
X52341Y-26189D01*
X52184Y-26125D01*
X52015Y-26124D01*
X51898Y-26173D01*
X51898Y-24681D01*
X51891Y-24664D01*
X51891Y-20352D01*
X51800Y-20130D01*
X51630Y-19960D01*
X51408Y-19868D01*
X51167Y-19868D01*
X50945Y-19959D01*
X50775Y-20129D01*
X50771Y-20137D01*
X50712Y-20117D01*
X50641Y-20188D01*
X50641Y-20047D01*
X50607Y-19946D01*
X50382Y-19863D01*
X50141Y-19873D01*
X49966Y-19946D01*
X49932Y-20047D01*
X50287Y-20401D01*
X50641Y-20047D01*
X50641Y-20188D01*
X50358Y-20472D01*
X50712Y-20826D01*
X50771Y-20807D01*
X50774Y-20814D01*
X50944Y-20984D01*
X51166Y-21076D01*
X51407Y-21076D01*
X51629Y-20985D01*
X51799Y-20815D01*
X51891Y-20593D01*
X51891Y-20352D01*
X51891Y-24664D01*
X51807Y-24459D01*
X51637Y-24289D01*
X51415Y-24197D01*
X51174Y-24197D01*
X50952Y-24288D01*
X50794Y-24446D01*
X50641Y-24294D01*
X50641Y-20897D01*
X50287Y-20543D01*
X50216Y-20613D01*
X50216Y-20472D01*
X49862Y-20117D01*
X49761Y-20151D01*
X49678Y-20377D01*
X49688Y-20617D01*
X49761Y-20792D01*
X49862Y-20826D01*
X50216Y-20472D01*
X50216Y-20613D01*
X49932Y-20897D01*
X49966Y-20998D01*
X50192Y-21081D01*
X50432Y-21071D01*
X50607Y-20998D01*
X50641Y-20897D01*
X50641Y-24294D01*
X50637Y-24289D01*
X50415Y-24197D01*
X50174Y-24197D01*
X49952Y-24288D01*
X49782Y-24458D01*
X49690Y-24680D01*
X49690Y-24921D01*
X49781Y-25143D01*
X49951Y-25313D01*
X50173Y-25405D01*
X50414Y-25406D01*
X50636Y-25314D01*
X50794Y-25156D01*
X50951Y-25313D01*
X51173Y-25405D01*
X51414Y-25406D01*
X51636Y-25314D01*
X51806Y-25144D01*
X51898Y-24922D01*
X51898Y-24681D01*
X51898Y-26173D01*
X51859Y-26189D01*
X51739Y-26308D01*
X51675Y-26465D01*
X51674Y-26634D01*
X51739Y-26790D01*
X51858Y-26910D01*
X52015Y-26974D01*
X52184Y-26975D01*
X52340Y-26910D01*
X52460Y-26791D01*
X52524Y-26634D01*
X52525Y-26465D01*
X52525Y-28774D01*
X52515Y-28774D01*
X52359Y-28839D01*
X52239Y-28958D01*
X52212Y-29024D01*
X52025Y-28836D01*
X52025Y-28765D01*
X51960Y-28609D01*
X51841Y-28489D01*
X51684Y-28425D01*
X51575Y-28424D01*
X51575Y-27315D01*
X51510Y-27159D01*
X51391Y-27039D01*
X51234Y-26975D01*
X51065Y-26974D01*
X50909Y-27039D01*
X50789Y-27158D01*
X50725Y-27315D01*
X50724Y-27484D01*
X50789Y-27640D01*
X50908Y-27760D01*
X51065Y-27824D01*
X51234Y-27825D01*
X51390Y-27760D01*
X51510Y-27641D01*
X51574Y-27484D01*
X51575Y-27315D01*
X51575Y-28424D01*
X51515Y-28424D01*
X51359Y-28489D01*
X51239Y-28608D01*
X51175Y-28765D01*
X51174Y-28934D01*
X51239Y-29090D01*
X51358Y-29210D01*
X51515Y-29274D01*
X51586Y-29274D01*
X52174Y-29863D01*
X52174Y-29934D01*
X52193Y-29978D01*
X52184Y-29975D01*
X52015Y-29974D01*
X51973Y-29992D01*
X51960Y-29959D01*
X51841Y-29839D01*
X51684Y-29775D01*
X51515Y-29774D01*
X51359Y-29839D01*
X51239Y-29958D01*
X51175Y-30115D01*
X51174Y-30284D01*
X51233Y-30424D01*
X51215Y-30424D01*
X51059Y-30489D01*
X50939Y-30608D01*
X50875Y-30765D01*
X50874Y-30934D01*
X50939Y-31090D01*
X51058Y-31210D01*
X51215Y-31274D01*
X51384Y-31275D01*
X51540Y-31210D01*
X51660Y-31091D01*
X51724Y-30934D01*
X51725Y-30765D01*
X51666Y-30625D01*
X51684Y-30625D01*
X51726Y-30607D01*
X51739Y-30640D01*
X51858Y-30760D01*
X52015Y-30824D01*
X52184Y-30825D01*
X52340Y-30760D01*
X52460Y-30641D01*
X52524Y-30484D01*
X52525Y-30315D01*
X52506Y-30271D01*
X52515Y-30274D01*
X52684Y-30275D01*
X52840Y-30210D01*
X52960Y-30091D01*
X53024Y-29934D01*
X53025Y-29765D01*
X53025Y-45315D01*
X52960Y-45159D01*
X52841Y-45039D01*
X52684Y-44975D01*
X52575Y-44974D01*
X52575Y-42165D01*
X52510Y-42009D01*
X52391Y-41889D01*
X52234Y-41825D01*
X52065Y-41824D01*
X51909Y-41889D01*
X51898Y-41900D01*
X51898Y-40429D01*
X51898Y-34130D01*
X51807Y-33908D01*
X51637Y-33738D01*
X51525Y-33691D01*
X51525Y-32265D01*
X51460Y-32109D01*
X51341Y-31989D01*
X51184Y-31925D01*
X51015Y-31924D01*
X50859Y-31989D01*
X50739Y-32108D01*
X50675Y-32265D01*
X50674Y-32434D01*
X50739Y-32590D01*
X50858Y-32710D01*
X51015Y-32774D01*
X51184Y-32775D01*
X51340Y-32710D01*
X51460Y-32591D01*
X51524Y-32434D01*
X51525Y-32265D01*
X51525Y-33691D01*
X51415Y-33646D01*
X51174Y-33645D01*
X50952Y-33737D01*
X50794Y-33895D01*
X50637Y-33738D01*
X50415Y-33646D01*
X50375Y-33646D01*
X50375Y-31565D01*
X50375Y-27365D01*
X50310Y-27209D01*
X50191Y-27089D01*
X50034Y-27025D01*
X49865Y-27024D01*
X49709Y-27089D01*
X49631Y-27167D01*
X49631Y-18072D01*
X49566Y-17915D01*
X49447Y-17796D01*
X49291Y-17731D01*
X49122Y-17731D01*
X49031Y-17768D01*
X48941Y-17731D01*
X48772Y-17731D01*
X48615Y-17795D01*
X48496Y-17915D01*
X48431Y-18071D01*
X48431Y-18240D01*
X48495Y-18396D01*
X48615Y-18516D01*
X48771Y-18581D01*
X48940Y-18581D01*
X49031Y-18543D01*
X49121Y-18581D01*
X49290Y-18581D01*
X49446Y-18516D01*
X49566Y-18397D01*
X49631Y-18241D01*
X49631Y-18072D01*
X49631Y-27167D01*
X49589Y-27208D01*
X49575Y-27244D01*
X49560Y-27209D01*
X49510Y-27158D01*
X49510Y-23791D01*
X49560Y-23741D01*
X49624Y-23584D01*
X49625Y-23415D01*
X49560Y-23259D01*
X49441Y-23139D01*
X49284Y-23075D01*
X49115Y-23074D01*
X48959Y-23139D01*
X48839Y-23258D01*
X48775Y-23415D01*
X48774Y-23584D01*
X48839Y-23740D01*
X48890Y-23791D01*
X48890Y-24298D01*
X48881Y-24289D01*
X48659Y-24197D01*
X48418Y-24197D01*
X48196Y-24288D01*
X48038Y-24446D01*
X47881Y-24289D01*
X47659Y-24197D01*
X47418Y-24197D01*
X47196Y-24288D01*
X47026Y-24458D01*
X46934Y-24680D01*
X46934Y-24921D01*
X47025Y-25143D01*
X47195Y-25313D01*
X47417Y-25405D01*
X47658Y-25406D01*
X47880Y-25314D01*
X48038Y-25156D01*
X48195Y-25313D01*
X48417Y-25405D01*
X48658Y-25406D01*
X48880Y-25314D01*
X48890Y-25304D01*
X48890Y-27158D01*
X48839Y-27208D01*
X48775Y-27365D01*
X48774Y-27534D01*
X48839Y-27690D01*
X48958Y-27810D01*
X49115Y-27874D01*
X49284Y-27875D01*
X49440Y-27810D01*
X49560Y-27691D01*
X49574Y-27655D01*
X49589Y-27690D01*
X49708Y-27810D01*
X49865Y-27874D01*
X50034Y-27875D01*
X50190Y-27810D01*
X50310Y-27691D01*
X50374Y-27534D01*
X50375Y-27365D01*
X50375Y-31565D01*
X50310Y-31409D01*
X50191Y-31289D01*
X50034Y-31225D01*
X49865Y-31224D01*
X49709Y-31289D01*
X49589Y-31408D01*
X49525Y-31565D01*
X49524Y-31734D01*
X49589Y-31890D01*
X49708Y-32010D01*
X49865Y-32074D01*
X50034Y-32075D01*
X50190Y-32010D01*
X50310Y-31891D01*
X50374Y-31734D01*
X50375Y-31565D01*
X50375Y-33646D01*
X50174Y-33645D01*
X49952Y-33737D01*
X49782Y-33907D01*
X49690Y-34129D01*
X49690Y-34370D01*
X49781Y-34592D01*
X49951Y-34762D01*
X50173Y-34854D01*
X50414Y-34854D01*
X50636Y-34763D01*
X50794Y-34605D01*
X50951Y-34762D01*
X51173Y-34854D01*
X51414Y-34854D01*
X51636Y-34763D01*
X51806Y-34593D01*
X51898Y-34371D01*
X51898Y-34130D01*
X51898Y-40429D01*
X51807Y-40207D01*
X51637Y-40037D01*
X51415Y-39945D01*
X51174Y-39945D01*
X50952Y-40036D01*
X50794Y-40194D01*
X50637Y-40037D01*
X50415Y-39945D01*
X50174Y-39945D01*
X49952Y-40036D01*
X49782Y-40206D01*
X49690Y-40428D01*
X49690Y-40669D01*
X49781Y-40891D01*
X49951Y-41061D01*
X50173Y-41153D01*
X50414Y-41154D01*
X50636Y-41062D01*
X50794Y-40904D01*
X50951Y-41061D01*
X51173Y-41153D01*
X51414Y-41154D01*
X51636Y-41062D01*
X51806Y-40892D01*
X51898Y-40670D01*
X51898Y-40429D01*
X51898Y-41900D01*
X51789Y-42008D01*
X51725Y-42165D01*
X51724Y-42334D01*
X51789Y-42490D01*
X51908Y-42610D01*
X52065Y-42674D01*
X52234Y-42675D01*
X52390Y-42610D01*
X52510Y-42491D01*
X52574Y-42334D01*
X52575Y-42165D01*
X52575Y-44974D01*
X52515Y-44974D01*
X52359Y-45039D01*
X52268Y-45130D01*
X52125Y-44986D01*
X52125Y-44915D01*
X52060Y-44759D01*
X52051Y-44750D01*
X52060Y-44741D01*
X52124Y-44584D01*
X52125Y-44415D01*
X52060Y-44259D01*
X51941Y-44139D01*
X51784Y-44075D01*
X51625Y-44074D01*
X51625Y-43015D01*
X51560Y-42859D01*
X51441Y-42739D01*
X51284Y-42675D01*
X51115Y-42674D01*
X50959Y-42739D01*
X50839Y-42858D01*
X50775Y-43015D01*
X50774Y-43184D01*
X50839Y-43340D01*
X50958Y-43460D01*
X51115Y-43524D01*
X51284Y-43525D01*
X51440Y-43460D01*
X51560Y-43341D01*
X51624Y-43184D01*
X51625Y-43015D01*
X51625Y-44074D01*
X51615Y-44074D01*
X51459Y-44139D01*
X51339Y-44258D01*
X51275Y-44415D01*
X51274Y-44584D01*
X51339Y-44740D01*
X51348Y-44749D01*
X51339Y-44758D01*
X51275Y-44915D01*
X51274Y-45084D01*
X51339Y-45240D01*
X51458Y-45360D01*
X51615Y-45424D01*
X51686Y-45424D01*
X52173Y-45911D01*
X52084Y-45875D01*
X51915Y-45874D01*
X51759Y-45939D01*
X51639Y-46058D01*
X51575Y-46215D01*
X51575Y-46274D01*
X51491Y-46189D01*
X51334Y-46125D01*
X51165Y-46124D01*
X51009Y-46189D01*
X50889Y-46308D01*
X50825Y-46465D01*
X50824Y-46634D01*
X50889Y-46790D01*
X51008Y-46910D01*
X51165Y-46974D01*
X51334Y-46975D01*
X51490Y-46910D01*
X51610Y-46791D01*
X51674Y-46634D01*
X51674Y-46575D01*
X51758Y-46660D01*
X51915Y-46724D01*
X52084Y-46725D01*
X52240Y-46660D01*
X52360Y-46541D01*
X52424Y-46384D01*
X52425Y-46287D01*
X52515Y-46324D01*
X52684Y-46325D01*
X52840Y-46260D01*
X52960Y-46141D01*
X53024Y-45984D01*
X53025Y-45815D01*
X53025Y-60753D01*
X51898Y-60753D01*
X51898Y-49878D01*
X51807Y-49656D01*
X51637Y-49486D01*
X51425Y-49398D01*
X51425Y-47965D01*
X51360Y-47809D01*
X51241Y-47689D01*
X51084Y-47625D01*
X50915Y-47624D01*
X50759Y-47689D01*
X50639Y-47808D01*
X50575Y-47965D01*
X50574Y-48134D01*
X50639Y-48290D01*
X50758Y-48410D01*
X50915Y-48474D01*
X51084Y-48475D01*
X51240Y-48410D01*
X51360Y-48291D01*
X51424Y-48134D01*
X51425Y-47965D01*
X51425Y-49398D01*
X51415Y-49394D01*
X51174Y-49393D01*
X50952Y-49485D01*
X50794Y-49643D01*
X50637Y-49486D01*
X50415Y-49394D01*
X50375Y-49394D01*
X50375Y-47215D01*
X50375Y-43115D01*
X50310Y-42959D01*
X50191Y-42839D01*
X50034Y-42775D01*
X49865Y-42774D01*
X49709Y-42839D01*
X49589Y-42958D01*
X49575Y-42994D01*
X49560Y-42959D01*
X49510Y-42908D01*
X49510Y-39591D01*
X49560Y-39541D01*
X49624Y-39384D01*
X49625Y-39215D01*
X49560Y-39059D01*
X49441Y-38939D01*
X49425Y-38933D01*
X49425Y-31565D01*
X49360Y-31409D01*
X49241Y-31289D01*
X49084Y-31225D01*
X48915Y-31224D01*
X48759Y-31289D01*
X48725Y-31323D01*
X48725Y-27365D01*
X48660Y-27209D01*
X48541Y-27089D01*
X48384Y-27025D01*
X48376Y-27025D01*
X48410Y-26991D01*
X48474Y-26834D01*
X48475Y-26665D01*
X48410Y-26509D01*
X48291Y-26389D01*
X48134Y-26325D01*
X47965Y-26324D01*
X47809Y-26389D01*
X47689Y-26508D01*
X47625Y-26665D01*
X47624Y-26834D01*
X47689Y-26990D01*
X47808Y-27110D01*
X47965Y-27174D01*
X47973Y-27174D01*
X47939Y-27208D01*
X47875Y-27365D01*
X47874Y-27534D01*
X47939Y-27690D01*
X48058Y-27810D01*
X48215Y-27874D01*
X48384Y-27875D01*
X48540Y-27810D01*
X48660Y-27691D01*
X48724Y-27534D01*
X48725Y-27365D01*
X48725Y-31323D01*
X48639Y-31408D01*
X48575Y-31565D01*
X48574Y-31734D01*
X48639Y-31890D01*
X48758Y-32010D01*
X48915Y-32074D01*
X49084Y-32075D01*
X49240Y-32010D01*
X49360Y-31891D01*
X49424Y-31734D01*
X49425Y-31565D01*
X49425Y-38933D01*
X49284Y-38875D01*
X49147Y-38874D01*
X49147Y-34345D01*
X49137Y-34104D01*
X49064Y-33929D01*
X48963Y-33895D01*
X48893Y-33966D01*
X48893Y-33825D01*
X48859Y-33724D01*
X48633Y-33641D01*
X48425Y-33650D01*
X48425Y-31565D01*
X48360Y-31409D01*
X48241Y-31289D01*
X48084Y-31225D01*
X47915Y-31224D01*
X47759Y-31289D01*
X47725Y-31323D01*
X47725Y-27365D01*
X47660Y-27209D01*
X47541Y-27089D01*
X47384Y-27025D01*
X47215Y-27024D01*
X47059Y-27089D01*
X46939Y-27208D01*
X46875Y-27365D01*
X46874Y-27534D01*
X46939Y-27690D01*
X47058Y-27810D01*
X47215Y-27874D01*
X47384Y-27875D01*
X47540Y-27810D01*
X47660Y-27691D01*
X47724Y-27534D01*
X47725Y-27365D01*
X47725Y-31323D01*
X47639Y-31408D01*
X47575Y-31565D01*
X47574Y-31734D01*
X47639Y-31890D01*
X47686Y-31937D01*
X47559Y-31989D01*
X47439Y-32108D01*
X47375Y-32265D01*
X47374Y-32434D01*
X47439Y-32590D01*
X47558Y-32710D01*
X47715Y-32774D01*
X47884Y-32775D01*
X48040Y-32710D01*
X48160Y-32591D01*
X48224Y-32434D01*
X48225Y-32265D01*
X48160Y-32109D01*
X48113Y-32062D01*
X48240Y-32010D01*
X48360Y-31891D01*
X48424Y-31734D01*
X48425Y-31565D01*
X48425Y-33650D01*
X48393Y-33651D01*
X48218Y-33724D01*
X48184Y-33825D01*
X48538Y-34179D01*
X48893Y-33825D01*
X48893Y-33966D01*
X48609Y-34250D01*
X48963Y-34604D01*
X49064Y-34570D01*
X49147Y-34345D01*
X49147Y-38874D01*
X49115Y-38874D01*
X48959Y-38939D01*
X48893Y-39005D01*
X48893Y-34675D01*
X48538Y-34321D01*
X48467Y-34391D01*
X48467Y-34250D01*
X48113Y-33895D01*
X48054Y-33915D01*
X48051Y-33908D01*
X47881Y-33738D01*
X47659Y-33646D01*
X47418Y-33645D01*
X47196Y-33737D01*
X47026Y-33907D01*
X46934Y-34129D01*
X46934Y-34370D01*
X47025Y-34592D01*
X47195Y-34762D01*
X47417Y-34854D01*
X47658Y-34854D01*
X47880Y-34763D01*
X48050Y-34593D01*
X48054Y-34584D01*
X48113Y-34604D01*
X48467Y-34250D01*
X48467Y-34391D01*
X48184Y-34675D01*
X48218Y-34776D01*
X48443Y-34859D01*
X48684Y-34849D01*
X48859Y-34776D01*
X48893Y-34675D01*
X48893Y-39005D01*
X48839Y-39058D01*
X48775Y-39215D01*
X48774Y-39384D01*
X48839Y-39540D01*
X48890Y-39591D01*
X48890Y-40046D01*
X48881Y-40037D01*
X48659Y-39945D01*
X48418Y-39945D01*
X48196Y-40036D01*
X48038Y-40194D01*
X47881Y-40037D01*
X47659Y-39945D01*
X47418Y-39945D01*
X47196Y-40036D01*
X47026Y-40206D01*
X46934Y-40428D01*
X46934Y-40669D01*
X47025Y-40891D01*
X47195Y-41061D01*
X47417Y-41153D01*
X47658Y-41154D01*
X47880Y-41062D01*
X48038Y-40904D01*
X48195Y-41061D01*
X48417Y-41153D01*
X48658Y-41154D01*
X48880Y-41062D01*
X48890Y-41052D01*
X48890Y-42908D01*
X48839Y-42958D01*
X48775Y-43115D01*
X48774Y-43284D01*
X48839Y-43440D01*
X48958Y-43560D01*
X49115Y-43624D01*
X49284Y-43625D01*
X49440Y-43560D01*
X49560Y-43441D01*
X49574Y-43405D01*
X49589Y-43440D01*
X49708Y-43560D01*
X49865Y-43624D01*
X50034Y-43625D01*
X50190Y-43560D01*
X50310Y-43441D01*
X50374Y-43284D01*
X50375Y-43115D01*
X50375Y-47215D01*
X50310Y-47059D01*
X50191Y-46939D01*
X50034Y-46875D01*
X49865Y-46874D01*
X49709Y-46939D01*
X49589Y-47058D01*
X49525Y-47215D01*
X49524Y-47384D01*
X49589Y-47540D01*
X49708Y-47660D01*
X49865Y-47724D01*
X50034Y-47725D01*
X50190Y-47660D01*
X50310Y-47541D01*
X50374Y-47384D01*
X50375Y-47215D01*
X50375Y-49394D01*
X50174Y-49393D01*
X49952Y-49485D01*
X49782Y-49655D01*
X49690Y-49877D01*
X49690Y-50118D01*
X49781Y-50340D01*
X49951Y-50510D01*
X50173Y-50602D01*
X50414Y-50602D01*
X50636Y-50511D01*
X50794Y-50353D01*
X50951Y-50510D01*
X51173Y-50602D01*
X51414Y-50602D01*
X51636Y-50511D01*
X51806Y-50341D01*
X51898Y-50119D01*
X51898Y-49878D01*
X51898Y-60753D01*
X49425Y-60753D01*
X49425Y-47215D01*
X49360Y-47059D01*
X49241Y-46939D01*
X49084Y-46875D01*
X48915Y-46874D01*
X48759Y-46939D01*
X48639Y-47058D01*
X48575Y-47215D01*
X48575Y-42315D01*
X48510Y-42159D01*
X48391Y-42039D01*
X48234Y-41975D01*
X48065Y-41974D01*
X47909Y-42039D01*
X47789Y-42158D01*
X47725Y-42315D01*
X47724Y-42484D01*
X47789Y-42640D01*
X47908Y-42760D01*
X47955Y-42779D01*
X47809Y-42839D01*
X47689Y-42958D01*
X47625Y-43115D01*
X47624Y-43284D01*
X47689Y-43440D01*
X47808Y-43560D01*
X47965Y-43624D01*
X48134Y-43625D01*
X48290Y-43560D01*
X48410Y-43441D01*
X48474Y-43284D01*
X48475Y-43115D01*
X48410Y-42959D01*
X48291Y-42839D01*
X48244Y-42820D01*
X48390Y-42760D01*
X48510Y-42641D01*
X48574Y-42484D01*
X48575Y-42315D01*
X48575Y-47215D01*
X48574Y-47384D01*
X48639Y-47540D01*
X48758Y-47660D01*
X48915Y-47724D01*
X49084Y-47725D01*
X49240Y-47660D01*
X49360Y-47541D01*
X49424Y-47384D01*
X49425Y-47215D01*
X49425Y-60753D01*
X49147Y-60753D01*
X49147Y-50093D01*
X49137Y-49852D01*
X49064Y-49677D01*
X48963Y-49643D01*
X48893Y-49714D01*
X48893Y-49573D01*
X48859Y-49472D01*
X48633Y-49389D01*
X48393Y-49399D01*
X48375Y-49407D01*
X48375Y-47215D01*
X48310Y-47059D01*
X48191Y-46939D01*
X48034Y-46875D01*
X47865Y-46874D01*
X47709Y-46939D01*
X47589Y-47058D01*
X47525Y-47215D01*
X47524Y-47384D01*
X47589Y-47540D01*
X47700Y-47651D01*
X47609Y-47689D01*
X47489Y-47808D01*
X47425Y-47965D01*
X47424Y-48134D01*
X47489Y-48290D01*
X47608Y-48410D01*
X47765Y-48474D01*
X47934Y-48475D01*
X48090Y-48410D01*
X48210Y-48291D01*
X48274Y-48134D01*
X48275Y-47965D01*
X48210Y-47809D01*
X48099Y-47698D01*
X48190Y-47660D01*
X48310Y-47541D01*
X48374Y-47384D01*
X48375Y-47215D01*
X48375Y-49407D01*
X48218Y-49472D01*
X48184Y-49573D01*
X48538Y-49927D01*
X48893Y-49573D01*
X48893Y-49714D01*
X48609Y-49998D01*
X48963Y-50352D01*
X49064Y-50318D01*
X49147Y-50093D01*
X49147Y-60753D01*
X48893Y-60753D01*
X48893Y-50423D01*
X48538Y-50069D01*
X48467Y-50139D01*
X48467Y-49998D01*
X48113Y-49643D01*
X48054Y-49663D01*
X48051Y-49656D01*
X47881Y-49486D01*
X47659Y-49394D01*
X47418Y-49393D01*
X47196Y-49485D01*
X47026Y-49655D01*
X46934Y-49877D01*
X46934Y-50118D01*
X47025Y-50340D01*
X47195Y-50510D01*
X47417Y-50602D01*
X47658Y-50602D01*
X47880Y-50511D01*
X48050Y-50341D01*
X48054Y-50332D01*
X48113Y-50352D01*
X48467Y-49998D01*
X48467Y-50139D01*
X48184Y-50423D01*
X48218Y-50524D01*
X48443Y-50607D01*
X48684Y-50597D01*
X48859Y-50524D01*
X48893Y-50423D01*
X48893Y-60753D01*
X45925Y-60753D01*
X45925Y-30615D01*
X45860Y-30459D01*
X45781Y-30380D01*
X45781Y-18572D01*
X45716Y-18415D01*
X45707Y-18406D01*
X45716Y-18397D01*
X45781Y-18241D01*
X45781Y-18072D01*
X45716Y-17915D01*
X45707Y-17906D01*
X45716Y-17897D01*
X45781Y-17741D01*
X45781Y-17572D01*
X45716Y-17415D01*
X45597Y-17296D01*
X45441Y-17231D01*
X45272Y-17231D01*
X45115Y-17295D01*
X44996Y-17415D01*
X44931Y-17571D01*
X44931Y-17731D01*
X44922Y-17731D01*
X44765Y-17795D01*
X44681Y-17880D01*
X44681Y-17722D01*
X44616Y-17565D01*
X44497Y-17446D01*
X44341Y-17381D01*
X44172Y-17381D01*
X44015Y-17445D01*
X43896Y-17565D01*
X43831Y-17721D01*
X43831Y-17890D01*
X43895Y-18046D01*
X44015Y-18166D01*
X44171Y-18231D01*
X44340Y-18231D01*
X44496Y-18166D01*
X44581Y-18082D01*
X44581Y-18240D01*
X44645Y-18396D01*
X44655Y-18406D01*
X44646Y-18415D01*
X44581Y-18571D01*
X44581Y-18740D01*
X44645Y-18896D01*
X44765Y-19016D01*
X44921Y-19081D01*
X45090Y-19081D01*
X45181Y-19043D01*
X45271Y-19081D01*
X45440Y-19081D01*
X45596Y-19016D01*
X45716Y-18897D01*
X45781Y-18741D01*
X45781Y-18572D01*
X45781Y-30380D01*
X45741Y-30339D01*
X45584Y-30275D01*
X45513Y-30275D01*
X44981Y-29742D01*
X44981Y-19522D01*
X44916Y-19365D01*
X44797Y-19246D01*
X44641Y-19181D01*
X44472Y-19181D01*
X44315Y-19245D01*
X44256Y-19305D01*
X44197Y-19246D01*
X44041Y-19181D01*
X43872Y-19181D01*
X43715Y-19245D01*
X43596Y-19365D01*
X43531Y-19521D01*
X43531Y-19690D01*
X43595Y-19846D01*
X43715Y-19966D01*
X43871Y-20031D01*
X44040Y-20031D01*
X44196Y-19966D01*
X44256Y-19907D01*
X44315Y-19966D01*
X44471Y-20031D01*
X44640Y-20031D01*
X44796Y-19966D01*
X44916Y-19847D01*
X44981Y-19691D01*
X44981Y-19522D01*
X44981Y-29742D01*
X43725Y-28486D01*
X43725Y-28415D01*
X43660Y-28259D01*
X43541Y-28139D01*
X43384Y-28075D01*
X43215Y-28074D01*
X43059Y-28139D01*
X42939Y-28258D01*
X42875Y-28415D01*
X42874Y-28584D01*
X42939Y-28740D01*
X43058Y-28860D01*
X43215Y-28924D01*
X43286Y-28924D01*
X45074Y-30713D01*
X45074Y-30784D01*
X45139Y-30940D01*
X45258Y-31060D01*
X45415Y-31124D01*
X45584Y-31125D01*
X45740Y-31060D01*
X45860Y-30941D01*
X45924Y-30784D01*
X45925Y-30615D01*
X45925Y-60753D01*
X44925Y-60753D01*
X44925Y-35515D01*
X44860Y-35359D01*
X44741Y-35239D01*
X44584Y-35175D01*
X44415Y-35174D01*
X44259Y-35239D01*
X44174Y-35323D01*
X44091Y-35239D01*
X43934Y-35175D01*
X43765Y-35174D01*
X43609Y-35239D01*
X43550Y-35298D01*
X43491Y-35239D01*
X43334Y-35175D01*
X43165Y-35174D01*
X43009Y-35239D01*
X42889Y-35358D01*
X42825Y-35515D01*
X42825Y-35586D01*
X40936Y-37474D01*
X40865Y-37474D01*
X40709Y-37539D01*
X40589Y-37658D01*
X40525Y-37815D01*
X40524Y-37984D01*
X40589Y-38140D01*
X40708Y-38260D01*
X40865Y-38324D01*
X41034Y-38325D01*
X41190Y-38260D01*
X41310Y-38141D01*
X41374Y-37984D01*
X41374Y-37913D01*
X41954Y-37333D01*
X41969Y-37370D01*
X42088Y-37490D01*
X42245Y-37554D01*
X42414Y-37555D01*
X42570Y-37490D01*
X42630Y-37431D01*
X42708Y-37510D01*
X42865Y-37574D01*
X43034Y-37575D01*
X43190Y-37510D01*
X43310Y-37391D01*
X43374Y-37234D01*
X43374Y-37163D01*
X44513Y-36025D01*
X44584Y-36025D01*
X44740Y-35960D01*
X44860Y-35841D01*
X44924Y-35684D01*
X44925Y-35515D01*
X44925Y-60753D01*
X40655Y-60753D01*
X40655Y-41945D01*
X40590Y-41789D01*
X40471Y-41669D01*
X40314Y-41605D01*
X40243Y-41605D01*
X40025Y-41386D01*
X40025Y-25415D01*
X39960Y-25259D01*
X39841Y-25139D01*
X39684Y-25075D01*
X39515Y-25074D01*
X39359Y-25139D01*
X39239Y-25258D01*
X39175Y-25415D01*
X39174Y-25584D01*
X39239Y-25740D01*
X39358Y-25860D01*
X39515Y-25924D01*
X39684Y-25925D01*
X39840Y-25860D01*
X39960Y-25741D01*
X40024Y-25584D01*
X40025Y-25415D01*
X40025Y-41386D01*
X39905Y-41266D01*
X39905Y-41195D01*
X39840Y-41039D01*
X39725Y-40923D01*
X39725Y-39315D01*
X39675Y-39194D01*
X39675Y-35215D01*
X39610Y-35059D01*
X39491Y-34939D01*
X39404Y-34903D01*
X39404Y-30280D01*
X39312Y-30058D01*
X39142Y-29887D01*
X38920Y-29795D01*
X38825Y-29795D01*
X38825Y-24815D01*
X38760Y-24659D01*
X38641Y-24539D01*
X38484Y-24475D01*
X38315Y-24474D01*
X38199Y-24522D01*
X38084Y-24475D01*
X37915Y-24474D01*
X37759Y-24539D01*
X37639Y-24658D01*
X37575Y-24815D01*
X37574Y-24984D01*
X37589Y-25018D01*
X37484Y-24975D01*
X37315Y-24974D01*
X37159Y-25039D01*
X37039Y-25158D01*
X36975Y-25315D01*
X36974Y-25473D01*
X36941Y-25439D01*
X36925Y-25433D01*
X36925Y-18315D01*
X36860Y-18159D01*
X36741Y-18039D01*
X36584Y-17975D01*
X36415Y-17974D01*
X36325Y-18012D01*
X36325Y-15315D01*
X36260Y-15159D01*
X36141Y-15039D01*
X35984Y-14975D01*
X35815Y-14974D01*
X35659Y-15039D01*
X35539Y-15158D01*
X35475Y-15315D01*
X35474Y-15484D01*
X35539Y-15640D01*
X35658Y-15760D01*
X35815Y-15824D01*
X35984Y-15825D01*
X36140Y-15760D01*
X36260Y-15641D01*
X36324Y-15484D01*
X36325Y-15315D01*
X36325Y-18012D01*
X36259Y-18039D01*
X36139Y-18158D01*
X36075Y-18315D01*
X36074Y-18484D01*
X36139Y-18640D01*
X36258Y-18760D01*
X36415Y-18824D01*
X36584Y-18825D01*
X36740Y-18760D01*
X36860Y-18641D01*
X36924Y-18484D01*
X36925Y-18315D01*
X36925Y-25433D01*
X36784Y-25375D01*
X36615Y-25374D01*
X36459Y-25439D01*
X36339Y-25558D01*
X36275Y-25715D01*
X36274Y-25884D01*
X36339Y-26040D01*
X36458Y-26160D01*
X36615Y-26224D01*
X36784Y-26225D01*
X36940Y-26160D01*
X37050Y-26051D01*
X37158Y-26160D01*
X37315Y-26224D01*
X37484Y-26225D01*
X37640Y-26160D01*
X37760Y-26041D01*
X37824Y-25884D01*
X37825Y-25715D01*
X37777Y-25599D01*
X37824Y-25484D01*
X37825Y-25315D01*
X37810Y-25281D01*
X37915Y-25324D01*
X38084Y-25325D01*
X38200Y-25277D01*
X38315Y-25324D01*
X38484Y-25325D01*
X38640Y-25260D01*
X38760Y-25141D01*
X38824Y-24984D01*
X38825Y-24815D01*
X38825Y-29795D01*
X38680Y-29795D01*
X38458Y-29887D01*
X38299Y-30045D01*
X38142Y-29887D01*
X37920Y-29795D01*
X37680Y-29795D01*
X37458Y-29887D01*
X37287Y-30057D01*
X37195Y-30279D01*
X37195Y-30519D01*
X37287Y-30741D01*
X37457Y-30912D01*
X37679Y-31004D01*
X37919Y-31004D01*
X38141Y-30912D01*
X38300Y-30754D01*
X38457Y-30912D01*
X38679Y-31004D01*
X38919Y-31004D01*
X39141Y-30912D01*
X39312Y-30742D01*
X39404Y-30520D01*
X39404Y-30280D01*
X39404Y-34903D01*
X39334Y-34875D01*
X39165Y-34874D01*
X39009Y-34939D01*
X38889Y-35058D01*
X38825Y-35215D01*
X38824Y-35384D01*
X38889Y-35540D01*
X39008Y-35660D01*
X39165Y-35724D01*
X39334Y-35725D01*
X39490Y-35660D01*
X39610Y-35541D01*
X39674Y-35384D01*
X39675Y-35215D01*
X39675Y-39194D01*
X39660Y-39159D01*
X39541Y-39039D01*
X39384Y-38975D01*
X39215Y-38974D01*
X39059Y-39039D01*
X38939Y-39158D01*
X38875Y-39315D01*
X38874Y-39484D01*
X38939Y-39640D01*
X39058Y-39760D01*
X39215Y-39824D01*
X39384Y-39825D01*
X39540Y-39760D01*
X39660Y-39641D01*
X39724Y-39484D01*
X39725Y-39315D01*
X39725Y-40923D01*
X39721Y-40919D01*
X39564Y-40855D01*
X39395Y-40854D01*
X39239Y-40919D01*
X39119Y-41038D01*
X39055Y-41195D01*
X39054Y-41364D01*
X39119Y-41520D01*
X39238Y-41640D01*
X39395Y-41704D01*
X39466Y-41704D01*
X39804Y-42043D01*
X39804Y-42114D01*
X39869Y-42270D01*
X39988Y-42390D01*
X40145Y-42454D01*
X40314Y-42455D01*
X40470Y-42390D01*
X40590Y-42271D01*
X40654Y-42114D01*
X40655Y-41945D01*
X40655Y-60753D01*
X37075Y-60753D01*
X37075Y-40815D01*
X37010Y-40659D01*
X36891Y-40539D01*
X36875Y-40533D01*
X36875Y-34615D01*
X36810Y-34459D01*
X36691Y-34339D01*
X36625Y-34312D01*
X36625Y-31915D01*
X36560Y-31759D01*
X36441Y-31639D01*
X36325Y-31591D01*
X36325Y-28915D01*
X36260Y-28759D01*
X36141Y-28639D01*
X35984Y-28575D01*
X35815Y-28574D01*
X35659Y-28639D01*
X35539Y-28758D01*
X35475Y-28915D01*
X35474Y-29084D01*
X35539Y-29240D01*
X35658Y-29360D01*
X35815Y-29424D01*
X35984Y-29425D01*
X36140Y-29360D01*
X36260Y-29241D01*
X36324Y-29084D01*
X36325Y-28915D01*
X36325Y-31591D01*
X36284Y-31575D01*
X36115Y-31574D01*
X35959Y-31639D01*
X35839Y-31758D01*
X35775Y-31915D01*
X35774Y-32084D01*
X35839Y-32240D01*
X35958Y-32360D01*
X36115Y-32424D01*
X36284Y-32425D01*
X36440Y-32360D01*
X36560Y-32241D01*
X36624Y-32084D01*
X36625Y-31915D01*
X36625Y-34312D01*
X36534Y-34275D01*
X36365Y-34274D01*
X36209Y-34339D01*
X36089Y-34458D01*
X36025Y-34615D01*
X36024Y-34784D01*
X36077Y-34911D01*
X36009Y-34939D01*
X35889Y-35058D01*
X35825Y-35215D01*
X35824Y-35384D01*
X35889Y-35540D01*
X36008Y-35660D01*
X36165Y-35724D01*
X36334Y-35725D01*
X36490Y-35660D01*
X36610Y-35541D01*
X36674Y-35384D01*
X36675Y-35215D01*
X36622Y-35088D01*
X36690Y-35060D01*
X36810Y-34941D01*
X36874Y-34784D01*
X36875Y-34615D01*
X36875Y-40533D01*
X36734Y-40475D01*
X36565Y-40474D01*
X36425Y-40533D01*
X36425Y-39315D01*
X36360Y-39159D01*
X36241Y-39039D01*
X36084Y-38975D01*
X35915Y-38974D01*
X35759Y-39039D01*
X35639Y-39158D01*
X35575Y-39315D01*
X35574Y-39484D01*
X35639Y-39640D01*
X35758Y-39760D01*
X35915Y-39824D01*
X36084Y-39825D01*
X36240Y-39760D01*
X36360Y-39641D01*
X36424Y-39484D01*
X36425Y-39315D01*
X36425Y-40533D01*
X36409Y-40539D01*
X36289Y-40658D01*
X36225Y-40815D01*
X36224Y-40984D01*
X36289Y-41140D01*
X36408Y-41260D01*
X36565Y-41324D01*
X36734Y-41325D01*
X36890Y-41260D01*
X37010Y-41141D01*
X37074Y-40984D01*
X37075Y-40815D01*
X37075Y-60753D01*
X35525Y-60753D01*
X35525Y-38615D01*
X35460Y-38459D01*
X35410Y-38408D01*
X35410Y-36391D01*
X35460Y-36341D01*
X35524Y-36184D01*
X35525Y-36015D01*
X35460Y-35859D01*
X35341Y-35739D01*
X35184Y-35675D01*
X35015Y-35674D01*
X34859Y-35739D01*
X34739Y-35858D01*
X34675Y-36015D01*
X34674Y-36184D01*
X34739Y-36340D01*
X34790Y-36391D01*
X34790Y-38408D01*
X34739Y-38458D01*
X34675Y-38615D01*
X34674Y-38784D01*
X34739Y-38940D01*
X34858Y-39060D01*
X35015Y-39124D01*
X35184Y-39125D01*
X35340Y-39060D01*
X35460Y-38941D01*
X35524Y-38784D01*
X35525Y-38615D01*
X35525Y-60753D01*
X33525Y-60753D01*
X33525Y-35315D01*
X33460Y-35159D01*
X33341Y-35039D01*
X33184Y-34975D01*
X33015Y-34974D01*
X32875Y-35033D01*
X32875Y-32315D01*
X32810Y-32159D01*
X32691Y-32039D01*
X32534Y-31975D01*
X32365Y-31974D01*
X32225Y-32033D01*
X32225Y-24415D01*
X32160Y-24259D01*
X32110Y-24208D01*
X32110Y-18691D01*
X32160Y-18641D01*
X32224Y-18484D01*
X32225Y-18315D01*
X32160Y-18159D01*
X32041Y-18039D01*
X31884Y-17975D01*
X31725Y-17974D01*
X31725Y-15315D01*
X31660Y-15159D01*
X31541Y-15039D01*
X31384Y-14975D01*
X31215Y-14974D01*
X31059Y-15039D01*
X30939Y-15158D01*
X30875Y-15315D01*
X30874Y-15484D01*
X30939Y-15640D01*
X31058Y-15760D01*
X31215Y-15824D01*
X31384Y-15825D01*
X31540Y-15760D01*
X31660Y-15641D01*
X31724Y-15484D01*
X31725Y-15315D01*
X31725Y-17974D01*
X31715Y-17974D01*
X31559Y-18039D01*
X31439Y-18158D01*
X31375Y-18315D01*
X31374Y-18484D01*
X31439Y-18640D01*
X31490Y-18691D01*
X31490Y-24208D01*
X31439Y-24258D01*
X31375Y-24415D01*
X31374Y-24584D01*
X31439Y-24740D01*
X31558Y-24860D01*
X31715Y-24924D01*
X31884Y-24925D01*
X32040Y-24860D01*
X32160Y-24741D01*
X32224Y-24584D01*
X32225Y-24415D01*
X32225Y-32033D01*
X32209Y-32039D01*
X32089Y-32158D01*
X32025Y-32315D01*
X32024Y-32484D01*
X32089Y-32640D01*
X32208Y-32760D01*
X32365Y-32824D01*
X32534Y-32825D01*
X32690Y-32760D01*
X32810Y-32641D01*
X32874Y-32484D01*
X32875Y-32315D01*
X32875Y-35033D01*
X32859Y-35039D01*
X32739Y-35158D01*
X32675Y-35315D01*
X32674Y-35484D01*
X32739Y-35640D01*
X32858Y-35760D01*
X33015Y-35824D01*
X33184Y-35825D01*
X33340Y-35760D01*
X33460Y-35641D01*
X33524Y-35484D01*
X33525Y-35315D01*
X33525Y-60753D01*
X32225Y-60753D01*
X32225Y-36015D01*
X32160Y-35859D01*
X32041Y-35739D01*
X31884Y-35675D01*
X31715Y-35674D01*
X31559Y-35739D01*
X31439Y-35858D01*
X31375Y-36015D01*
X31374Y-36184D01*
X31439Y-36340D01*
X31558Y-36460D01*
X31715Y-36524D01*
X31884Y-36525D01*
X32040Y-36460D01*
X32160Y-36341D01*
X32224Y-36184D01*
X32225Y-36015D01*
X32225Y-60753D01*
X31425Y-60753D01*
X31425Y-39115D01*
X31360Y-38959D01*
X31241Y-38839D01*
X31084Y-38775D01*
X30915Y-38774D01*
X30759Y-38839D01*
X30639Y-38958D01*
X30575Y-39115D01*
X30574Y-39284D01*
X30639Y-39440D01*
X30758Y-39560D01*
X30915Y-39624D01*
X31084Y-39625D01*
X31240Y-39560D01*
X31360Y-39441D01*
X31424Y-39284D01*
X31425Y-39115D01*
X31425Y-60753D01*
X28790Y-60753D01*
X28790Y-14049D01*
X56249Y-14049D01*
X56249Y-15505D01*
X56098Y-15354D01*
X55840Y-15247D01*
X55560Y-15247D01*
X55302Y-15353D01*
X55104Y-15551D01*
X54997Y-15809D01*
X54997Y-16089D01*
X55103Y-16347D01*
X55301Y-16545D01*
X55559Y-16652D01*
X55839Y-16652D01*
X56097Y-16546D01*
X56249Y-16394D01*
X56249Y-60753D01*
M02*
