M48
;DRILL file {Pcbnew (2013-04-01 BZR 4058)-product} date Tue 02 Sep 2014 09:50:18 AM PDT
;FORMAT={-:-/ absolute / inch / decimal}
FMAT,2
INCH,TZ
T1C0.039
T2C0.134
%
G90
G05
M72
T1
X0.46Y-0.29
X0.46Y-0.39
X0.46Y-0.49
X0.46Y-0.59
X0.46Y-0.69
X0.46Y-0.79
X0.46Y-0.89
X0.46Y-0.99
X0.46Y-1.09
X0.46Y-1.19
X0.56Y-0.29
X0.56Y-0.39
X0.56Y-0.49
X0.56Y-0.59
X0.56Y-0.69
X0.56Y-0.79
X0.56Y-0.89
X0.56Y-0.99
X0.56Y-1.09
X0.56Y-1.19
T2
X0.25Y-0.25
X0.25Y-1.75
X1.75Y-0.25
X1.75Y-1.74
T0
M30
