%FSLAX34Y34*%
G04 Gerber Fmt 3.4, Leading zero omitted, Abs format*
G04 (created by PCBNEW (2013-04-01 BZR 4058)-product) date Tue 02 Sep 2014 09:50:09 AM PDT*
%MOIN*%
G01*
G70*
G90*
G04 APERTURE LIST*
%ADD10C,0.005906*%
%ADD11C,0.054370*%
%ADD12C,0.133900*%
%ADD13C,0.010000*%
G04 APERTURE END LIST*
G54D10*
G54D11*
X5600Y-11900D03*
X4600Y-11900D03*
X5600Y-10900D03*
X4600Y-10900D03*
X5600Y-9900D03*
X4600Y-9900D03*
X5600Y-8900D03*
X4600Y-8900D03*
X5600Y-7900D03*
X4600Y-7900D03*
X5600Y-6900D03*
X4600Y-6900D03*
X5600Y-5900D03*
X4600Y-5900D03*
X5600Y-4900D03*
X4600Y-4900D03*
X5600Y-3900D03*
X4600Y-3900D03*
X5600Y-2900D03*
X4600Y-2900D03*
G54D12*
X17500Y-2500D03*
X2500Y-2500D03*
X17500Y-17400D03*
X2500Y-17500D03*
G54D10*
G36*
X5443Y-3400D02*
X5304Y-3457D01*
X5157Y-3604D01*
X5099Y-3743D01*
X5042Y-3604D01*
X4895Y-3457D01*
X4756Y-3399D01*
X4895Y-3342D01*
X5042Y-3195D01*
X5100Y-3056D01*
X5157Y-3195D01*
X5304Y-3342D01*
X5443Y-3400D01*
X5443Y-3400D01*
G37*
G54D13*
X5443Y-3400D02*
X5304Y-3457D01*
X5157Y-3604D01*
X5099Y-3743D01*
X5042Y-3604D01*
X4895Y-3457D01*
X4756Y-3399D01*
X4895Y-3342D01*
X5042Y-3195D01*
X5100Y-3056D01*
X5157Y-3195D01*
X5304Y-3342D01*
X5443Y-3400D01*
G54D10*
G36*
X5443Y-4400D02*
X5304Y-4457D01*
X5157Y-4604D01*
X5099Y-4743D01*
X5042Y-4604D01*
X4895Y-4457D01*
X4756Y-4399D01*
X4895Y-4342D01*
X5042Y-4195D01*
X5100Y-4056D01*
X5157Y-4195D01*
X5304Y-4342D01*
X5443Y-4400D01*
X5443Y-4400D01*
G37*
G54D13*
X5443Y-4400D02*
X5304Y-4457D01*
X5157Y-4604D01*
X5099Y-4743D01*
X5042Y-4604D01*
X4895Y-4457D01*
X4756Y-4399D01*
X4895Y-4342D01*
X5042Y-4195D01*
X5100Y-4056D01*
X5157Y-4195D01*
X5304Y-4342D01*
X5443Y-4400D01*
G54D10*
G36*
X5443Y-5400D02*
X5304Y-5457D01*
X5157Y-5604D01*
X5099Y-5743D01*
X5042Y-5604D01*
X4895Y-5457D01*
X4756Y-5399D01*
X4895Y-5342D01*
X5042Y-5195D01*
X5100Y-5056D01*
X5157Y-5195D01*
X5304Y-5342D01*
X5443Y-5400D01*
X5443Y-5400D01*
G37*
G54D13*
X5443Y-5400D02*
X5304Y-5457D01*
X5157Y-5604D01*
X5099Y-5743D01*
X5042Y-5604D01*
X4895Y-5457D01*
X4756Y-5399D01*
X4895Y-5342D01*
X5042Y-5195D01*
X5100Y-5056D01*
X5157Y-5195D01*
X5304Y-5342D01*
X5443Y-5400D01*
G54D10*
G36*
X5443Y-6400D02*
X5304Y-6457D01*
X5157Y-6604D01*
X5099Y-6743D01*
X5042Y-6604D01*
X4895Y-6457D01*
X4756Y-6399D01*
X4895Y-6342D01*
X5042Y-6195D01*
X5100Y-6056D01*
X5157Y-6195D01*
X5304Y-6342D01*
X5443Y-6400D01*
X5443Y-6400D01*
G37*
G54D13*
X5443Y-6400D02*
X5304Y-6457D01*
X5157Y-6604D01*
X5099Y-6743D01*
X5042Y-6604D01*
X4895Y-6457D01*
X4756Y-6399D01*
X4895Y-6342D01*
X5042Y-6195D01*
X5100Y-6056D01*
X5157Y-6195D01*
X5304Y-6342D01*
X5443Y-6400D01*
G54D10*
G36*
X5443Y-7400D02*
X5304Y-7457D01*
X5157Y-7604D01*
X5099Y-7743D01*
X5042Y-7604D01*
X4895Y-7457D01*
X4756Y-7399D01*
X4895Y-7342D01*
X5042Y-7195D01*
X5100Y-7056D01*
X5157Y-7195D01*
X5304Y-7342D01*
X5443Y-7400D01*
X5443Y-7400D01*
G37*
G54D13*
X5443Y-7400D02*
X5304Y-7457D01*
X5157Y-7604D01*
X5099Y-7743D01*
X5042Y-7604D01*
X4895Y-7457D01*
X4756Y-7399D01*
X4895Y-7342D01*
X5042Y-7195D01*
X5100Y-7056D01*
X5157Y-7195D01*
X5304Y-7342D01*
X5443Y-7400D01*
G54D10*
G36*
X5443Y-8400D02*
X5304Y-8457D01*
X5157Y-8604D01*
X5099Y-8743D01*
X5042Y-8604D01*
X4895Y-8457D01*
X4756Y-8399D01*
X4895Y-8342D01*
X5042Y-8195D01*
X5100Y-8056D01*
X5157Y-8195D01*
X5304Y-8342D01*
X5443Y-8400D01*
X5443Y-8400D01*
G37*
G54D13*
X5443Y-8400D02*
X5304Y-8457D01*
X5157Y-8604D01*
X5099Y-8743D01*
X5042Y-8604D01*
X4895Y-8457D01*
X4756Y-8399D01*
X4895Y-8342D01*
X5042Y-8195D01*
X5100Y-8056D01*
X5157Y-8195D01*
X5304Y-8342D01*
X5443Y-8400D01*
G54D10*
G36*
X5443Y-9400D02*
X5304Y-9457D01*
X5157Y-9604D01*
X5099Y-9743D01*
X5042Y-9604D01*
X4895Y-9457D01*
X4756Y-9399D01*
X4895Y-9342D01*
X5042Y-9195D01*
X5100Y-9056D01*
X5157Y-9195D01*
X5304Y-9342D01*
X5443Y-9400D01*
X5443Y-9400D01*
G37*
G54D13*
X5443Y-9400D02*
X5304Y-9457D01*
X5157Y-9604D01*
X5099Y-9743D01*
X5042Y-9604D01*
X4895Y-9457D01*
X4756Y-9399D01*
X4895Y-9342D01*
X5042Y-9195D01*
X5100Y-9056D01*
X5157Y-9195D01*
X5304Y-9342D01*
X5443Y-9400D01*
G54D10*
G36*
X5443Y-10400D02*
X5304Y-10457D01*
X5157Y-10604D01*
X5099Y-10743D01*
X5042Y-10604D01*
X4895Y-10457D01*
X4756Y-10399D01*
X4895Y-10342D01*
X5042Y-10195D01*
X5100Y-10056D01*
X5157Y-10195D01*
X5304Y-10342D01*
X5443Y-10400D01*
X5443Y-10400D01*
G37*
G54D13*
X5443Y-10400D02*
X5304Y-10457D01*
X5157Y-10604D01*
X5099Y-10743D01*
X5042Y-10604D01*
X4895Y-10457D01*
X4756Y-10399D01*
X4895Y-10342D01*
X5042Y-10195D01*
X5100Y-10056D01*
X5157Y-10195D01*
X5304Y-10342D01*
X5443Y-10400D01*
G54D10*
G36*
X5443Y-11400D02*
X5304Y-11457D01*
X5157Y-11604D01*
X5099Y-11743D01*
X5042Y-11604D01*
X4895Y-11457D01*
X4756Y-11399D01*
X4895Y-11342D01*
X5042Y-11195D01*
X5100Y-11056D01*
X5157Y-11195D01*
X5304Y-11342D01*
X5443Y-11400D01*
X5443Y-11400D01*
G37*
G54D13*
X5443Y-11400D02*
X5304Y-11457D01*
X5157Y-11604D01*
X5099Y-11743D01*
X5042Y-11604D01*
X4895Y-11457D01*
X4756Y-11399D01*
X4895Y-11342D01*
X5042Y-11195D01*
X5100Y-11056D01*
X5157Y-11195D01*
X5304Y-11342D01*
X5443Y-11400D01*
G54D10*
G36*
X19700Y-19700D02*
X18421Y-19700D01*
X18421Y-17569D01*
X18421Y-2669D01*
X18419Y-2493D01*
X18419Y-2317D01*
X18416Y-2311D01*
X18416Y-2304D01*
X18286Y-1990D01*
X18283Y-1988D01*
X18279Y-1979D01*
X18021Y-1720D01*
X18011Y-1716D01*
X18009Y-1713D01*
X17846Y-1648D01*
X17683Y-1580D01*
X17676Y-1580D01*
X17669Y-1578D01*
X17493Y-1580D01*
X17317Y-1580D01*
X17311Y-1583D01*
X17304Y-1583D01*
X16990Y-1713D01*
X16988Y-1716D01*
X16979Y-1720D01*
X16720Y-1978D01*
X16716Y-1988D01*
X16713Y-1990D01*
X16648Y-2153D01*
X16580Y-2316D01*
X16580Y-2323D01*
X16578Y-2330D01*
X16580Y-2506D01*
X16580Y-2682D01*
X16583Y-2688D01*
X16583Y-2695D01*
X16713Y-3009D01*
X16716Y-3011D01*
X16720Y-3020D01*
X16978Y-3279D01*
X16988Y-3283D01*
X16990Y-3286D01*
X17153Y-3351D01*
X17316Y-3419D01*
X17323Y-3419D01*
X17330Y-3421D01*
X17506Y-3419D01*
X17682Y-3419D01*
X17688Y-3416D01*
X17695Y-3416D01*
X18009Y-3286D01*
X18011Y-3283D01*
X18020Y-3279D01*
X18279Y-3021D01*
X18283Y-3011D01*
X18286Y-3009D01*
X18351Y-2846D01*
X18419Y-2683D01*
X18419Y-2676D01*
X18421Y-2669D01*
X18421Y-17569D01*
X18419Y-17393D01*
X18419Y-17217D01*
X18416Y-17211D01*
X18416Y-17204D01*
X18286Y-16890D01*
X18283Y-16888D01*
X18279Y-16879D01*
X18021Y-16620D01*
X18011Y-16616D01*
X18009Y-16613D01*
X17846Y-16548D01*
X17683Y-16480D01*
X17676Y-16480D01*
X17669Y-16478D01*
X17493Y-16480D01*
X17317Y-16480D01*
X17311Y-16483D01*
X17304Y-16483D01*
X16990Y-16613D01*
X16988Y-16616D01*
X16979Y-16620D01*
X16720Y-16878D01*
X16716Y-16888D01*
X16713Y-16890D01*
X16648Y-17053D01*
X16580Y-17216D01*
X16580Y-17223D01*
X16578Y-17230D01*
X16580Y-17406D01*
X16580Y-17582D01*
X16583Y-17588D01*
X16583Y-17595D01*
X16713Y-17909D01*
X16716Y-17911D01*
X16720Y-17920D01*
X16978Y-18179D01*
X16988Y-18183D01*
X16990Y-18186D01*
X17153Y-18251D01*
X17316Y-18319D01*
X17323Y-18319D01*
X17330Y-18321D01*
X17506Y-18319D01*
X17682Y-18319D01*
X17688Y-18316D01*
X17695Y-18316D01*
X18009Y-18186D01*
X18011Y-18183D01*
X18020Y-18179D01*
X18279Y-17921D01*
X18283Y-17911D01*
X18286Y-17909D01*
X18351Y-17746D01*
X18419Y-17583D01*
X18419Y-17576D01*
X18421Y-17569D01*
X18421Y-19700D01*
X6121Y-19700D01*
X6121Y-11796D01*
X6042Y-11604D01*
X5895Y-11457D01*
X5756Y-11399D01*
X5895Y-11342D01*
X6042Y-11195D01*
X6121Y-11004D01*
X6121Y-10796D01*
X6042Y-10604D01*
X5895Y-10457D01*
X5756Y-10399D01*
X5895Y-10342D01*
X6042Y-10195D01*
X6121Y-10004D01*
X6121Y-9796D01*
X6042Y-9604D01*
X5895Y-9457D01*
X5756Y-9399D01*
X5895Y-9342D01*
X6042Y-9195D01*
X6121Y-9004D01*
X6121Y-8796D01*
X6042Y-8604D01*
X5895Y-8457D01*
X5756Y-8399D01*
X5895Y-8342D01*
X6042Y-8195D01*
X6121Y-8004D01*
X6121Y-7796D01*
X6042Y-7604D01*
X5895Y-7457D01*
X5756Y-7399D01*
X5895Y-7342D01*
X6042Y-7195D01*
X6121Y-7004D01*
X6121Y-6796D01*
X6042Y-6604D01*
X5895Y-6457D01*
X5756Y-6399D01*
X5895Y-6342D01*
X6042Y-6195D01*
X6121Y-6004D01*
X6121Y-5796D01*
X6042Y-5604D01*
X5895Y-5457D01*
X5756Y-5399D01*
X5895Y-5342D01*
X6042Y-5195D01*
X6121Y-5004D01*
X6121Y-4796D01*
X6042Y-4604D01*
X5895Y-4457D01*
X5756Y-4399D01*
X5895Y-4342D01*
X6042Y-4195D01*
X6121Y-4004D01*
X6121Y-3796D01*
X6042Y-3604D01*
X5895Y-3457D01*
X5756Y-3399D01*
X5895Y-3342D01*
X6042Y-3195D01*
X6121Y-3004D01*
X6121Y-2796D01*
X6042Y-2604D01*
X5895Y-2457D01*
X5704Y-2378D01*
X5496Y-2378D01*
X5304Y-2457D01*
X5157Y-2604D01*
X5099Y-2743D01*
X5042Y-2604D01*
X4895Y-2457D01*
X4704Y-2378D01*
X4496Y-2378D01*
X4304Y-2457D01*
X4157Y-2604D01*
X4078Y-2795D01*
X4078Y-3003D01*
X4157Y-3195D01*
X4304Y-3342D01*
X4443Y-3400D01*
X4304Y-3457D01*
X4157Y-3604D01*
X4078Y-3795D01*
X4078Y-4003D01*
X4157Y-4195D01*
X4304Y-4342D01*
X4443Y-4400D01*
X4304Y-4457D01*
X4157Y-4604D01*
X4078Y-4795D01*
X4078Y-5003D01*
X4157Y-5195D01*
X4304Y-5342D01*
X4443Y-5400D01*
X4304Y-5457D01*
X4157Y-5604D01*
X4078Y-5795D01*
X4078Y-6003D01*
X4157Y-6195D01*
X4304Y-6342D01*
X4443Y-6400D01*
X4304Y-6457D01*
X4157Y-6604D01*
X4078Y-6795D01*
X4078Y-7003D01*
X4157Y-7195D01*
X4304Y-7342D01*
X4443Y-7400D01*
X4304Y-7457D01*
X4157Y-7604D01*
X4078Y-7795D01*
X4078Y-8003D01*
X4157Y-8195D01*
X4304Y-8342D01*
X4443Y-8400D01*
X4304Y-8457D01*
X4157Y-8604D01*
X4078Y-8795D01*
X4078Y-9003D01*
X4157Y-9195D01*
X4304Y-9342D01*
X4443Y-9400D01*
X4304Y-9457D01*
X4157Y-9604D01*
X4078Y-9795D01*
X4078Y-10003D01*
X4157Y-10195D01*
X4304Y-10342D01*
X4443Y-10400D01*
X4304Y-10457D01*
X4157Y-10604D01*
X4078Y-10795D01*
X4078Y-11003D01*
X4157Y-11195D01*
X4304Y-11342D01*
X4443Y-11400D01*
X4304Y-11457D01*
X4157Y-11604D01*
X4078Y-11795D01*
X4078Y-12003D01*
X4157Y-12195D01*
X4304Y-12342D01*
X4495Y-12421D01*
X4703Y-12421D01*
X4895Y-12342D01*
X5042Y-12195D01*
X5100Y-12056D01*
X5157Y-12195D01*
X5304Y-12342D01*
X5495Y-12421D01*
X5703Y-12421D01*
X5895Y-12342D01*
X6042Y-12195D01*
X6121Y-12004D01*
X6121Y-11796D01*
X6121Y-19700D01*
X3421Y-19700D01*
X3421Y-17669D01*
X3421Y-2669D01*
X3419Y-2493D01*
X3419Y-2317D01*
X3416Y-2311D01*
X3416Y-2304D01*
X3286Y-1990D01*
X3283Y-1988D01*
X3279Y-1979D01*
X3021Y-1720D01*
X3011Y-1716D01*
X3009Y-1713D01*
X2846Y-1648D01*
X2683Y-1580D01*
X2676Y-1580D01*
X2669Y-1578D01*
X2493Y-1580D01*
X2317Y-1580D01*
X2311Y-1583D01*
X2304Y-1583D01*
X1990Y-1713D01*
X1988Y-1716D01*
X1979Y-1720D01*
X1720Y-1978D01*
X1716Y-1988D01*
X1713Y-1990D01*
X1648Y-2153D01*
X1580Y-2316D01*
X1580Y-2323D01*
X1578Y-2330D01*
X1580Y-2506D01*
X1580Y-2682D01*
X1583Y-2688D01*
X1583Y-2695D01*
X1713Y-3009D01*
X1716Y-3011D01*
X1720Y-3020D01*
X1978Y-3279D01*
X1988Y-3283D01*
X1990Y-3286D01*
X2153Y-3351D01*
X2316Y-3419D01*
X2323Y-3419D01*
X2330Y-3421D01*
X2506Y-3419D01*
X2682Y-3419D01*
X2688Y-3416D01*
X2695Y-3416D01*
X3009Y-3286D01*
X3011Y-3283D01*
X3020Y-3279D01*
X3279Y-3021D01*
X3283Y-3011D01*
X3286Y-3009D01*
X3351Y-2846D01*
X3419Y-2683D01*
X3419Y-2676D01*
X3421Y-2669D01*
X3421Y-17669D01*
X3419Y-17493D01*
X3419Y-17317D01*
X3416Y-17311D01*
X3416Y-17304D01*
X3286Y-16990D01*
X3283Y-16988D01*
X3279Y-16979D01*
X3021Y-16720D01*
X3011Y-16716D01*
X3009Y-16713D01*
X2846Y-16648D01*
X2683Y-16580D01*
X2676Y-16580D01*
X2669Y-16578D01*
X2493Y-16580D01*
X2317Y-16580D01*
X2311Y-16583D01*
X2304Y-16583D01*
X1990Y-16713D01*
X1988Y-16716D01*
X1979Y-16720D01*
X1720Y-16978D01*
X1716Y-16988D01*
X1713Y-16990D01*
X1648Y-17153D01*
X1580Y-17316D01*
X1580Y-17323D01*
X1578Y-17330D01*
X1580Y-17506D01*
X1580Y-17682D01*
X1583Y-17688D01*
X1583Y-17695D01*
X1713Y-18009D01*
X1716Y-18011D01*
X1720Y-18020D01*
X1978Y-18279D01*
X1988Y-18283D01*
X1990Y-18286D01*
X2153Y-18351D01*
X2316Y-18419D01*
X2323Y-18419D01*
X2330Y-18421D01*
X2506Y-18419D01*
X2682Y-18419D01*
X2688Y-18416D01*
X2695Y-18416D01*
X3009Y-18286D01*
X3011Y-18283D01*
X3020Y-18279D01*
X3279Y-18021D01*
X3283Y-18011D01*
X3286Y-18009D01*
X3351Y-17846D01*
X3419Y-17683D01*
X3419Y-17676D01*
X3421Y-17669D01*
X3421Y-19700D01*
X300Y-19700D01*
X300Y-300D01*
X19700Y-300D01*
X19700Y-19700D01*
X19700Y-19700D01*
G37*
G54D13*
X19700Y-19700D02*
X18421Y-19700D01*
X18421Y-17569D01*
X18421Y-2669D01*
X18419Y-2493D01*
X18419Y-2317D01*
X18416Y-2311D01*
X18416Y-2304D01*
X18286Y-1990D01*
X18283Y-1988D01*
X18279Y-1979D01*
X18021Y-1720D01*
X18011Y-1716D01*
X18009Y-1713D01*
X17846Y-1648D01*
X17683Y-1580D01*
X17676Y-1580D01*
X17669Y-1578D01*
X17493Y-1580D01*
X17317Y-1580D01*
X17311Y-1583D01*
X17304Y-1583D01*
X16990Y-1713D01*
X16988Y-1716D01*
X16979Y-1720D01*
X16720Y-1978D01*
X16716Y-1988D01*
X16713Y-1990D01*
X16648Y-2153D01*
X16580Y-2316D01*
X16580Y-2323D01*
X16578Y-2330D01*
X16580Y-2506D01*
X16580Y-2682D01*
X16583Y-2688D01*
X16583Y-2695D01*
X16713Y-3009D01*
X16716Y-3011D01*
X16720Y-3020D01*
X16978Y-3279D01*
X16988Y-3283D01*
X16990Y-3286D01*
X17153Y-3351D01*
X17316Y-3419D01*
X17323Y-3419D01*
X17330Y-3421D01*
X17506Y-3419D01*
X17682Y-3419D01*
X17688Y-3416D01*
X17695Y-3416D01*
X18009Y-3286D01*
X18011Y-3283D01*
X18020Y-3279D01*
X18279Y-3021D01*
X18283Y-3011D01*
X18286Y-3009D01*
X18351Y-2846D01*
X18419Y-2683D01*
X18419Y-2676D01*
X18421Y-2669D01*
X18421Y-17569D01*
X18419Y-17393D01*
X18419Y-17217D01*
X18416Y-17211D01*
X18416Y-17204D01*
X18286Y-16890D01*
X18283Y-16888D01*
X18279Y-16879D01*
X18021Y-16620D01*
X18011Y-16616D01*
X18009Y-16613D01*
X17846Y-16548D01*
X17683Y-16480D01*
X17676Y-16480D01*
X17669Y-16478D01*
X17493Y-16480D01*
X17317Y-16480D01*
X17311Y-16483D01*
X17304Y-16483D01*
X16990Y-16613D01*
X16988Y-16616D01*
X16979Y-16620D01*
X16720Y-16878D01*
X16716Y-16888D01*
X16713Y-16890D01*
X16648Y-17053D01*
X16580Y-17216D01*
X16580Y-17223D01*
X16578Y-17230D01*
X16580Y-17406D01*
X16580Y-17582D01*
X16583Y-17588D01*
X16583Y-17595D01*
X16713Y-17909D01*
X16716Y-17911D01*
X16720Y-17920D01*
X16978Y-18179D01*
X16988Y-18183D01*
X16990Y-18186D01*
X17153Y-18251D01*
X17316Y-18319D01*
X17323Y-18319D01*
X17330Y-18321D01*
X17506Y-18319D01*
X17682Y-18319D01*
X17688Y-18316D01*
X17695Y-18316D01*
X18009Y-18186D01*
X18011Y-18183D01*
X18020Y-18179D01*
X18279Y-17921D01*
X18283Y-17911D01*
X18286Y-17909D01*
X18351Y-17746D01*
X18419Y-17583D01*
X18419Y-17576D01*
X18421Y-17569D01*
X18421Y-19700D01*
X6121Y-19700D01*
X6121Y-11796D01*
X6042Y-11604D01*
X5895Y-11457D01*
X5756Y-11399D01*
X5895Y-11342D01*
X6042Y-11195D01*
X6121Y-11004D01*
X6121Y-10796D01*
X6042Y-10604D01*
X5895Y-10457D01*
X5756Y-10399D01*
X5895Y-10342D01*
X6042Y-10195D01*
X6121Y-10004D01*
X6121Y-9796D01*
X6042Y-9604D01*
X5895Y-9457D01*
X5756Y-9399D01*
X5895Y-9342D01*
X6042Y-9195D01*
X6121Y-9004D01*
X6121Y-8796D01*
X6042Y-8604D01*
X5895Y-8457D01*
X5756Y-8399D01*
X5895Y-8342D01*
X6042Y-8195D01*
X6121Y-8004D01*
X6121Y-7796D01*
X6042Y-7604D01*
X5895Y-7457D01*
X5756Y-7399D01*
X5895Y-7342D01*
X6042Y-7195D01*
X6121Y-7004D01*
X6121Y-6796D01*
X6042Y-6604D01*
X5895Y-6457D01*
X5756Y-6399D01*
X5895Y-6342D01*
X6042Y-6195D01*
X6121Y-6004D01*
X6121Y-5796D01*
X6042Y-5604D01*
X5895Y-5457D01*
X5756Y-5399D01*
X5895Y-5342D01*
X6042Y-5195D01*
X6121Y-5004D01*
X6121Y-4796D01*
X6042Y-4604D01*
X5895Y-4457D01*
X5756Y-4399D01*
X5895Y-4342D01*
X6042Y-4195D01*
X6121Y-4004D01*
X6121Y-3796D01*
X6042Y-3604D01*
X5895Y-3457D01*
X5756Y-3399D01*
X5895Y-3342D01*
X6042Y-3195D01*
X6121Y-3004D01*
X6121Y-2796D01*
X6042Y-2604D01*
X5895Y-2457D01*
X5704Y-2378D01*
X5496Y-2378D01*
X5304Y-2457D01*
X5157Y-2604D01*
X5099Y-2743D01*
X5042Y-2604D01*
X4895Y-2457D01*
X4704Y-2378D01*
X4496Y-2378D01*
X4304Y-2457D01*
X4157Y-2604D01*
X4078Y-2795D01*
X4078Y-3003D01*
X4157Y-3195D01*
X4304Y-3342D01*
X4443Y-3400D01*
X4304Y-3457D01*
X4157Y-3604D01*
X4078Y-3795D01*
X4078Y-4003D01*
X4157Y-4195D01*
X4304Y-4342D01*
X4443Y-4400D01*
X4304Y-4457D01*
X4157Y-4604D01*
X4078Y-4795D01*
X4078Y-5003D01*
X4157Y-5195D01*
X4304Y-5342D01*
X4443Y-5400D01*
X4304Y-5457D01*
X4157Y-5604D01*
X4078Y-5795D01*
X4078Y-6003D01*
X4157Y-6195D01*
X4304Y-6342D01*
X4443Y-6400D01*
X4304Y-6457D01*
X4157Y-6604D01*
X4078Y-6795D01*
X4078Y-7003D01*
X4157Y-7195D01*
X4304Y-7342D01*
X4443Y-7400D01*
X4304Y-7457D01*
X4157Y-7604D01*
X4078Y-7795D01*
X4078Y-8003D01*
X4157Y-8195D01*
X4304Y-8342D01*
X4443Y-8400D01*
X4304Y-8457D01*
X4157Y-8604D01*
X4078Y-8795D01*
X4078Y-9003D01*
X4157Y-9195D01*
X4304Y-9342D01*
X4443Y-9400D01*
X4304Y-9457D01*
X4157Y-9604D01*
X4078Y-9795D01*
X4078Y-10003D01*
X4157Y-10195D01*
X4304Y-10342D01*
X4443Y-10400D01*
X4304Y-10457D01*
X4157Y-10604D01*
X4078Y-10795D01*
X4078Y-11003D01*
X4157Y-11195D01*
X4304Y-11342D01*
X4443Y-11400D01*
X4304Y-11457D01*
X4157Y-11604D01*
X4078Y-11795D01*
X4078Y-12003D01*
X4157Y-12195D01*
X4304Y-12342D01*
X4495Y-12421D01*
X4703Y-12421D01*
X4895Y-12342D01*
X5042Y-12195D01*
X5100Y-12056D01*
X5157Y-12195D01*
X5304Y-12342D01*
X5495Y-12421D01*
X5703Y-12421D01*
X5895Y-12342D01*
X6042Y-12195D01*
X6121Y-12004D01*
X6121Y-11796D01*
X6121Y-19700D01*
X3421Y-19700D01*
X3421Y-17669D01*
X3421Y-2669D01*
X3419Y-2493D01*
X3419Y-2317D01*
X3416Y-2311D01*
X3416Y-2304D01*
X3286Y-1990D01*
X3283Y-1988D01*
X3279Y-1979D01*
X3021Y-1720D01*
X3011Y-1716D01*
X3009Y-1713D01*
X2846Y-1648D01*
X2683Y-1580D01*
X2676Y-1580D01*
X2669Y-1578D01*
X2493Y-1580D01*
X2317Y-1580D01*
X2311Y-1583D01*
X2304Y-1583D01*
X1990Y-1713D01*
X1988Y-1716D01*
X1979Y-1720D01*
X1720Y-1978D01*
X1716Y-1988D01*
X1713Y-1990D01*
X1648Y-2153D01*
X1580Y-2316D01*
X1580Y-2323D01*
X1578Y-2330D01*
X1580Y-2506D01*
X1580Y-2682D01*
X1583Y-2688D01*
X1583Y-2695D01*
X1713Y-3009D01*
X1716Y-3011D01*
X1720Y-3020D01*
X1978Y-3279D01*
X1988Y-3283D01*
X1990Y-3286D01*
X2153Y-3351D01*
X2316Y-3419D01*
X2323Y-3419D01*
X2330Y-3421D01*
X2506Y-3419D01*
X2682Y-3419D01*
X2688Y-3416D01*
X2695Y-3416D01*
X3009Y-3286D01*
X3011Y-3283D01*
X3020Y-3279D01*
X3279Y-3021D01*
X3283Y-3011D01*
X3286Y-3009D01*
X3351Y-2846D01*
X3419Y-2683D01*
X3419Y-2676D01*
X3421Y-2669D01*
X3421Y-17669D01*
X3419Y-17493D01*
X3419Y-17317D01*
X3416Y-17311D01*
X3416Y-17304D01*
X3286Y-16990D01*
X3283Y-16988D01*
X3279Y-16979D01*
X3021Y-16720D01*
X3011Y-16716D01*
X3009Y-16713D01*
X2846Y-16648D01*
X2683Y-16580D01*
X2676Y-16580D01*
X2669Y-16578D01*
X2493Y-16580D01*
X2317Y-16580D01*
X2311Y-16583D01*
X2304Y-16583D01*
X1990Y-16713D01*
X1988Y-16716D01*
X1979Y-16720D01*
X1720Y-16978D01*
X1716Y-16988D01*
X1713Y-16990D01*
X1648Y-17153D01*
X1580Y-17316D01*
X1580Y-17323D01*
X1578Y-17330D01*
X1580Y-17506D01*
X1580Y-17682D01*
X1583Y-17688D01*
X1583Y-17695D01*
X1713Y-18009D01*
X1716Y-18011D01*
X1720Y-18020D01*
X1978Y-18279D01*
X1988Y-18283D01*
X1990Y-18286D01*
X2153Y-18351D01*
X2316Y-18419D01*
X2323Y-18419D01*
X2330Y-18421D01*
X2506Y-18419D01*
X2682Y-18419D01*
X2688Y-18416D01*
X2695Y-18416D01*
X3009Y-18286D01*
X3011Y-18283D01*
X3020Y-18279D01*
X3279Y-18021D01*
X3283Y-18011D01*
X3286Y-18009D01*
X3351Y-17846D01*
X3419Y-17683D01*
X3419Y-17676D01*
X3421Y-17669D01*
X3421Y-19700D01*
X300Y-19700D01*
X300Y-300D01*
X19700Y-300D01*
X19700Y-19700D01*
M02*
