%FSLAX34Y34*%
G04 Gerber Fmt 3.4, Leading zero omitted, Abs format*
G04 (created by PCBNEW (2013-04-01 BZR 4058)-product) date Tue 02 Sep 2014 09:50:09 AM PDT*
%MOIN*%
G01*
G70*
G90*
G04 APERTURE LIST*
%ADD10C,0.005906*%
%ADD11R,0.055000X0.035000*%
%ADD12C,0.054370*%
%ADD13R,0.078740X0.023622*%
%ADD14C,0.315100*%
G04 APERTURE END LIST*
G54D10*
G54D11*
X10500Y-7725D03*
X10500Y-8475D03*
G54D12*
X5600Y-11900D03*
X4600Y-11900D03*
X5600Y-10900D03*
X4600Y-10900D03*
X5600Y-9900D03*
X4600Y-9900D03*
X5600Y-8900D03*
X4600Y-8900D03*
X5600Y-7900D03*
X4600Y-7900D03*
X5600Y-6900D03*
X4600Y-6900D03*
X5600Y-5900D03*
X4600Y-5900D03*
X5600Y-4900D03*
X4600Y-4900D03*
X5600Y-3900D03*
X4600Y-3900D03*
X5600Y-2900D03*
X4600Y-2900D03*
G54D13*
X11369Y-9350D03*
X11369Y-8850D03*
X11369Y-8350D03*
X11369Y-7850D03*
X11369Y-9850D03*
X11369Y-10350D03*
X11369Y-10850D03*
X11369Y-11350D03*
X15030Y-11350D03*
X15030Y-10850D03*
X15030Y-10350D03*
X15030Y-9850D03*
X15030Y-9350D03*
X15030Y-8850D03*
X15030Y-8350D03*
X15030Y-7850D03*
G54D14*
X17500Y-2500D03*
X2500Y-2500D03*
X17500Y-17400D03*
X2500Y-17500D03*
M02*
